<?xml version="1.0" encoding="utf-8"?>
<!-- Generator: Adobe Illustrator 23.0.2, SVG Export Plug-In . SVG Version: 6.00 Build 0)  -->
<svg version="1.1" id="Lag_1" xmlns="http://www.w3.org/2000/svg" xmlns:xlink="http://www.w3.org/1999/xlink" x="0px" y="0px"
	 viewBox="0 0 237 243" style="enable-background:new 0 0 237 243;" xml:space="preserve">
<style type="text/css">
	.st0{fill:#FFFFFF;enable-background:new    ;}
	.st1{opacity:0.15;fill:#E9BA76;enable-background:new    ;}
	.st2{fill:#E9BA76;}
	.st3{opacity:0.2;fill:#E9BA76;}
	.st4{fill:#DE5E00;}
	.st5{fill:#F4A38A;}
	.st6{fill:#E8B894;}
	.st7{fill:#F2C9A8;}
	.st8{fill:#FFFFFF;}
	.st9{fill:#F4A387;}
	.st10{fill:#686867;}
	.st11{fill:#BBCAD1;}
</style>
<g>
	<g>
		<path class="st0" d="M210.6,122.4c0-52.8-41.2-95.5-92.1-95.5s-92.1,42.8-92.1,95.5s41.2,95.5,92.1,95.5S210.6,175.1,210.6,122.4z
			"/>
		<path class="st1" d="M210.6,121.5c0-52.8-41.2-95.5-92.1-95.5s-92.1,42.8-92.1,95.5S67.6,217,118.5,217S210.6,174.3,210.6,121.5z"
			/>
		<g>
			<path class="st2" d="M220,121.5c0-58.2-45.4-105.3-101.5-105.3C62.4,16.2,17,63.3,17,121.5s45.4,105.3,101.5,105.3
				S220,179.7,220,121.5z M26.4,121.5c0-52.8,41.2-95.5,92.1-95.5s92.1,42.8,92.1,95.5S169.3,217,118.5,217S26.4,174.3,26.4,121.5z"
				/>
			<path class="st3" d="M182.3,76.4c13.4,3.6,20.4,25.4,11.2,36.1c-13.2,15.2-66.8,6.9-66.8,6.9S163.2,71.2,182.3,76.4z"/>
			<path class="st3" d="M194.5,138.6c7.2,12.3-2.4,33-16.2,34c-19.7,1.4-54.3-45.6-54.3-45.6S184.2,121.1,194.5,138.6z"/>
			<path class="st3" d="M160.4,194.9c-4.5,13.6-26,19.2-35.5,8.8c-13.7-14.8-1-72.5-1-72.5S166.8,175.5,160.4,194.9z"/>
			<path class="st3" d="M99.7,202.6c-12.4,6.5-31.5-4.9-31.5-19.3c0.1-20.5,47.9-52.8,47.9-52.8S117.3,193.3,99.7,202.6z"/>
			<path class="st3" d="M50.9,162.7c-13-5-17.8-27.4-7.6-37.1c14.6-13.8,67.1,0.2,67.1,0.2S69.4,169.9,50.9,162.7z"/>
			<path class="st3" d="M40.8,106.1c-7.3-12.3,2.1-33,16-34.1c19.7-1.6,54.7,45.2,54.7,45.2S51.2,123.6,40.8,106.1z"/>
			<path class="st3" d="M77.2,49.5c4.4-13.7,25.8-19.4,35.5-9.1c13.8,14.7,1.5,72.5,1.5,72.5S70.9,69,77.2,49.5z"/>
			<path class="st3" d="M136.9,42.7c11.6-6.3,29.9,4.3,30,17.9c0.1,19.4-44.8,50.6-44.8,50.6S120.3,51.7,136.9,42.7z"/>
		</g>
	</g>
	<g>
		<path class="st4" d="M95.3,124.3c-0.9,9.1-7.7,16.5-14.9,22.1c-7.2,5.6-15.4,10.4-20.7,17.8c-5.4,7.4-7.1,18.6-0.8,25.3
			c0-5.2,4.4-9.4,9.4-10.7c5-1.3,10.3-0.9,15.3-2c10.2-2.1,18.8-10.6,21-20.8C106.8,145.9,103.6,130.5,95.3,124.3z"/>
		<path class="st4" d="M145,124.3c0.9,9.1,7.7,16.5,14.9,22.1c7.2,5.6,15.4,10.4,20.7,17.8c5.4,7.4,7.1,18.6,0.8,25.3
			c0-5.2-4.4-9.4-9.4-10.7c-5-1.3-10.3-0.9-15.3-2c-10.2-2.1-18.8-10.6-21-20.8C133.5,145.9,136.7,130.5,145,124.3z"/>
		<path class="st5" d="M127.5,188.8L127.5,188.8c-5.7,4.3-13.6,4.3-19.4,0l0,0v-34.6h19.4V188.8z"/>
		<path class="st5" d="M108.2,177.8c5.7,3.3,12.3,5.4,19.4,5.7v-29.3h-19.4V177.8z"/>
		<path class="st6" d="M160.3,136.2L160.3,136.2c-5.2,0-9.4-4.2-9.4-9.4v-4c0-5.2,4.2-9.4,9.4-9.4h0c5.2,0,9.4,4.2,9.4,9.4v4
			C169.7,132,165.5,136.2,160.3,136.2z"/>
		<path class="st6" d="M75.4,136.2L75.4,136.2c-5.2,0-9.4-4.2-9.4-9.4v-4c0-5.2,4.2-9.4,9.4-9.4h0c5.2,0,9.4,4.2,9.4,9.4v4
			C84.8,132,80.6,136.2,75.4,136.2z"/>
		<path class="st7" d="M117.9,176.7L117.9,176.7c-23.7,0-42.8-19.2-42.8-42.8v-18.3c0-23.7,19.2-42.8,42.8-42.8h0
			c23.7,0,42.8,19.2,42.8,42.8v18.3C160.7,157.5,141.5,176.7,117.9,176.7z"/>
		<path class="st4" d="M153.8,158.2c2.5-19.7-1.8-40.8-12.5-57.1c-6.9,4.6-15.7,3.9-23.7,2.7c-8-1.2-16.6-2.7-24,0.7
			c-7.7,3.5-12.8,11.7-15,20.3c-2.2,8.6-2.1,18.3-1.7,27.2c-3.4-9.6-6.8-19.3-8.4-29.4s-1.6-20.7,1.8-30.3c3.4-9.5,10-17.5,18.1-23
			c8-5.5,17.4-8.6,26.9-9.8c12.2-1.4,24.6,3,33.4,12.1c8.7,9.1,13.9,21.6,16.5,34.3c1.9,9.1,2.6,18.6,1,27.8
			C164.5,143,160.3,151.9,153.8,158.2z"/>
		<ellipse class="st8" cx="101.1" cy="120.8" rx="6.2" ry="4.3"/>
		<ellipse class="st8" cx="132" cy="120.8" rx="6.2" ry="4.3"/>
		<path class="st9" d="M116.7,146.7L116.7,146.7c-2.2,0-4.1-1.8-4.1-4.1v-18.3c0-2.2,1.8-4.1,4.1-4.1h0c2.2,0,4.1,1.8,4.1,4.1v18.3
			C120.8,144.9,118.9,146.7,116.7,146.7z"/>
		<circle class="st10" cx="101.6" cy="120.7" r="3.4"/>
		<circle class="st10" cx="132" cy="120.7" r="3.4"/>
		<path class="st9" d="M114.5,164.8c-9.8,0-15-9.8-15-15c0-0.9,0.8-1.7,1.7-1.7s1.7,0.8,1.7,1.7c0,3.9,4.1,11.6,11.6,11.6
			c7.5,0,14.8-5.7,14.8-11.5c0-0.9,0.8-1.7,1.7-1.7s1.7,0.8,1.7,1.7C132.7,157.6,123.9,164.8,114.5,164.8z"/>
	</g>
	<g>
		<path class="st11" d="M128.1,183.6h-20.5c-14.4,0-26.4,10.4-28.8,24.1c12,6,25.5,9.3,39.7,9.3c13.8,0,26.8-3.1,38.6-8.8
			C154.8,194.3,142.7,183.6,128.1,183.6z"/>
	</g>
</g>
</svg>
