<?xml version="1.0" encoding="utf-8"?>
<!-- Generator: Adobe Illustrator 23.0.2, SVG Export Plug-In . SVG Version: 6.00 Build 0)  -->
<svg version="1.1" id="Lag_1" xmlns="http://www.w3.org/2000/svg" xmlns:xlink="http://www.w3.org/1999/xlink" x="0px" y="0px"
	 viewBox="0 0 237 243" style="enable-background:new 0 0 237 243;" xml:space="preserve">
<style type="text/css">
	.st0{fill:#FFFFFF;enable-background:new    ;}
	.st1{opacity:0.15;fill:#E9BA76;enable-background:new    ;}
	.st2{fill:#E9BA76;}
	.st3{opacity:0.2;fill:#E9BA76;}
	.st4{fill:#F4A38A;}
	.st5{fill:#E8B894;}
	.st6{fill:#F2C9A8;}
	.st7{fill:#FF9D4E;}
	.st8{fill:#FFFFFF;}
	.st9{fill:#F4A387;}
	.st10{fill:#605B55;}
	.st11{fill:#ECB3BF;}
	.st12{fill:#686867;}
	.st13{fill:#D8B88E;}
	.st14{opacity:0.15;fill:#D8B88E;enable-background:new    ;}
</style>
<g>
	<g>
		<path class="st0" d="M210.6,122.4c0-52.8-41.2-95.5-92.1-95.5s-92.1,42.8-92.1,95.5s41.2,95.5,92.1,95.5S210.6,175.1,210.6,122.4z
			"/>
		<path class="st1" d="M210.6,121.5c0-52.8-41.2-95.5-92.1-95.5s-92.1,42.8-92.1,95.5S67.6,217,118.5,217S210.6,174.3,210.6,121.5z"
			/>
		<g>
			<path class="st2" d="M220,121.5c0-58.2-45.4-105.3-101.5-105.3C62.4,16.2,17,63.3,17,121.5s45.4,105.3,101.5,105.3
				S220,179.7,220,121.5z M26.4,121.5c0-52.8,41.2-95.5,92.1-95.5s92.1,42.8,92.1,95.5S169.3,217,118.5,217S26.4,174.3,26.4,121.5z"
				/>
			<path class="st3" d="M182.3,76.4c13.4,3.6,20.4,25.4,11.2,36.1c-13.2,15.2-66.8,6.9-66.8,6.9S163.2,71.2,182.3,76.4z"/>
			<path class="st3" d="M194.5,138.6c7.2,12.3-2.4,33-16.2,34c-19.7,1.4-54.3-45.6-54.3-45.6S184.2,121.1,194.5,138.6z"/>
			<path class="st3" d="M160.4,194.9c-4.5,13.6-26,19.2-35.5,8.8c-13.7-14.8-1-72.5-1-72.5S166.8,175.5,160.4,194.9z"/>
			<path class="st3" d="M99.7,202.6c-12.4,6.5-31.5-4.9-31.5-19.3c0.1-20.5,47.9-52.8,47.9-52.8S117.3,193.3,99.7,202.6z"/>
			<path class="st3" d="M50.9,162.7c-13-5-17.8-27.4-7.6-37.1c14.6-13.8,67.1,0.2,67.1,0.2S69.4,169.9,50.9,162.7z"/>
			<path class="st3" d="M40.8,106.1c-7.3-12.3,2.1-33,16-34.1c19.7-1.6,54.7,45.2,54.7,45.2S51.2,123.6,40.8,106.1z"/>
			<path class="st3" d="M77.2,49.5c4.4-13.7,25.8-19.4,35.5-9.1c13.8,14.7,1.5,72.5,1.5,72.5S70.9,69,77.2,49.5z"/>
			<path class="st3" d="M136.9,42.7c11.6-6.3,29.9,4.3,30,17.9c0.1,19.4-44.8,50.6-44.8,50.6S120.3,51.7,136.9,42.7z"/>
		</g>
	</g>
	<g>
		<g>
			<path class="st4" d="M128.3,189.3L128.3,189.3c-5.7,4.3-13.6,4.3-19.4,0l0,0v-34.6h19.4V189.3z"/>
			<path class="st4" d="M109,178.3c5.7,3.3,12.3,5.4,19.4,5.7v-29.3H109V178.3z"/>
			<g>
				<path class="st5" d="M161.1,136.7L161.1,136.7c-5.2,0-9.4-4.2-9.4-9.4v-4c0-5.2,4.2-9.4,9.4-9.4h0c5.2,0,9.4,4.2,9.4,9.4v4
					C170.5,132.5,166.3,136.7,161.1,136.7z"/>
				<path class="st5" d="M76.2,136.7L76.2,136.7c-5.2,0-9.4-4.2-9.4-9.4v-4c0-5.2,4.2-9.4,9.4-9.4h0c5.2,0,9.4,4.2,9.4,9.4v4
					C85.7,132.5,81.4,136.7,76.2,136.7z"/>
			</g>
			<path class="st6" d="M118.7,177.2L118.7,177.2c-23.7,0-42.8-19.2-42.8-42.8v-18.3c0-23.7,19.2-42.8,42.8-42.8h0
				c23.7,0,42.8,19.2,42.8,42.8v18.3C161.5,158.1,142.3,177.2,118.7,177.2z"/>
			<path class="st7" d="M74.2,129.4c7.7-8.8,12.7-19.8,14.2-31.4c8,7,19,10.1,29.6,10.4c-0.8-2-2-4.3-2.8-6.3c7,5.8,16.4,7.1,25.3,9
				c8.8,2,18.3,5.6,22.4,13.6c2.4-14.2,2.8-28.1-1.9-41.7c-2.7-7.6-6.8-15.3-13.6-19.5c-6.6-4.1-14.7-4.5-22.4-4.2
				c-10.4,0.5-21.7,2.7-28.5,10.6c-4.9-2.4-12-0.3-16.4,3c-4.4,3.2-7.1,8.3-8.5,13.5c-1.4,5.2-1.6,10.7-1.8,16.1
				C69.5,111.7,70,121.4,74.2,129.4z"/>
			<path class="st7" d="M132.2,168.6c-3.1,0.5-6.6,0.4-8.8-1.7h-2.7h-4.5h-2.7c-2.3,2.1-5.7,2.1-8.8,1.7c-8.1-1.2-15.8-5-21.8-10.6
				c7.7,11.6,20.8,19.2,35.8,19.2h0c15.4,0,28.8-8.1,36.4-20.3C148.9,163.1,140.8,167.3,132.2,168.6z"/>
		</g>
		<ellipse class="st8" cx="103.8" cy="119.1" rx="6.2" ry="4.3"/>
		<ellipse class="st8" cx="134.8" cy="119.1" rx="6.2" ry="4.3"/>
		<path class="st9" d="M119.5,145L119.5,145c-2.2,0-4.1-1.8-4.1-4.1v-18.3c0-2.2,1.8-4.1,4.1-4.1h0c2.2,0,4.1,1.8,4.1,4.1V141
			C123.5,143.2,121.7,145,119.5,145z"/>
		<path class="st10" d="M108.4,146.5c-1.3,2-2,4.4-2,6.9c0,7.1,5.8,12.9,12.9,12.9c7.1,0,12.9-5.8,12.9-12.9c0-0.5,0-1.1-0.1-1.6
			L108.4,146.5z"/>
		<path class="st11" d="M115.9,152.3c-3.3,0-6.3,1.5-8.3,3.9c0.3,5.7,5,10.3,10.8,10.3c3.3,0,6.3-1.5,8.3-3.9
			C126.4,156.8,121.7,152.3,115.9,152.3z"/>
		<circle class="st12" cx="104.4" cy="119" r="3.4"/>
		<circle class="st12" cx="134.8" cy="119" r="3.4"/>
	</g>
	<g>
		<path class="st13" d="M128.9,184.1h-20.5c-14.4,0-26.3,10.3-28.8,24c11.8,5.7,25,8.9,38.9,8.9c14,0,27.3-3.3,39.2-9.1
			C155.1,194.4,143.2,184.1,128.9,184.1z"/>
		<path class="st14" d="M128.9,184.1h-20.5c-14.4,0-26.3,10.3-28.8,24c11.8,5.7,25,8.9,38.9,8.9c14,0,27.3-3.3,39.2-9.1
			C155.1,194.4,143.2,184.1,128.9,184.1z"/>
	</g>
</g>
</svg>
