<?xml version="1.0" encoding="utf-8"?>
<!-- Generator: Adobe Illustrator 23.0.2, SVG Export Plug-In . SVG Version: 6.00 Build 0)  -->
<svg version="1.1" id="Lag_1" xmlns="http://www.w3.org/2000/svg" xmlns:xlink="http://www.w3.org/1999/xlink" x="0px" y="0px"
	 viewBox="0 0 354 312" style="enable-background:new 0 0 354 312;" xml:space="preserve">
<style type="text/css">
	.st0{fill:#FFFFFF;}
	.st1{fill:#E9BA76;}
</style>
<g>
	<path class="st0" d="M293.8,61.6h-141c-35.7-1.9-38.5-28.8-38.5-28.8c-6.9,24.1-3.3,28.5-23.4,28.8h-37c-16.2,0-29.5,13.9-29.5,31
		v156.8c0,17,13.3,31,29.5,31h239.9c16.2,0,29.5-13.9,29.5-31V92.6C323.3,75.5,310,61.6,293.8,61.6z"/>
	<path class="st1" d="M293.8,282.4H53.9c-17.4,0-31.5-14.8-31.5-33V92.6c0-18.2,14.1-33,31.5-33h37c14.7-0.2,15-1.6,18.4-15.5
		c0.8-3.2,1.7-7.2,3.1-11.8c0.3-0.9,1.2-1.5,2.1-1.4c1,0.1,1.7,0.8,1.8,1.8c0.1,1,3.1,25.2,36.5,27h141c17.4,0,31.5,14.8,31.5,33
		v156.8C325.3,267.6,311.2,282.4,293.8,282.4z M114.3,40.2c-0.4,1.7-0.8,3.3-1.2,4.8c-3.6,14.9-5.1,18.4-22.3,18.6h-37
		c-15.2,0-27.5,13-27.5,29v156.8c0,16,12.3,29,27.5,29h239.9c15.2,0,27.5-13,27.5-29V92.6c0-16-12.3-29-27.5-29h-141
		c0,0-0.1,0-0.1,0C127.5,62.2,117.9,48.8,114.3,40.2z"/>
</g>
</svg>
