<?xml version="1.0" encoding="utf-8"?>
<!-- Generator: Adobe Illustrator 23.0.2, SVG Export Plug-In . SVG Version: 6.00 Build 0)  -->
<svg version="1.1" id="Lag_1" xmlns="http://www.w3.org/2000/svg" xmlns:xlink="http://www.w3.org/1999/xlink" x="0px" y="0px"
	 viewBox="0 0 1450 612" style="enable-background:new 0 0 1450 612;" xml:space="preserve">
<style type="text/css">
	.st0{fill:url(#SVGID_1_);}
	.st1{fill:url(#SVGID_2_);}
	.st2{fill:url(#SVGID_3_);}
	.st3{fill:url(#SVGID_4_);}
	.st4{fill:url(#SVGID_5_);}
</style>
<linearGradient id="SVGID_1_" gradientUnits="userSpaceOnUse" x1="880.8343" y1="796.0518" x2="349.5974" y2="-871.1171" gradientTransform="matrix(1 0 0 -1 0 613)">
	<stop  offset="0" style="stop-color:#FFFFFF"/>
	<stop  offset="0.6531" style="stop-color:#BBCAD1"/>
</linearGradient>
<path class="st0" d="M1414.15,129.05h-47.41c0,0-15.41,10.8-21.34,0c0,0-16.6,7.2-20.15,0c0,0-55.71,6.01-58.08-4.8
	c0,0,2.37-15.61,10.67-10.81c0,0,4.74-14.41,14.22-13.21c9.48,1.2,21.34,6.01,21.34,6.01s-2.37-16.81,13.03-16.81
	c11.86,0,14.59,6.39,15.22,9.35c-0.82-7.48-2.57-41.49,32.19-48.96c39.11-8.41,54.53,33.61,54.53,33.61s8.3-4.36,21.62-3.24V0H0v612
	h1450V122.28c-6.28-0.42-10.96-0.42-10.96-0.42S1421.26,133.85,1414.15,129.05z"/>
<radialGradient id="SVGID_2_" cx="1063.5" cy="443.5" r="181.5" gradientTransform="matrix(1 0 0 -1 0 613)" gradientUnits="userSpaceOnUse">
	<stop  offset="0" style="stop-color:#FFF374;stop-opacity:0.8"/>
	<stop  offset="0.2129" style="stop-color:#FFF376;stop-opacity:0.763"/>
	<stop  offset="0.2896" style="stop-color:#FFF47D;stop-opacity:0.7497"/>
	<stop  offset="0.3441" style="stop-color:#FFF588;stop-opacity:0.7403"/>
	<stop  offset="0.3856" style="stop-color:#FFF698;stop-opacity:0.7331"/>
	<stop  offset="0.434" style="stop-color:#FFF7A1;stop-opacity:0.6754"/>
	<stop  offset="0.8187" style="stop-color:#FFFDE2;stop-opacity:0.2163"/>
	<stop  offset="1" style="stop-color:#FFFFFB;stop-opacity:0"/>
</radialGradient>
<circle class="st1" cx="1063.5" cy="169.5" r="181.5"/>
<linearGradient id="SVGID_3_" gradientUnits="userSpaceOnUse" x1="1399.5796" y1="625.4658" x2="873.1799" y2="-1026.5228" gradientTransform="matrix(1 0 0 -1 0 613)">
	<stop  offset="0" style="stop-color:#FFFFFF"/>
	<stop  offset="0.6531" style="stop-color:#BBCAD1"/>
</linearGradient>
<path class="st2" d="M1424.6,86.75c0,0-15.25-41.68-53.96-33.34c-34.4,7.41-32.67,41.15-31.86,48.56c0.19,0.87,0.19,1.45,0.19,1.45
	s-0.09-0.52-0.19-1.45c-0.62-2.92-3.32-9.27-15.06-9.27c-15.25,0-12.9,16.67-12.9,16.67s-11.73-4.76-21.12-5.96
	c-9.38-1.19-14.07,13.1-14.07,13.1c-8.22-4.76-10.56,10.72-10.56,10.72c2.34,10.72,57.48,4.76,57.48,4.76c3.52,7.14,19.94,0,19.94,0
	c5.86,10.71,21.11,0,21.11,0h46.92c7.04,4.76,24.64-7.14,24.64-7.14s4.64,0,10.84,0.42V83.53
	C1432.82,82.43,1424.6,86.75,1424.6,86.75z"/>
<linearGradient id="SVGID_4_" gradientUnits="userSpaceOnUse" x1="1377.7836" y1="632.4111" x2="851.384" y2="-1019.5776" gradientTransform="matrix(1 0 0 -1 0 613)">
	<stop  offset="0" style="stop-color:#FFFFFF"/>
	<stop  offset="0.6531" style="stop-color:#BBCAD1"/>
</linearGradient>
<path class="st3" d="M1338.78,101.97c0.1,0.93,0.19,1.45,0.19,1.45S1338.97,102.85,1338.78,101.97z"/>
<linearGradient id="SVGID_5_" gradientUnits="userSpaceOnUse" x1="1357.9369" y1="570.1265" x2="1300.4441" y2="389.6983" gradientTransform="matrix(1 0 0 -1 0 613)">
	<stop  offset="0" style="stop-color:#FFFFFF"/>
	<stop  offset="0.6531" style="stop-color:#BBCAD1"/>
</linearGradient>
<path class="st4" d="M1338.78,101.97c0.1,0.93,0.19,1.45,0.19,1.45S1338.97,102.85,1338.78,101.97z"/>
</svg>
