<?xml version="1.0" encoding="utf-8"?>
<!-- Generator: Adobe Illustrator 23.0.2, SVG Export Plug-In . SVG Version: 6.00 Build 0)  -->
<svg version="1.1" id="Lag_1" xmlns="http://www.w3.org/2000/svg" xmlns:xlink="http://www.w3.org/1999/xlink" x="0px" y="0px"
	 viewBox="0 0 1450 612" style="enable-background:new 0 0 1450 612;" xml:space="preserve">
<style type="text/css">
	.st0{fill:url(#SVGID_1_);}
	.st1{fill:url(#SVGID_2_);}
	.st2{fill:url(#SVGID_3_);}
	.st3{fill:url(#SVGID_4_);}
	.st4{fill:url(#SVGID_5_);}
	.st5{fill:url(#SVGID_6_);}
	.st6{fill:url(#SVGID_7_);}
	.st7{fill:url(#SVGID_8_);}
	.st8{fill:url(#SVGID_9_);}
</style>
<linearGradient id="SVGID_1_" gradientUnits="userSpaceOnUse" x1="880.8343" y1="796.0518" x2="349.5974" y2="-871.1171" gradientTransform="matrix(1 0 0 -1 0 613)">
	<stop  offset="0" style="stop-color:#FFFFFF"/>
	<stop  offset="0.6531" style="stop-color:#BBCAD1"/>
</linearGradient>
<path class="st0" d="M1414.15,129.05h-47.41c0,0-15.41,10.8-21.34,0c0,0-16.6,7.2-20.15,0c0,0-55.71,6.01-58.08-4.8
	c0,0,2.37-15.61,10.67-10.81c0,0,4.74-14.41,14.22-13.21c9.48,1.2,21.34,6.01,21.34,6.01s-2.37-16.81,13.03-16.81
	c11.86,0,14.59,6.39,15.22,9.35c-0.82-7.48-2.57-41.49,32.19-48.96c39.11-8.41,54.53,33.61,54.53,33.61s8.3-4.36,21.62-3.24V0H0v612
	h1450V122.28c-6.28-0.42-10.96-0.42-10.96-0.42S1421.26,133.85,1414.15,129.05z"/>
<radialGradient id="SVGID_2_" cx="1063.5" cy="443.5" r="181.5" gradientTransform="matrix(1 0 0 -1 0 613)" gradientUnits="userSpaceOnUse">
	<stop  offset="0" style="stop-color:#FFF374;stop-opacity:0.8"/>
	<stop  offset="0.2129" style="stop-color:#FFF376;stop-opacity:0.763"/>
	<stop  offset="0.2896" style="stop-color:#FFF47D;stop-opacity:0.7497"/>
	<stop  offset="0.3441" style="stop-color:#FFF588;stop-opacity:0.7403"/>
	<stop  offset="0.3856" style="stop-color:#FFF698;stop-opacity:0.7331"/>
	<stop  offset="0.434" style="stop-color:#FFF7A1;stop-opacity:0.6754"/>
	<stop  offset="0.8187" style="stop-color:#FFFDE2;stop-opacity:0.2163"/>
	<stop  offset="1" style="stop-color:#FFFFFB;stop-opacity:0"/>
</radialGradient>
<circle class="st1" cx="1063.5" cy="169.5" r="181.5"/>
<linearGradient id="SVGID_3_" gradientUnits="userSpaceOnUse" x1="609.657" y1="486.4155" x2="552.1643" y2="305.9873" gradientTransform="matrix(1 0 0 -1 0 613)">
	<stop  offset="0" style="stop-color:#FFFFFF"/>
	<stop  offset="0.6531" style="stop-color:#BBCAD1"/>
</linearGradient>
<path class="st2" d="M503.82,174.37c0,0-2.35-16.67,12.9-16.67c15.25,0,15.25,10.71,15.25,10.71s-7.04-41.67,31.67-50.01
	s53.96,33.34,53.96,33.34s31.67-16.67,70.38,23.82c0,0,23.46-5.96,34.02,9.52c0,0-7.04,8.34-22.29,8.34s-22.29,10.71-31.67,3.57
	s-39.88-7.14-39.88-7.14s-17.6,11.91-24.64,7.14H556.6c0,0-15.25,10.71-21.11,0c0,0-16.43,7.14-19.94,0c0,0-55.14,5.96-57.48-4.76
	c0,0,2.34-15.48,10.56-10.72c0,0,4.69-14.29,14.07-13.1C492.08,169.61,503.82,174.37,503.82,174.37z"/>
<linearGradient id="SVGID_4_" gradientUnits="userSpaceOnUse" x1="1399.5796" y1="625.4658" x2="873.1799" y2="-1026.5228" gradientTransform="matrix(1 0 0 -1 0 613)">
	<stop  offset="0" style="stop-color:#FFFFFF"/>
	<stop  offset="0.6531" style="stop-color:#BBCAD1"/>
</linearGradient>
<path class="st3" d="M1424.6,86.75c0,0-15.25-41.68-53.96-33.34c-34.4,7.41-32.67,41.15-31.86,48.56c0.19,0.87,0.19,1.45,0.19,1.45
	s-0.09-0.52-0.19-1.45c-0.62-2.92-3.32-9.27-15.06-9.27c-15.25,0-12.9,16.67-12.9,16.67s-11.73-4.76-21.12-5.96
	c-9.38-1.19-14.07,13.1-14.07,13.1c-8.22-4.76-10.56,10.72-10.56,10.72c2.34,10.72,57.48,4.76,57.48,4.76c3.52,7.14,19.94,0,19.94,0
	c5.86,10.71,21.11,0,21.11,0h46.92c7.04,4.76,24.64-7.14,24.64-7.14s4.64,0,10.84,0.42V83.53
	C1432.82,82.43,1424.6,86.75,1424.6,86.75z"/>
<linearGradient id="SVGID_5_" gradientUnits="userSpaceOnUse" x1="1379.7329" y1="563.1812" x2="1322.2402" y2="382.753" gradientTransform="matrix(1 0 0 -1 0 613)">
	<stop  offset="0" style="stop-color:#FFFFFF"/>
	<stop  offset="0.6531" style="stop-color:#BBCAD1"/>
</linearGradient>
<path class="st4" d="M1424.6,86.75c0,0-15.25-41.68-53.96-33.34c-34.4,7.41-32.67,41.15-31.86,48.56c0.19,0.87,0.19,1.45,0.19,1.45
	s-0.09-0.52-0.19-1.45c-0.62-2.92-3.32-9.27-15.06-9.27c-15.25,0-12.9,16.67-12.9,16.67s-11.73-4.76-21.12-5.96
	c-9.38-1.19-14.07,13.1-14.07,13.1c-8.22-4.76-10.56,10.72-10.56,10.72c2.34,10.72,57.48,4.76,57.48,4.76c3.52,7.14,19.94,0,19.94,0
	c5.86,10.71,21.11,0,21.11,0h46.92c7.04,4.76,24.64-7.14,24.64-7.14s4.64,0,10.84,0.42V83.53
	C1432.82,82.43,1424.6,86.75,1424.6,86.75z"/>
<linearGradient id="SVGID_6_" gradientUnits="userSpaceOnUse" x1="1377.7836" y1="632.4111" x2="851.384" y2="-1019.5776" gradientTransform="matrix(1 0 0 -1 0 613)">
	<stop  offset="0" style="stop-color:#FFFFFF"/>
	<stop  offset="0.6531" style="stop-color:#BBCAD1"/>
</linearGradient>
<path class="st5" d="M1338.78,101.97c0.1,0.93,0.19,1.45,0.19,1.45S1338.97,102.85,1338.78,101.97z"/>
<linearGradient id="SVGID_7_" gradientUnits="userSpaceOnUse" x1="1357.9369" y1="570.1265" x2="1300.4441" y2="389.6983" gradientTransform="matrix(1 0 0 -1 0 613)">
	<stop  offset="0" style="stop-color:#FFFFFF"/>
	<stop  offset="0.6531" style="stop-color:#BBCAD1"/>
</linearGradient>
<path class="st6" d="M1338.78,101.97c0.1,0.93,0.19,1.45,0.19,1.45S1338.97,102.85,1338.78,101.97z"/>
<linearGradient id="SVGID_8_" gradientUnits="userSpaceOnUse" x1="976.4289" y1="500.6115" x2="918.9362" y2="320.1833" gradientTransform="matrix(1 0 0 -1 0 613)">
	<stop  offset="0" style="stop-color:#FFFFFF"/>
	<stop  offset="0.6531" style="stop-color:#BBCAD1"/>
</linearGradient>
<path class="st7" d="M870.59,160.18c0,0-2.35-16.67,12.9-16.67s15.25,10.71,15.25,10.71s-7.04-41.67,31.67-50.01
	c38.71-8.34,53.96,33.34,53.96,33.34s31.67-16.67,70.38,23.82c0,0,23.46-5.96,34.02,9.52c0,0-7.04,8.34-22.29,8.34
	s-22.29,10.71-31.67,3.57s-39.88-7.14-39.88-7.14s-17.6,11.91-24.64,7.14h-46.92c0,0-15.25,10.71-21.11,0c0,0-16.43,7.14-19.94,0
	c0,0-55.14,5.96-57.48-4.76c0,0,2.34-15.48,10.56-10.72c0,0,4.69-14.29,14.07-13.1C858.86,155.42,870.59,160.18,870.59,160.18z"/>
<linearGradient id="SVGID_9_" gradientUnits="userSpaceOnUse" x1="1327.657" y1="368.4155" x2="1270.1642" y2="187.9873" gradientTransform="matrix(1 0 0 -1 0 613)">
	<stop  offset="0" style="stop-color:#FFFFFF"/>
	<stop  offset="0.6531" style="stop-color:#BBCAD1"/>
</linearGradient>
<path class="st8" d="M1221.82,292.37c0,0-2.35-16.67,12.9-16.67s15.25,10.71,15.25,10.71s-7.04-41.67,31.67-50.01
	c38.71-8.34,53.96,33.34,53.96,33.34s31.67-16.67,70.38,23.82c0,0,23.46-5.96,34.02,9.52c0,0-7.04,8.34-22.29,8.34
	s-22.29,10.71-31.67,3.57c-9.38-7.14-39.88-7.14-39.88-7.14s-17.6,11.91-24.64,7.14h-46.92c0,0-15.25,10.71-21.11,0
	c0,0-16.43,7.14-19.94,0c0,0-55.14,5.96-57.48-4.76c0,0,2.34-15.48,10.56-10.72c0,0,4.69-14.29,14.07-13.1
	C1210.08,287.61,1221.82,292.37,1221.82,292.37z"/>
</svg>
