<?xml version="1.0" encoding="utf-8"?>
<!-- Generator: Adobe Illustrator 23.0.2, SVG Export Plug-In . SVG Version: 6.00 Build 0)  -->
<svg version="1.1" id="Lag_1" xmlns="http://www.w3.org/2000/svg" xmlns:xlink="http://www.w3.org/1999/xlink" x="0px" y="0px"
	 viewBox="0 0 1450 612" style="enable-background:new 0 0 1450 612;" xml:space="preserve">
<style type="text/css">
	.st0{fill:url(#SVGID_1_);}
	.st1{fill:url(#SVGID_2_);}
	.st2{fill:url(#SVGID_3_);}
	.st3{fill:none;}
	.st4{fill:url(#SVGID_4_);}
	.st5{fill:url(#SVGID_5_);}
	.st6{fill:url(#SVGID_6_);}
	.st7{fill:url(#SVGID_7_);}
	.st8{fill:url(#SVGID_8_);}
	.st9{fill:url(#SVGID_9_);}
	.st10{fill:url(#SVGID_10_);}
	.st11{fill:url(#SVGID_11_);}
	.st12{fill:url(#SVGID_12_);}
	.st13{fill:url(#SVGID_13_);}
	.st14{fill:url(#SVGID_14_);}
	.st15{fill:url(#SVGID_15_);}
	.st16{fill:url(#SVGID_16_);}
	.st17{fill:url(#SVGID_17_);}
	.st18{fill:url(#SVGID_18_);}
	.st19{fill:url(#SVGID_19_);}
</style>
<linearGradient id="SVGID_1_" gradientUnits="userSpaceOnUse" x1="500.8531" y1="43.5561" x2="412.5661" y2="320.6252">
	<stop  offset="0" style="stop-color:#FFFFFF"/>
	<stop  offset="0.6531" style="stop-color:#BBCAD1"/>
</linearGradient>
<path class="st0" d="M338.32,116.94c0,0-3.61-25.6,19.81-25.6s23.42,16.45,23.42,16.45S370.75,43.8,430.19,31s82.86,51.2,82.86,51.2
	s48.63-25.6,108.08,36.58c0,0,36.02-9.15,52.24,14.62c0,0-10.81,12.81-34.23,12.81c-23.41,0-34.23,16.45-48.64,5.48
	c-14.41-10.97-61.24-10.97-61.24-10.97s-27.03,18.28-37.83,10.97h-72.05c0,0-23.42,16.45-32.42,0c0,0-25.22,10.97-30.63,0
	c0,0-84.67,9.15-88.27-7.32c0,0,3.6-23.77,16.22-16.46c0,0,7.21-21.94,21.61-20.12C320.3,109.63,338.32,116.94,338.32,116.94z"/>
<linearGradient id="SVGID_2_" gradientUnits="userSpaceOnUse" x1="358.6573" y1="152.5846" x2="301.1646" y2="333.0128">
	<stop  offset="0" style="stop-color:#FFFFFF"/>
	<stop  offset="0.6531" style="stop-color:#BBCAD1"/>
</linearGradient>
<path class="st1" d="M252.82,200.37c0,0-2.35-16.67,12.9-16.67c15.25,0,15.25,10.71,15.25,10.71s-7.04-41.67,31.67-50.01
	c38.71-8.34,53.96,33.34,53.96,33.34s31.67-16.67,70.38,23.82c0,0,23.46-5.96,34.02,9.52c0,0-7.04,8.34-22.29,8.34
	c-15.25,0-22.29,10.71-31.67,3.57c-9.38-7.14-39.88-7.14-39.88-7.14s-17.6,11.91-24.64,7.14H305.6c0,0-15.25,10.71-21.11,0
	c0,0-16.43,7.14-19.94,0c0,0-55.14,5.96-57.48-4.76c0,0,2.34-15.48,10.56-10.72c0,0,4.69-14.29,14.07-13.1
	C241.08,195.61,252.82,200.37,252.82,200.37z"/>
<linearGradient id="SVGID_3_" gradientUnits="userSpaceOnUse" x1="796.6573" y1="35.5846" x2="739.1646" y2="216.0128">
	<stop  offset="0" style="stop-color:#FFFFFF"/>
	<stop  offset="0.6531" style="stop-color:#BBCAD1"/>
</linearGradient>
<path class="st2" d="M690.82,83.37c0,0-2.35-16.67,12.9-16.67c15.25,0,15.25,10.71,15.25,10.71s-7.04-41.67,31.67-50.01
	s53.96,33.34,53.96,33.34s31.67-16.67,70.38,23.82c0,0,23.46-5.96,34.02,9.52c0,0-7.04,8.34-22.29,8.34
	c-15.25,0-22.29,10.71-31.67,3.57c-9.38-7.14-39.88-7.14-39.88-7.14s-17.6,11.91-24.64,7.14H743.6c0,0-15.25,10.71-21.11,0
	c0,0-16.43,7.14-19.94,0c0,0-55.14,5.96-57.48-4.76c0,0,2.34-15.48,10.56-10.72c0,0,4.69-14.29,14.07-13.1
	C679.08,78.61,690.82,83.37,690.82,83.37z"/>
<g>
	<path class="st3" d="M1410.3,132c1.61,1.08,3.77,1.3,6.15,0.99c-20.05-5.17-48.76-5.17-48.76-5.17s-7.4,5-16.12,8.84
		c5.8-0.68,11.51-4.66,11.51-4.66H1410.3z"/>
	<path class="st3" d="M1370.17,53.41c-9.23,1.98-15.85,5.83-20.62,10.55c0.9,2.03,1.34,3.23,1.34,3.23s25.95-13.66,63.36,2.44
		C1405.73,59.26,1391.48,48.84,1370.17,53.41z"/>
	<g>
		<path class="st3" d="M1370.17,53.41c-9.23,1.98-15.85,5.83-20.62,10.55c0.9,2.03,1.34,3.23,1.34,3.23s25.95-13.66,63.36,2.44
			C1405.73,59.26,1391.48,48.84,1370.17,53.41z"/>
		<path class="st3" d="M1265.04,14.14c-54.74,11.79-51.98,65.47-50.69,77.27c-0.99-4.65-5.29-14.75-23.97-14.75
			c-24.27,0-20.53,26.52-20.53,26.52s-18.67-7.58-33.6-9.48c-14.92-1.89-22.39,20.84-22.39,20.84c-13.07-7.57-16.8,17.06-16.8,17.06
			c3.73,17.06,91.45,7.58,91.45,7.58c5.6,11.36,31.73,0,31.73,0c9.33,17.05,33.59,0,33.59,0h74.65c5.44,3.68,14.85,1.1,23.08-2.53
			c-3.7,0.43-7.44-0.48-9.74-4.66c0,0-16.53,7.14-20.07,0c0,0-55.48,5.96-57.84-4.76c0,0,2.36-15.48,10.63-10.72
			c0,0,4.72-14.29,14.16-13.1c9.44,1.19,21.25,5.96,21.25,5.96s-2.36-16.67,12.98-16.67c11.81,0,14.53,6.34,15.16,9.27
			c-0.6-5.44-1.67-25.03,11.45-38.02C1343.72,50.83,1318.38,2.65,1265.04,14.14z"/>
		<path class="st3" d="M1424.47,86.75c0,0,5.18-2.69,13.88-3.27c-8.42-6.08-16.49-10.58-24.09-13.85
			C1421.32,78.2,1424.47,86.75,1424.47,86.75z"/>
		<path class="st3" d="M1410.3,132c1.61,1.08,3.77,1.3,6.15,0.99c-20.05-5.17-48.76-5.17-48.76-5.17s-7.4,5-16.12,8.84
			c5.8-0.68,11.51-4.66,11.51-4.66H1410.3z"/>
		<path class="st3" d="M1435.09,124.86c0,0-10.57,7.1-18.64,8.14c6.02,1.55,11.25,3.57,14.7,6.19c5.16,3.93,9.88,4.46,14.85,3.47
			v-17.38C1439.75,124.86,1435.09,124.86,1435.09,124.86z"/>
		<g>
			<path class="st3" d="M1265.04,14.14c-54.74,11.79-51.98,65.47-50.69,77.27c-0.99-4.65-5.29-14.75-23.97-14.75
				c-24.27,0-20.53,26.52-20.53,26.52s-18.67-7.58-33.6-9.48c-14.92-1.89-22.39,20.84-22.39,20.84
				c-13.07-7.57-16.8,17.06-16.8,17.06c3.73,17.06,91.45,7.58,91.45,7.58c5.6,11.36,31.73,0,31.73,0c9.33,17.05,33.59,0,33.59,0
				h74.65c5.44,3.68,14.85,1.1,23.08-2.53c-3.7,0.43-7.44-0.48-9.74-4.66c0,0-16.53,7.14-20.07,0c0,0-55.48,5.96-57.84-4.76
				c0,0,2.36-15.48,10.63-10.72c0,0,4.72-14.29,14.16-13.1c9.44,1.19,21.25,5.96,21.25,5.96s-2.36-16.67,12.98-16.67
				c11.81,0,14.53,6.34,15.16,9.27c-0.6-5.44-1.67-25.03,11.45-38.02C1343.72,50.83,1318.38,2.65,1265.04,14.14z"/>
			<path class="st3" d="M1410.3,132c1.61,1.08,3.77,1.3,6.15,0.99c-20.05-5.17-48.76-5.17-48.76-5.17s-7.4,5-16.12,8.84
				c5.8-0.68,11.51-4.66,11.51-4.66H1410.3z"/>
			<path class="st3" d="M1424.47,86.75c0,0,5.18-2.69,13.88-3.27c-8.42-6.08-16.49-10.58-24.09-13.85
				C1421.32,78.2,1424.47,86.75,1424.47,86.75z"/>
			<path class="st3" d="M1370.17,53.41c-9.23,1.98-15.85,5.83-20.62,10.55c0.9,2.03,1.34,3.23,1.34,3.23s25.95-13.66,63.36,2.44
				C1405.73,59.26,1391.48,48.84,1370.17,53.41z"/>
			<path class="st3" d="M1435.09,124.86c0,0-10.57,7.1-18.64,8.14c6.02,1.55,11.25,3.57,14.7,6.19c5.16,3.93,9.88,4.46,14.85,3.47
				v-17.38C1439.75,124.86,1435.09,124.86,1435.09,124.86z"/>
			<linearGradient id="SVGID_4_" gradientUnits="userSpaceOnUse" x1="878.8316" y1="-178.4046" x2="351.0134" y2="1478.0355">
				<stop  offset="0" style="stop-color:#FFFFFF"/>
				<stop  offset="0.6531" style="stop-color:#BBCAD1"/>
			</linearGradient>
			<path class="st4" d="M1431.15,139.19c-3.45-2.62-8.68-4.64-14.7-6.19c-2.38,0.3-4.54,0.09-6.15-0.99h-47.21
				c0,0-5.71,3.98-11.51,4.66c-8.24,3.63-17.64,6.21-23.08,2.53h-74.65c0,0-24.27,17.05-33.59,0c0,0-26.14,11.36-31.73,0
				c0,0-87.72,9.48-91.45-7.58c0,0,3.73-24.63,16.8-17.06c0,0,7.47-22.73,22.39-20.84c14.93,1.9,33.6,9.48,33.6,9.48
				s-3.74-26.52,20.53-26.52c18.68,0,22.98,10.09,23.97,14.75c-1.29-11.8-4.04-65.48,50.69-77.27
				c53.33-11.49,78.67,36.69,84.51,49.82c4.77-4.72,11.39-8.57,20.62-10.55c21.31-4.56,35.56,5.85,44.09,16.22
				c7.6,3.27,15.67,7.77,24.09,13.85c2.32-0.16,4.87-0.17,7.65,0.06V4H2v607h1444V142.66
				C1441.03,143.65,1436.31,143.12,1431.15,139.19z"/>
			<linearGradient id="SVGID_5_" gradientUnits="userSpaceOnUse" x1="1384.469" y1="41.876" x2="1292.9949" y2="328.9472">
				<stop  offset="0" style="stop-color:#FFFFFF"/>
				<stop  offset="0.6531" style="stop-color:#BBCAD1"/>
			</linearGradient>
			<path class="st5" d="M1438.35,83.47c-8.7,0.59-13.88,3.27-13.88,3.27s-3.15-8.55-10.21-17.13c-37.42-16.09-63.36-2.44-63.36-2.44
				s-0.44-1.2-1.34-3.23c-13.12,12.99-12.04,32.58-11.45,38.02c-0.63-2.92-3.34-9.27-15.16-9.27c-15.35,0-12.98,16.67-12.98,16.67
				s-11.81-4.76-21.25-5.96c-9.44-1.19-14.16,13.1-14.16,13.1c-8.27-4.76-10.63,10.72-10.63,10.72c2.36,10.72,57.84,4.76,57.84,4.76
				c3.54,7.14,20.07,0,20.07,0c2.3,4.18,6.03,5.09,9.74,4.66c8.71-3.84,16.12-8.84,16.12-8.84s28.71,0,48.76,5.17
				c8.07-1.04,18.64-8.14,18.64-8.14s4.67,0,10.91,0.42v17.38"/>
		</g>
	</g>
	<linearGradient id="SVGID_6_" gradientUnits="userSpaceOnUse" x1="1449.5913" y1="3.4657" x2="921.7731" y2="1659.9059">
		<stop  offset="0" style="stop-color:#FFFFFF"/>
		<stop  offset="0.6531" style="stop-color:#BBCAD1"/>
	</linearGradient>
	<path class="st6" d="M1424.47,86.75c0,0,5.18-2.69,13.88-3.27c-8.42-6.08-16.49-10.58-24.09-13.85
		C1421.32,78.2,1424.47,86.75,1424.47,86.75z"/>
	<linearGradient id="SVGID_7_" gradientUnits="userSpaceOnUse" x1="1432.4774" y1="57.1737" x2="1341.0033" y2="344.2449">
		<stop  offset="0" style="stop-color:#FFFFFF"/>
		<stop  offset="0.6531" style="stop-color:#BBCAD1"/>
	</linearGradient>
	<path class="st7" d="M1424.47,86.75c0,0,5.18-2.69,13.88-3.27c-8.42-6.08-16.49-10.58-24.09-13.85
		C1421.32,78.2,1424.47,86.75,1424.47,86.75z"/>
	<linearGradient id="SVGID_8_" gradientUnits="userSpaceOnUse" x1="1471.7831" y1="10.537" x2="943.965" y2="1666.9772">
		<stop  offset="0" style="stop-color:#FFFFFF"/>
		<stop  offset="0.6531" style="stop-color:#BBCAD1"/>
	</linearGradient>
	<path class="st8" d="M1435.09,124.86c0,0-10.57,7.1-18.64,8.14c6.02,1.55,11.25,3.57,14.7,6.19c5.16,3.93,9.88,4.46,14.85,3.47
		v-17.38C1439.75,124.86,1435.09,124.86,1435.09,124.86z"/>
	<linearGradient id="SVGID_9_" gradientUnits="userSpaceOnUse" x1="1454.6693" y1="64.2451" x2="1363.1952" y2="351.3163">
		<stop  offset="0" style="stop-color:#FFFFFF"/>
		<stop  offset="0.6531" style="stop-color:#BBCAD1"/>
	</linearGradient>
	<path class="st9" d="M1435.09,124.86c0,0-10.57,7.1-18.64,8.14c6.02,1.55,11.25,3.57,14.7,6.19c5.16,3.93,9.88,4.46,14.85,3.47
		v-17.38C1439.75,124.86,1435.09,124.86,1435.09,124.86z"/>
	<linearGradient id="SVGID_10_" gradientUnits="userSpaceOnUse" x1="1261.943" y1="-56.3277" x2="734.1248" y2="1600.1124">
		<stop  offset="0" style="stop-color:#FFFFFF"/>
		<stop  offset="0.6531" style="stop-color:#BBCAD1"/>
	</linearGradient>
	<path class="st10" d="M1214.35,91.41c0.16,1.48,0.3,2.3,0.3,2.3S1214.65,92.8,1214.35,91.41z"/>
	<linearGradient id="SVGID_11_" gradientUnits="userSpaceOnUse" x1="1244.8291" y1="-2.6197" x2="1153.355" y2="284.4515">
		<stop  offset="0" style="stop-color:#FFFFFF"/>
		<stop  offset="0.6531" style="stop-color:#BBCAD1"/>
	</linearGradient>
	<path class="st11" d="M1214.35,91.41c0.16,1.48,0.3,2.3,0.3,2.3S1214.65,92.8,1214.35,91.41z"/>
	<linearGradient id="SVGID_12_" gradientUnits="userSpaceOnUse" x1="1282.6577" y1="-49.727" x2="754.8395" y2="1606.7131">
		<stop  offset="0" style="stop-color:#FFFFFF"/>
		<stop  offset="0.6531" style="stop-color:#BBCAD1"/>
	</linearGradient>
	<path class="st12" d="M1265.04,14.14c-54.74,11.79-51.98,65.47-50.69,77.27c0.3,1.39,0.3,2.3,0.3,2.3s-0.14-0.82-0.3-2.3
		c-0.99-4.65-5.29-14.75-23.97-14.75c-24.27,0-20.53,26.52-20.53,26.52s-18.67-7.58-33.6-9.48c-14.92-1.89-22.39,20.84-22.39,20.84
		c-13.07-7.57-16.8,17.06-16.8,17.06c3.73,17.06,91.45,7.58,91.45,7.58c5.6,11.36,31.73,0,31.73,0c9.33,17.05,33.59,0,33.59,0h74.65
		c5.44,3.68,14.85,1.1,23.08-2.53c-3.7,0.43-7.44-0.48-9.74-4.66c0,0-16.53,7.14-20.07,0c0,0-55.48,5.96-57.84-4.76
		c0,0,2.36-15.48,10.63-10.72c0,0,4.72-14.29,14.16-13.1c9.44,1.19,21.25,5.96,21.25,5.96s-2.36-16.67,12.98-16.67
		c11.81,0,14.53,6.34,15.16,9.27c-0.6-5.44-1.67-25.03,11.45-38.02C1343.72,50.83,1318.38,2.65,1265.04,14.14z"/>
	<linearGradient id="SVGID_13_" gradientUnits="userSpaceOnUse" x1="1265.5438" y1="3.981" x2="1174.0697" y2="291.0522">
		<stop  offset="0" style="stop-color:#FFFFFF"/>
		<stop  offset="0.6531" style="stop-color:#BBCAD1"/>
	</linearGradient>
	<path class="st13" d="M1265.04,14.14c-54.74,11.79-51.98,65.47-50.69,77.27c0.3,1.39,0.3,2.3,0.3,2.3s-0.14-0.82-0.3-2.3
		c-0.99-4.65-5.29-14.75-23.97-14.75c-24.27,0-20.53,26.52-20.53,26.52s-18.67-7.58-33.6-9.48c-14.92-1.89-22.39,20.84-22.39,20.84
		c-13.07-7.57-16.8,17.06-16.8,17.06c3.73,17.06,91.45,7.58,91.45,7.58c5.6,11.36,31.73,0,31.73,0c9.33,17.05,33.59,0,33.59,0h74.65
		c5.44,3.68,14.85,1.1,23.08-2.53c-3.7,0.43-7.44-0.48-9.74-4.66c0,0-16.53,7.14-20.07,0c0,0-55.48,5.96-57.84-4.76
		c0,0,2.36-15.48,10.63-10.72c0,0,4.72-14.29,14.16-13.1c9.44,1.19,21.25,5.96,21.25,5.96s-2.36-16.67,12.98-16.67
		c11.81,0,14.53,6.34,15.16,9.27c-0.6-5.44-1.67-25.03,11.45-38.02C1343.72,50.83,1318.38,2.65,1265.04,14.14z"/>
</g>
<linearGradient id="SVGID_14_" gradientUnits="userSpaceOnUse" x1="1218.9744" y1="112.829" x2="1116.6088" y2="434.0806">
	<stop  offset="0" style="stop-color:#FFFFFF"/>
	<stop  offset="0.6531" style="stop-color:#BBCAD1"/>
</linearGradient>
<path class="st14" d="M1030.52,197.92c0,0-4.18-29.68,22.97-29.68c27.16,0,27.16,19.08,27.16,19.08s-12.53-74.19,56.39-89.05
	s96.08,59.36,96.08,59.36s56.38-29.68,125.31,42.41c0,0,41.76-10.61,60.57,16.95c0,0-12.54,14.85-39.68,14.85
	c-27.15,0-39.69,19.08-56.39,6.36c-16.71-12.72-71.01-12.72-71.01-12.72s-31.34,21.2-43.87,12.72h-83.54c0,0-27.16,19.08-37.59,0
	c0,0-29.25,12.72-35.51,0c0,0-98.17,10.6-102.34-8.48c0,0,4.17-27.56,18.8-19.09c0,0,8.35-25.44,25.06-23.32
	C1009.63,189.44,1030.52,197.92,1030.52,197.92z"/>
<linearGradient id="SVGID_15_" gradientUnits="userSpaceOnUse" x1="949.3207" y1="111.4502" x2="877.8381" y2="335.7825">
	<stop  offset="0" style="stop-color:#FFFFFF"/>
	<stop  offset="0.6531" style="stop-color:#BBCAD1"/>
</linearGradient>
<path class="st15" d="M817.72,170.87c0,0-2.92-20.73,16.04-20.73c18.96,0,18.96,13.32,18.96,13.32s-8.75-51.81,39.38-62.18
	c48.13-10.37,67.09,41.45,67.09,41.45s39.37-20.73,87.51,29.61c0,0,29.16-7.41,42.29,11.84c0,0-8.75,10.37-27.71,10.37
	c-18.96,0-27.72,13.32-39.38,4.44c-11.67-8.88-49.59-8.88-49.59-8.88s-21.88,14.8-30.63,8.88h-58.34c0,0-18.96,13.32-26.25,0
	c0,0-20.42,8.88-24.8,0c0,0-68.55,7.41-71.47-5.92c0,0,2.91-19.24,13.13-13.33c0,0,5.83-17.76,17.5-16.29
	C803.13,164.94,817.72,170.87,817.72,170.87z"/>
<linearGradient id="SVGID_16_" gradientUnits="userSpaceOnUse" x1="1005.9925" y1="215.4871" x2="911.939" y2="510.653">
	<stop  offset="0" style="stop-color:#FFFFFF"/>
	<stop  offset="0.6531" style="stop-color:#BBCAD1"/>
</linearGradient>
<path class="st16" d="M832.84,293.67c0,0-3.84-27.27,21.11-27.27c24.95,0,24.95,17.53,24.95,17.53s-11.51-68.17,51.81-81.81
	c63.32-13.64,88.27,54.54,88.27,54.54s51.8-27.27,115.14,38.97c0,0,38.37-9.75,55.65,15.58c0,0-11.52,13.64-36.46,13.64
	c-24.94,0-36.47,17.53-51.81,5.84C1086.15,319,1036.26,319,1036.26,319s-28.79,19.48-40.3,11.69H919.2c0,0-24.95,17.53-34.54,0
	c0,0-26.87,11.69-32.63,0c0,0-90.2,9.74-94.03-7.79c0,0,3.83-25.32,17.27-17.54c0,0,7.68-23.37,23.02-21.43
	C813.65,285.87,832.84,293.67,832.84,293.67z"/>
<linearGradient id="SVGID_17_" gradientUnits="userSpaceOnUse" x1="1035.8004" y1="22.2551" x2="978.3076" y2="202.6833">
	<stop  offset="0" style="stop-color:#FFFFFF"/>
	<stop  offset="0.6531" style="stop-color:#BBCAD1"/>
</linearGradient>
<path class="st17" d="M929.96,70.04c0,0-2.35-16.67,12.9-16.67c15.25,0,15.25,10.71,15.25,10.71s-7.04-41.67,31.67-50.01
	s53.96,33.34,53.96,33.34s31.67-16.67,70.38,23.82c0,0,23.46-5.96,34.02,9.52c0,0-7.04,8.34-22.29,8.34
	c-15.25,0-22.29,10.71-31.67,3.57c-9.38-7.14-39.88-7.14-39.88-7.14s-17.6,11.91-24.64,7.14h-46.92c0,0-15.25,10.71-21.11,0
	c0,0-16.43,7.14-19.94,0c0,0-55.14,5.96-57.48-4.76c0,0,2.34-15.48,10.56-10.72c0,0,4.69-14.29,14.07-13.1
	C918.22,65.28,929.96,70.04,929.96,70.04z"/>
<linearGradient id="SVGID_18_" gradientUnits="userSpaceOnUse" x1="1253.6486" y1="251.5501" x2="1191.2288" y2="447.4407">
	<stop  offset="0" style="stop-color:#FFFFFF"/>
	<stop  offset="0.6531" style="stop-color:#BBCAD1"/>
</linearGradient>
<path class="st18" d="M1138.74,303.43c0,0-2.55-18.1,14.01-18.1c16.56,0,16.56,11.63,16.56,11.63s-7.64-45.24,34.39-54.3
	c42.03-9.06,58.58,36.2,58.58,36.2s34.38-18.1,76.41,25.86c0,0,25.47-6.47,36.93,10.34c0,0-7.64,9.06-24.2,9.06
	c-16.55,0-24.2,11.63-34.39,3.88c-10.19-7.76-43.3-7.76-43.3-7.76s-19.11,12.93-26.75,7.76h-50.94c0,0-16.56,11.63-22.92,0
	c0,0-17.83,7.76-21.65,0c0,0-59.86,6.47-62.4-5.17c0,0,2.54-16.8,11.46-11.64c0,0,5.09-15.51,15.28-14.22
	C1126,298.26,1138.74,303.43,1138.74,303.43z"/>
<linearGradient id="SVGID_19_" gradientUnits="userSpaceOnUse" x1="668.8363" y1="90.253" x2="587.3823" y2="345.8781">
	<stop  offset="0" style="stop-color:#FFFFFF"/>
	<stop  offset="0.6531" style="stop-color:#BBCAD1"/>
</linearGradient>
<path class="st19" d="M518.88,157.96c0,0-3.33-23.62,18.28-23.62s21.61,15.18,21.61,15.18s-9.97-59.04,44.87-70.85
	c54.84-11.82,76.45,47.24,76.45,47.24s44.87-23.62,99.71,33.75c0,0,33.23-8.45,48.19,13.49c0,0-9.98,11.82-31.58,11.82
	c-21.6,0-31.58,15.18-44.87,5.06c-13.3-10.12-56.5-10.12-56.5-10.12s-24.94,16.87-34.9,10.12h-66.47c0,0-21.61,15.18-29.91,0
	c0,0-23.27,10.12-28.26,0c0,0-78.11,8.44-81.43-6.75c0,0,3.32-21.93,14.96-15.19c0,0,6.65-20.24,19.94-18.56
	C502.26,151.21,518.88,157.96,518.88,157.96z"/>
</svg>
