<?xml version="1.0" encoding="utf-8"?>
<!-- Generator: Adobe Illustrator 23.0.2, SVG Export Plug-In . SVG Version: 6.00 Build 0)  -->
<svg version="1.1" id="Lag_1" xmlns="http://www.w3.org/2000/svg" xmlns:xlink="http://www.w3.org/1999/xlink" x="0px" y="0px"
	 viewBox="0 0 1450 612" style="enable-background:new 0 0 1450 612;" xml:space="preserve">
<style type="text/css">
	.st0{fill:url(#SVGID_1_);}
	.st1{fill:url(#SVGID_2_);}
	.st2{fill:url(#SVGID_3_);}
	.st3{fill:url(#SVGID_4_);}
	.st4{fill:url(#SVGID_5_);}
	.st5{fill:url(#SVGID_6_);}
	.st6{fill:url(#SVGID_7_);}
	.st7{fill:url(#SVGID_8_);}
	.st8{fill:url(#SVGID_9_);}
	.st9{fill:url(#SVGID_10_);}
	.st10{fill:url(#SVGID_11_);}
	.st11{fill:url(#SVGID_12_);}
	.st12{fill:url(#SVGID_13_);}
	.st13{fill:url(#SVGID_14_);}
</style>
<linearGradient id="SVGID_1_" gradientUnits="userSpaceOnUse" x1="504.8531" y1="48.5561" x2="416.5661" y2="325.6252">
	<stop  offset="0" style="stop-color:#FFFFFF"/>
	<stop  offset="0.1153" style="stop-color:#D9DCDE"/>
	<stop  offset="0.2457" style="stop-color:#B5BCBF"/>
	<stop  offset="0.368" style="stop-color:#9BA4A8"/>
	<stop  offset="0.4779" style="stop-color:#8B969B"/>
	<stop  offset="0.5645" style="stop-color:#869196"/>
</linearGradient>
<path class="st0" d="M342.32,121.94c0,0-3.61-25.6,19.81-25.6s23.42,16.45,23.42,16.45S374.75,48.8,434.19,36s82.86,51.2,82.86,51.2
	s48.63-25.6,108.08,36.58c0,0,36.02-9.15,52.24,14.62c0,0-10.81,12.81-34.23,12.81c-23.41,0-34.23,16.45-48.64,5.48
	c-14.41-10.97-61.24-10.97-61.24-10.97s-27.03,18.28-37.83,10.97h-72.05c0,0-23.42,16.45-32.42,0c0,0-25.22,10.97-30.63,0
	c0,0-84.67,9.15-88.27-7.32c0,0,3.6-23.77,16.22-16.46c0,0,7.21-21.94,21.61-20.12C324.3,114.63,342.32,121.94,342.32,121.94z"/>
<linearGradient id="SVGID_2_" gradientUnits="userSpaceOnUse" x1="362.6573" y1="157.5846" x2="305.1646" y2="338.0128">
	<stop  offset="0" style="stop-color:#FFFFFF"/>
	<stop  offset="0.1153" style="stop-color:#D9DCDE"/>
	<stop  offset="0.2457" style="stop-color:#B5BCBF"/>
	<stop  offset="0.368" style="stop-color:#9BA4A8"/>
	<stop  offset="0.4779" style="stop-color:#8B969B"/>
	<stop  offset="0.5645" style="stop-color:#869196"/>
</linearGradient>
<path class="st1" d="M256.82,205.37c0,0-2.35-16.67,12.9-16.67c15.25,0,15.25,10.71,15.25,10.71s-7.04-41.67,31.67-50.01
	c38.71-8.34,53.96,33.34,53.96,33.34s31.67-16.67,70.38,23.82c0,0,23.46-5.96,34.02,9.52c0,0-7.04,8.34-22.29,8.34
	c-15.25,0-22.29,10.71-31.67,3.57c-9.38-7.14-39.88-7.14-39.88-7.14s-17.6,11.91-24.64,7.14H309.6c0,0-15.25,10.71-21.11,0
	c0,0-16.43,7.14-19.94,0c0,0-55.14,5.96-57.48-4.76c0,0,2.34-15.48,10.56-10.72c0,0,4.69-14.29,14.07-13.1
	C245.08,200.61,256.82,205.37,256.82,205.37z"/>
<linearGradient id="SVGID_3_" gradientUnits="userSpaceOnUse" x1="800.6573" y1="40.5846" x2="743.1646" y2="221.0128">
	<stop  offset="0" style="stop-color:#FFFFFF"/>
	<stop  offset="0.1153" style="stop-color:#D9DCDE"/>
	<stop  offset="0.2457" style="stop-color:#B5BCBF"/>
	<stop  offset="0.368" style="stop-color:#9BA4A8"/>
	<stop  offset="0.4779" style="stop-color:#8B969B"/>
	<stop  offset="0.5645" style="stop-color:#869196"/>
</linearGradient>
<path class="st2" d="M694.82,88.37c0,0-2.35-16.67,12.9-16.67c15.25,0,15.25,10.71,15.25,10.71s-7.04-41.67,31.67-50.01
	s53.96,33.34,53.96,33.34s31.67-16.67,70.38,23.82c0,0,23.46-5.96,34.02,9.52c0,0-7.04,8.34-22.29,8.34
	c-15.25,0-22.29,10.71-31.67,3.57c-9.38-7.14-39.88-7.14-39.88-7.14s-17.6,11.91-24.64,7.14H747.6c0,0-15.25,10.71-21.11,0
	c0,0-16.43,7.14-19.94,0c0,0-55.14,5.96-57.48-4.76c0,0,2.34-15.48,10.56-10.72c0,0,4.69-14.29,14.07-13.1
	C683.08,83.61,694.82,88.37,694.82,88.37z"/>
<g>
	<linearGradient id="SVGID_4_" gradientUnits="userSpaceOnUse" x1="880.8345" y1="-183.0519" x2="349.5976" y2="1484.1172">
		<stop  offset="0" style="stop-color:#FFFFFF"/>
		<stop  offset="0.6531" style="stop-color:#BBCAD1"/>
	</linearGradient>
	<path class="st3" d="M1435.15,144.19c-14.93-11.36-63.46-11.36-63.46-11.36s-28,18.94-39.2,11.36h-74.65c0,0-24.27,17.05-33.59,0
		c0,0-26.14,11.36-31.73,0c0,0-87.72,9.48-91.45-7.58c0,0,3.73-24.63,16.8-17.06c0,0,7.47-22.73,22.39-20.84
		c14.93,1.9,33.6,9.48,33.6,9.48s-3.74-26.52,20.53-26.52c18.68,0,22.98,10.09,23.97,14.75c-1.29-11.8-4.04-65.48,50.69-77.27
		c61.59-13.27,85.85,53.05,85.85,53.05s41.44-21.81,95.1,22.18V0H0v612h1450V147.66C1445.03,148.65,1440.31,148.12,1435.15,144.19z"
		/>
	<linearGradient id="SVGID_5_" gradientUnits="userSpaceOnUse" x1="1332.9929" y1="-38.9734" x2="801.756" y2="1628.1957">
		<stop  offset="0" style="stop-color:#FFFFFF"/>
		<stop  offset="0.6531" style="stop-color:#BBCAD1"/>
	</linearGradient>
	<path class="st4" d="M1354.9,72.19c0,0-24.27-66.32-85.85-53.05c-54.74,11.79-51.98,65.47-50.69,77.27c0.3,1.39,0.3,2.3,0.3,2.3
		s-0.14-0.82-0.3-2.3c-0.99-4.65-5.29-14.75-23.97-14.75c-24.27,0-20.53,26.52-20.53,26.52s-18.67-7.58-33.6-9.48
		c-14.92-1.89-22.39,20.84-22.39,20.84c-13.07-7.57-16.8,17.06-16.8,17.06c3.73,17.06,91.45,7.58,91.45,7.58
		c5.6,11.36,31.73,0,31.73,0c9.33,17.05,33.59,0,33.59,0h74.65c11.19,7.58,39.2-11.36,39.2-11.36s48.52,0,63.46,11.36
		c5.16,3.93,9.88,4.46,14.85,3.47V94.36C1396.34,50.37,1354.9,72.19,1354.9,72.19z"/>
	<linearGradient id="SVGID_6_" gradientUnits="userSpaceOnUse" x1="1313.2725" y1="22.9149" x2="1221.7983" y2="309.9861">
		<stop  offset="0" style="stop-color:#FFFFFF"/>
		<stop  offset="0.1153" style="stop-color:#D9DCDE"/>
		<stop  offset="0.2457" style="stop-color:#B5BCBF"/>
		<stop  offset="0.368" style="stop-color:#9BA4A8"/>
		<stop  offset="0.4779" style="stop-color:#8B969B"/>
		<stop  offset="0.5645" style="stop-color:#869196"/>
	</linearGradient>
	<path class="st5" d="M1354.9,72.19c0,0-24.27-66.32-85.85-53.05c-54.74,11.79-51.98,65.47-50.69,77.27c0.3,1.39,0.3,2.3,0.3,2.3
		s-0.14-0.82-0.3-2.3c-0.99-4.65-5.29-14.75-23.97-14.75c-24.27,0-20.53,26.52-20.53,26.52s-18.67-7.58-33.6-9.48
		c-14.92-1.89-22.39,20.84-22.39,20.84c-13.07-7.57-16.8,17.06-16.8,17.06c3.73,17.06,91.45,7.58,91.45,7.58
		c5.6,11.36,31.73,0,31.73,0c9.33,17.05,33.59,0,33.59,0h74.65c11.19,7.58,39.2-11.36,39.2-11.36s48.52,0,63.46,11.36
		c5.16,3.93,9.88,4.46,14.85,3.47V94.36C1396.34,50.37,1354.9,72.19,1354.9,72.19z"/>
	<linearGradient id="SVGID_7_" gradientUnits="userSpaceOnUse" x1="1268.5496" y1="-59.508" x2="737.3126" y2="1607.6611">
		<stop  offset="0" style="stop-color:#FFFFFF"/>
		<stop  offset="0.6531" style="stop-color:#BBCAD1"/>
	</linearGradient>
	<path class="st6" d="M1218.35,96.41c0.16,1.48,0.3,2.3,0.3,2.3S1218.65,97.8,1218.35,96.41z"/>
	<linearGradient id="SVGID_8_" gradientUnits="userSpaceOnUse" x1="1248.8291" y1="2.3803" x2="1157.355" y2="289.4515">
		<stop  offset="0" style="stop-color:#FFFFFF"/>
		<stop  offset="0.1153" style="stop-color:#D9DCDE"/>
		<stop  offset="0.2457" style="stop-color:#B5BCBF"/>
		<stop  offset="0.368" style="stop-color:#9BA4A8"/>
		<stop  offset="0.4779" style="stop-color:#8B969B"/>
		<stop  offset="0.5645" style="stop-color:#869196"/>
	</linearGradient>
	<path class="st7" d="M1218.35,96.41c0.16,1.48,0.3,2.3,0.3,2.3S1218.65,97.8,1218.35,96.41z"/>
</g>
<linearGradient id="SVGID_9_" gradientUnits="userSpaceOnUse" x1="1222.9744" y1="117.829" x2="1120.6088" y2="439.0806">
	<stop  offset="0" style="stop-color:#FFFFFF"/>
	<stop  offset="0.1153" style="stop-color:#D9DCDE"/>
	<stop  offset="0.2457" style="stop-color:#B5BCBF"/>
	<stop  offset="0.368" style="stop-color:#9BA4A8"/>
	<stop  offset="0.4779" style="stop-color:#8B969B"/>
	<stop  offset="0.5645" style="stop-color:#869196"/>
</linearGradient>
<path class="st8" d="M1034.52,202.92c0,0-4.18-29.68,22.97-29.68c27.16,0,27.16,19.08,27.16,19.08s-12.53-74.19,56.39-89.05
	s96.08,59.36,96.08,59.36s56.38-29.68,125.31,42.41c0,0,41.76-10.61,60.57,16.95c0,0-12.54,14.85-39.68,14.85
	c-27.15,0-39.69,19.08-56.39,6.36c-16.71-12.72-71.01-12.72-71.01-12.72s-31.34,21.2-43.87,12.72h-83.54c0,0-27.16,19.08-37.59,0
	c0,0-29.25,12.72-35.51,0c0,0-98.17,10.6-102.34-8.48c0,0,4.17-27.56,18.8-19.09c0,0,8.35-25.44,25.06-23.32
	C1013.63,194.44,1034.52,202.92,1034.52,202.92z"/>
<linearGradient id="SVGID_10_" gradientUnits="userSpaceOnUse" x1="953.3207" y1="116.4502" x2="881.8381" y2="340.7825">
	<stop  offset="0" style="stop-color:#FFFFFF"/>
	<stop  offset="0.1153" style="stop-color:#D9DCDE"/>
	<stop  offset="0.2457" style="stop-color:#B5BCBF"/>
	<stop  offset="0.368" style="stop-color:#9BA4A8"/>
	<stop  offset="0.4779" style="stop-color:#8B969B"/>
	<stop  offset="0.5645" style="stop-color:#869196"/>
</linearGradient>
<path class="st9" d="M821.72,175.87c0,0-2.92-20.73,16.04-20.73c18.96,0,18.96,13.32,18.96,13.32s-8.75-51.81,39.38-62.18
	c48.13-10.37,67.09,41.45,67.09,41.45s39.37-20.73,87.51,29.61c0,0,29.16-7.41,42.29,11.84c0,0-8.75,10.37-27.71,10.37
	c-18.96,0-27.72,13.32-39.38,4.44c-11.67-8.88-49.59-8.88-49.59-8.88s-21.88,14.8-30.63,8.88h-58.34c0,0-18.96,13.32-26.25,0
	c0,0-20.42,8.88-24.8,0c0,0-68.55,7.41-71.47-5.92c0,0,2.91-19.24,13.13-13.33c0,0,5.83-17.76,17.5-16.29
	C807.13,169.94,821.72,175.87,821.72,175.87z"/>
<linearGradient id="SVGID_11_" gradientUnits="userSpaceOnUse" x1="1009.9925" y1="220.4871" x2="915.939" y2="515.653">
	<stop  offset="0" style="stop-color:#FFFFFF"/>
	<stop  offset="0.1153" style="stop-color:#D9DCDE"/>
	<stop  offset="0.2457" style="stop-color:#B5BCBF"/>
	<stop  offset="0.368" style="stop-color:#9BA4A8"/>
	<stop  offset="0.4779" style="stop-color:#8B969B"/>
	<stop  offset="0.5645" style="stop-color:#869196"/>
</linearGradient>
<path class="st10" d="M836.84,298.67c0,0-3.84-27.27,21.11-27.27c24.95,0,24.95,17.53,24.95,17.53s-11.51-68.17,51.81-81.81
	c63.32-13.64,88.27,54.54,88.27,54.54s51.8-27.27,115.14,38.97c0,0,38.37-9.75,55.65,15.58c0,0-11.52,13.64-36.46,13.64
	c-24.94,0-36.47,17.53-51.81,5.84C1090.15,324,1040.26,324,1040.26,324s-28.79,19.48-40.3,11.69H923.2c0,0-24.95,17.53-34.54,0
	c0,0-26.87,11.69-32.63,0c0,0-90.2,9.74-94.03-7.79c0,0,3.83-25.32,17.27-17.54c0,0,7.68-23.37,23.02-21.43
	C817.65,290.87,836.84,298.67,836.84,298.67z"/>
<linearGradient id="SVGID_12_" gradientUnits="userSpaceOnUse" x1="1039.8004" y1="27.2551" x2="982.3076" y2="207.6833">
	<stop  offset="0" style="stop-color:#FFFFFF"/>
	<stop  offset="0.1153" style="stop-color:#D9DCDE"/>
	<stop  offset="0.2457" style="stop-color:#B5BCBF"/>
	<stop  offset="0.368" style="stop-color:#9BA4A8"/>
	<stop  offset="0.4779" style="stop-color:#8B969B"/>
	<stop  offset="0.5645" style="stop-color:#869196"/>
</linearGradient>
<path class="st11" d="M933.96,75.04c0,0-2.35-16.67,12.9-16.67c15.25,0,15.25,10.71,15.25,10.71s-7.04-41.67,31.67-50.01
	s53.96,33.34,53.96,33.34s31.67-16.67,70.38,23.82c0,0,23.46-5.96,34.02,9.52c0,0-7.04,8.34-22.29,8.34
	c-15.25,0-22.29,10.71-31.67,3.57c-9.38-7.14-39.88-7.14-39.88-7.14s-17.6,11.91-24.64,7.14h-46.92c0,0-15.25,10.71-21.11,0
	c0,0-16.43,7.14-19.94,0c0,0-55.14,5.96-57.48-4.76c0,0,2.34-15.48,10.56-10.72c0,0,4.69-14.29,14.07-13.1
	C922.22,70.28,933.96,75.04,933.96,75.04z"/>
<linearGradient id="SVGID_13_" gradientUnits="userSpaceOnUse" x1="1257.6486" y1="256.5501" x2="1195.2288" y2="452.4407">
	<stop  offset="0" style="stop-color:#FFFFFF"/>
	<stop  offset="0.1153" style="stop-color:#D9DCDE"/>
	<stop  offset="0.2457" style="stop-color:#B5BCBF"/>
	<stop  offset="0.368" style="stop-color:#9BA4A8"/>
	<stop  offset="0.4779" style="stop-color:#8B969B"/>
	<stop  offset="0.5645" style="stop-color:#869196"/>
</linearGradient>
<path class="st12" d="M1142.74,308.43c0,0-2.55-18.1,14.01-18.1c16.56,0,16.56,11.63,16.56,11.63s-7.64-45.24,34.39-54.3
	c42.03-9.06,58.58,36.2,58.58,36.2s34.38-18.1,76.41,25.86c0,0,25.47-6.47,36.93,10.34c0,0-7.64,9.06-24.2,9.06
	c-16.55,0-24.2,11.63-34.39,3.88c-10.19-7.76-43.3-7.76-43.3-7.76s-19.11,12.93-26.75,7.76h-50.94c0,0-16.56,11.63-22.92,0
	c0,0-17.83,7.76-21.65,0c0,0-59.86,6.47-62.4-5.17c0,0,2.54-16.8,11.46-11.64c0,0,5.09-15.51,15.28-14.22
	C1130,303.26,1142.74,308.43,1142.74,308.43z"/>
<linearGradient id="SVGID_14_" gradientUnits="userSpaceOnUse" x1="672.8363" y1="95.253" x2="591.3823" y2="350.8781">
	<stop  offset="0" style="stop-color:#FFFFFF"/>
	<stop  offset="0.1153" style="stop-color:#D9DCDE"/>
	<stop  offset="0.2457" style="stop-color:#B5BCBF"/>
	<stop  offset="0.368" style="stop-color:#9BA4A8"/>
	<stop  offset="0.4779" style="stop-color:#8B969B"/>
	<stop  offset="0.5645" style="stop-color:#869196"/>
</linearGradient>
<path class="st13" d="M522.88,162.96c0,0-3.33-23.62,18.28-23.62s21.61,15.18,21.61,15.18s-9.97-59.04,44.87-70.85
	c54.84-11.82,76.45,47.24,76.45,47.24s44.87-23.62,99.71,33.75c0,0,33.23-8.45,48.19,13.49c0,0-9.98,11.82-31.58,11.82
	c-21.6,0-31.58,15.18-44.87,5.06c-13.3-10.12-56.5-10.12-56.5-10.12s-24.94,16.87-34.9,10.12h-66.47c0,0-21.61,15.18-29.91,0
	c0,0-23.27,10.12-28.26,0c0,0-78.11,8.44-81.43-6.75c0,0,3.32-21.93,14.96-15.19c0,0,6.65-20.24,19.94-18.56
	C506.26,156.21,522.88,162.96,522.88,162.96z"/>
</svg>
