<?xml version="1.0" encoding="utf-8"?>
<!-- Generator: Adobe Illustrator 23.0.2, SVG Export Plug-In . SVG Version: 6.00 Build 0)  -->
<svg version="1.1" xmlns="http://www.w3.org/2000/svg" xmlns:xlink="http://www.w3.org/1999/xlink" x="0px" y="0px"
	 viewBox="0 0 1450 612" style="enable-background:new 0 0 1450 612;" xml:space="preserve">
<style type="text/css">
	.st0{fill:url(#SVGID_1_);}
	.st1{fill:url(#SVGID_2_);}
	.st2{fill:url(#SVGID_3_);}
	.st3{fill:url(#SVGID_4_);}
	.st4{fill:url(#SVGID_5_);}
	.st5{fill:url(#SVGID_6_);}
	.st6{fill:url(#SVGID_7_);}
	.st7{fill:url(#SVGID_8_);}
	.st8{fill:url(#SVGID_9_);}
	.st9{fill:#F4F3EA;}
	.st10{fill:url(#SVGID_10_);}
	.st11{fill:url(#SVGID_11_);}
</style>
<g id="Lag_2">
	<linearGradient id="SVGID_1_" gradientUnits="userSpaceOnUse" x1="122.0683" y1="305.0881" x2="1301.0103" y2="305.0881">
		<stop  offset="3.451554e-03" style="stop-color:#636D77"/>
		<stop  offset="1" style="stop-color:#434A4C"/>
	</linearGradient>
	<rect x="-2.1" y="-0.9" class="st0" width="1450" height="612"/>
</g>
<g id="Lag_1">
	
		<linearGradient id="SVGID_2_" gradientUnits="userSpaceOnUse" x1="504.8519" y1="1790.5557" x2="416.5649" y2="2067.6248" gradientTransform="matrix(1 0 0 1 0 -1742)">
		<stop  offset="0" style="stop-color:#FFFFFF"/>
		<stop  offset="0.1153" style="stop-color:#D9DCDE"/>
		<stop  offset="0.2457" style="stop-color:#B5BCBF"/>
		<stop  offset="0.368" style="stop-color:#9BA4A8"/>
		<stop  offset="0.4779" style="stop-color:#8B969B"/>
		<stop  offset="0.5645" style="stop-color:#869196"/>
	</linearGradient>
	<path class="st1" d="M342.3,121.9c0,0-3.6-25.6,19.8-25.6s23.4,16.5,23.4,16.5s-10.8-64,48.6-76.8S517,87.2,517,87.2
		s48.6-25.6,108.1,36.6c0,0,36-9.2,52.2,14.6c0,0-10.8,12.8-34.2,12.8c-23.4,0-34.2,16.4-48.6,5.5c-14.4-11-61.2-11-61.2-11
		s-27,18.3-37.8,11h-72c0,0-23.4,16.4-32.4,0c0,0-25.2,11-30.6,0c0,0-84.7,9.1-88.3-7.3c0,0,3.6-23.8,16.2-16.5
		c0,0,7.2-21.9,21.6-20.1C324.3,114.6,342.3,121.9,342.3,121.9z"/>
	
		<linearGradient id="SVGID_3_" gradientUnits="userSpaceOnUse" x1="362.657" y1="1899.5845" x2="305.1643" y2="2080.0127" gradientTransform="matrix(1 0 0 1 0 -1742)">
		<stop  offset="0" style="stop-color:#FFFFFF"/>
		<stop  offset="0.1153" style="stop-color:#D9DCDE"/>
		<stop  offset="0.2457" style="stop-color:#B5BCBF"/>
		<stop  offset="0.368" style="stop-color:#9BA4A8"/>
		<stop  offset="0.4779" style="stop-color:#8B969B"/>
		<stop  offset="0.5645" style="stop-color:#869196"/>
	</linearGradient>
	<path class="st2" d="M256.8,205.4c0,0-2.4-16.7,12.9-16.7s15.2,10.7,15.2,10.7s-7-41.7,31.7-50s54,33.3,54,33.3
		s31.7-16.7,70.4,23.8c0,0,23.5-6,34,9.5c0,0-7,8.3-22.3,8.3s-22.3,10.7-31.7,3.6s-39.9-7.1-39.9-7.1s-17.6,11.9-24.6,7.1h-46.9
		c0,0-15.2,10.7-21.1,0c0,0-16.4,7.1-19.9,0c0,0-55.1,6-57.5-4.8c0,0,2.3-15.5,10.6-10.7c0,0,4.7-14.3,14.1-13.1
		C245.1,200.6,256.8,205.4,256.8,205.4z"/>
	
		<linearGradient id="SVGID_4_" gradientUnits="userSpaceOnUse" x1="800.657" y1="1782.5845" x2="743.1643" y2="1963.0127" gradientTransform="matrix(1 0 0 1 0 -1742)">
		<stop  offset="0" style="stop-color:#FFFFFF"/>
		<stop  offset="0.1153" style="stop-color:#D9DCDE"/>
		<stop  offset="0.2457" style="stop-color:#B5BCBF"/>
		<stop  offset="0.368" style="stop-color:#9BA4A8"/>
		<stop  offset="0.4779" style="stop-color:#8B969B"/>
		<stop  offset="0.5645" style="stop-color:#869196"/>
	</linearGradient>
	<path class="st3" d="M694.8,88.4c0,0-2.3-16.7,12.9-16.7S723,82.4,723,82.4s-7-41.7,31.7-50s54,33.3,54,33.3s31.7-16.7,70.4,23.8
		c0,0,23.5-6,34,9.5c0,0-7,8.3-22.3,8.3s-22.3,10.7-31.7,3.6s-39.9-7.1-39.9-7.1s-17.6,11.9-24.6,7.1h-46.9c0,0-15.2,10.7-21.1,0
		c0,0-16.4,7.1-19.9,0c0,0-55.1,6-57.5-4.8c0,0,2.3-15.5,10.6-10.7c0,0,4.7-14.3,14.1-13.1C683.1,83.6,694.8,88.4,694.8,88.4z"/>
	
		<linearGradient id="SVGID_5_" gradientUnits="userSpaceOnUse" x1="1288.6593" y1="1794.1453" x2="1186.2937" y2="2115.3967" gradientTransform="matrix(1 0 0 1 0 -1742)">
		<stop  offset="0" style="stop-color:#FFFFFF"/>
		<stop  offset="0.1153" style="stop-color:#D9DCDE"/>
		<stop  offset="0.2457" style="stop-color:#B5BCBF"/>
		<stop  offset="0.368" style="stop-color:#9BA4A8"/>
		<stop  offset="0.4779" style="stop-color:#8B969B"/>
		<stop  offset="0.5645" style="stop-color:#869196"/>
	</linearGradient>
	<path class="st4" d="M1100.2,137.2c0,0-4.2-29.7,23-29.7c27.2,0,27.2,19.1,27.2,19.1s-12.5-74.2,56.4-89.1s96.1,59.4,96.1,59.4
		s56.4-29.7,125.3,42.4c0,0,41.8-10.6,60.6,16.9c0,0-12.5,14.9-39.7,14.9c-27.2,0-39.7,19.1-56.4,6.4c-16.7-12.7-71-12.7-71-12.7
		s-31.3,21.2-43.9,12.7h-83.5c0,0-27.2,19.1-37.6,0c0,0-29.2,12.7-35.5,0c0,0-98.2,10.6-102.3-8.5c0,0,4.2-27.6,18.8-19.1
		c0,0,8.3-25.4,25.1-23.3C1079.3,128.8,1100.2,137.2,1100.2,137.2z"/>
	
		<linearGradient id="SVGID_6_" gradientUnits="userSpaceOnUse" x1="953.3038" y1="1858.4448" x2="881.8213" y2="2082.7771" gradientTransform="matrix(1 0 0 1 0 -1742)">
		<stop  offset="0" style="stop-color:#FFFFFF"/>
		<stop  offset="0.1153" style="stop-color:#D9DCDE"/>
		<stop  offset="0.2457" style="stop-color:#B5BCBF"/>
		<stop  offset="0.368" style="stop-color:#9BA4A8"/>
		<stop  offset="0.4779" style="stop-color:#8B969B"/>
		<stop  offset="0.5645" style="stop-color:#869196"/>
	</linearGradient>
	<path class="st5" d="M821.7,175.9c0,0-2.9-20.7,16-20.7c19,0,19,13.3,19,13.3s-8.8-51.8,39.4-62.2s67.1,41.5,67.1,41.5
		s39.4-20.7,87.5,29.6c0,0,29.2-7.4,42.3,11.8c0,0-8.8,10.4-27.7,10.4s-27.7,13.3-39.4,4.4c-11.7-8.9-49.6-8.9-49.6-8.9
		s-21.9,14.8-30.6,8.9h-58.3c0,0-19,13.3-26.2,0c0,0-20.4,8.9-24.8,0c0,0-68.5,7.4-71.5-5.9c0,0,2.9-19.2,13.1-13.3
		c0,0,5.8-17.8,17.5-16.3C807.1,169.9,821.7,175.9,821.7,175.9z"/>
	
		<linearGradient id="SVGID_7_" gradientUnits="userSpaceOnUse" x1="1009.9933" y1="1962.4874" x2="915.9399" y2="2257.6533" gradientTransform="matrix(1 0 0 1 0 -1742)">
		<stop  offset="0" style="stop-color:#FFFFFF"/>
		<stop  offset="0.1153" style="stop-color:#D9DCDE"/>
		<stop  offset="0.2457" style="stop-color:#B5BCBF"/>
		<stop  offset="0.368" style="stop-color:#9BA4A8"/>
		<stop  offset="0.4779" style="stop-color:#8B969B"/>
		<stop  offset="0.5645" style="stop-color:#869196"/>
	</linearGradient>
	<path class="st6" d="M836.8,298.7c0,0-3.8-27.3,21.1-27.3s25,17.5,25,17.5s-11.5-68.2,51.8-81.8s88.3,54.5,88.3,54.5
		s51.8-27.3,115.1,39c0,0,38.4-9.8,55.7,15.6c0,0-11.5,13.6-36.5,13.6s-36.5,17.5-51.8,5.8c-15.3-11.7-65.2-11.7-65.2-11.7
		s-28.8,19.5-40.3,11.7h-76.8c0,0-25,17.5-34.5,0c0,0-26.9,11.7-32.6,0c0,0-90.2,9.7-94-7.8c0,0,3.8-25.3,17.3-17.5
		c0,0,7.7-23.4,23-21.4C817.7,290.9,836.8,298.7,836.8,298.7z"/>
	
		<linearGradient id="SVGID_8_" gradientUnits="userSpaceOnUse" x1="1039.7971" y1="1769.254" x2="982.3043" y2="1949.6824" gradientTransform="matrix(1 0 0 1 0 -1742)">
		<stop  offset="0" style="stop-color:#FFFFFF"/>
		<stop  offset="0.1153" style="stop-color:#D9DCDE"/>
		<stop  offset="0.2457" style="stop-color:#B5BCBF"/>
		<stop  offset="0.368" style="stop-color:#9BA4A8"/>
		<stop  offset="0.4779" style="stop-color:#8B969B"/>
		<stop  offset="0.5645" style="stop-color:#869196"/>
	</linearGradient>
	<path class="st7" d="M934,75c0,0-2.3-16.7,12.9-16.7s15.2,10.7,15.2,10.7s-7-41.7,31.7-50s54,33.3,54,33.3s31.7-16.7,70.4,23.8
		c0,0,23.5-6,34,9.5c0,0-7,8.3-22.3,8.3s-22.3,10.7-31.7,3.6s-39.9-7.1-39.9-7.1s-17.6,11.9-24.6,7.1h-46.9c0,0-15.2,10.7-21.1,0
		c0,0-16.4,7.1-19.9,0c0,0-55.1,6-57.5-4.8c0,0,2.3-15.5,10.6-10.7c0,0,4.7-14.3,14.1-13.1C922.2,70.3,934,75,934,75z"/>
	
		<linearGradient id="SVGID_9_" gradientUnits="userSpaceOnUse" x1="1257.6501" y1="1998.5507" x2="1195.2303" y2="2194.4412" gradientTransform="matrix(1 0 0 1 0 -1742)">
		<stop  offset="0" style="stop-color:#FFFFFF"/>
		<stop  offset="0.1153" style="stop-color:#D9DCDE"/>
		<stop  offset="0.2457" style="stop-color:#B5BCBF"/>
		<stop  offset="0.368" style="stop-color:#9BA4A8"/>
		<stop  offset="0.4779" style="stop-color:#8B969B"/>
		<stop  offset="0.5645" style="stop-color:#869196"/>
	</linearGradient>
	<path class="st8" d="M1142.7,308.4c0,0-2.6-18.1,14-18.1s16.6,11.6,16.6,11.6s-7.6-45.2,34.4-54.3c42-9.1,58.6,36.2,58.6,36.2
		s34.4-18.1,76.4,25.9c0,0,25.5-6.5,36.9,10.3c0,0-7.6,9.1-24.2,9.1c-16.6,0-24.2,11.6-34.4,3.9c-10.2-7.8-43.3-7.8-43.3-7.8
		s-19.1,12.9-26.8,7.8H1200c0,0-16.6,11.6-22.9,0c0,0-17.8,7.8-21.7,0c0,0-59.9,6.5-62.4-5.2c0,0,2.5-16.8,11.5-11.6
		c0,0,5.1-15.5,15.3-14.2C1130,303.3,1142.7,308.4,1142.7,308.4z"/>
	<g>
		<g>
			<path class="st9" d="M748.6,247c-2,2.8-6.7,4.2-10.6,5.3c-1.5,0.4-2.9,0.8-3.5,1.2c-1,0.5-1.9,3.3-2.6,5.5
				c-0.7,2.1-1.3,4-2.2,5.3c-0.3,0.5-0.7,0.8-1.2,1.3c-0.4,0.4-0.8,0.7-1.1,1.1c0,0,0,0,0,0c0,0.1-0.1,0.3-0.1,0.5
				c-0.1,0.5-0.2,1.1-0.7,1.7c-0.5,0.6-1.2,0.9-1.7,1.1c-0.3,0.1-0.7,0.3-0.9,0.4c-1.1,1.2-1.8,2.7-2.6,4.3
				c-0.9,1.9-1.8,3.9-3.5,5.6c-1.7,1.6-2.1,1.8-3.9,2.2l-0.3,0.1c-0.6,0.2-1.2-0.1-1.7-0.4c-0.4-0.2-0.9-0.5-1.1-0.4
				c0,0,0.1,0,0.1,0c-0.2,0.2-0.7,1.2-0.9,1.8c-0.3,0.7-0.5,1.2-0.8,1.6c-2.9,3.9-7.2,4.3-11.2,4.6c-3.3,0.3-6.8,0.6-9.7,2.8
				c-0.4,0.3-0.8,0.8-1.2,1.3c-0.6,0.7-1.2,1.5-2,2c-1.6,0.9-2.5,0.6-3.2,0.2c-0.3-0.2-0.5-0.3-0.9-0.3c-1.1-0.1-1.7,0.3-2.6,0.8
				c-0.5,0.3-1.1,0.6-1.9,0.9c-2.6,0.9-3.2,0.7-4.7-0.7c-0.3-0.3-0.7-0.7-1.3-1.2c-2.8-2.3-8.6-1.9-12.7-0.4
				c-3.4,1.3-6.3,2.2-9.2,2.7c-1.2,0.2-2.5,0-3.8-0.1c-1.3-0.2-2.7-0.3-3.4,0c-0.8,0.4-1.2,1-1.6,1.9c-0.6,1.1-1.4,2.5-3.6,3.1
				c-0.7,0.2-1.5,0.1-2.1,0.1c-0.9-0.1-1.7-0.1-2.5,0.3c-2.3,1-3.4,5.6-4.1,6.9c-0.9,2-1.7,4-1.8,5.8c0,1-0.1,2.6,0,3.7
				c0.3,2.8-2.6,7.7-2.6,7.7c1.4-3,2-5.1,1.7-7.8c-0.1-1.1-0.2-2.3-0.1-3.5c0.1-2.2,0.8-4.3,1.8-6.5c0.5-1.1,1.3-6.2,3.6-7.7
				c1.4-0.9,3.2-1.1,4.2-1c0.5,0,1,0.1,1.4,0c1.3-0.3,1.7-1.1,2.3-2.1c0.5-1,1.1-2.1,2.6-2.7c1.2-0.6,2.8-0.4,4.5-0.2
				c1.1,0.1,2.3,0.3,3.2,0.1c2.7-0.5,5.5-1.3,8.8-2.6c3.8-1.4,10.9-2.5,14.8,0.7c0.6,0.5,1,0.9,1.4,1.2c0.9,0.9,0.9,0.9,2.5,0.3
				c0.6-0.2,1.1-0.5,1.6-0.8c1-0.5,2-1.1,3.8-1c0.9,0,1.5,0.4,1.9,0.6c0.4,0.2,0.4,0.2,1.1-0.2c0.5-0.3,0.9-0.8,1.4-1.4
				c0.5-0.6,0.9-1.2,1.6-1.7c3.4-2.6,7.3-3,10.8-3.2c3.9-0.3,7.3-0.6,9.7-3.8c0.1-0.2,0.3-0.7,0.5-1.1c0.5-1.3,1-2.5,1.9-2.9
				c1.2-0.5,2.3,0.1,3,0.4c0.2,0.1,0.4,0.2,0.5,0.2c0,0-0.1,0-0.2,0l0.3-0.1c1.6-0.4,1.6-0.4,3-1.7c1.4-1.4,2.2-3.1,3.1-4.9
				c0.8-1.7,1.6-3.5,3-4.9c0.5-0.5,1.1-0.7,1.6-0.9c0.3-0.1,0.7-0.3,0.8-0.4c0.1-0.2,0.2-0.5,0.3-0.8c0.1-0.4,0.2-0.9,0.5-1.3
				c0.4-0.6,0.9-1,1.4-1.4c0.3-0.3,0.7-0.6,0.9-0.9c0.7-1.1,1.3-3,1.9-4.8c1-3,1.9-5.8,3.6-6.7c0.8-0.5,2.2-0.8,3.9-1.3
				c3.3-0.9,7.9-2.2,9.4-4.5L748.6,247z"/>
		</g>
		<g>
			<path class="st9" d="M745.2,272.1c0.9,0.5,1.7,0.4,2.6,0.3c1.3-0.2,3-0.4,4.1,2.3c0.7,1.9,0,3.7-0.7,5.6c-0.6,1.5-1.1,3-0.7,4.1
				l-0.6-0.6c1.3,0.5,2.1,1.2,2.9,1.9c0.3,0.3,0.6,0.5,0.9,0.8c0.5,0.4,0.7,1.1,0.9,1.7c0.1,0.2,0.2,0.6,0.3,0.7c0,0,0,0-0.1-0.1
				l0,0c0.3,0.1,1.3-0.3,1.9-0.5c1.4-0.5,3-1.1,4.2-0.2c1.1,0.8,0.9,2.1,0.8,3.1c0,0.4-0.1,0.8-0.1,1l0,0.2c0.4,1.9,1.3,5.3,2.3,7.1
				c0.3,0.5,1.7,1.1,3,1.6c2.2,0.8,4.7,1.8,5.4,4c0.7,2.2-0.1,3.7-0.7,5.1c-0.6,1.3-1.2,2.4-0.7,4.2c1.7,5.6,5.4,16.1,6.3,17.6
				c0,0,0,0,0,0c0,0,0,0,0,0c0.2,0,0.7-0.1,1.1-0.2c1.1-0.3,2.7-0.7,4.1,0.6c1.6,1.4,0.8,3.4,0.2,4.8c-0.3,0.8-0.7,1.7-0.5,2.2
				c0.3,0.9,1.2,1.3,2.6,1.8c0.8,0.3,1.7,0.6,2.3,1.1c0.2,0.1,3.6,3.5,3.9,4.3c0.7,1.7,0.2,2.8-0.3,3.8c-0.3,0.6-0.6,1.3-0.7,2.3
				c-0.1,1.6,0.2,2,1.1,3c0.3,0.3,0.7,0.7,1.1,1.2c2.1,2.7,2.6,4.4,3.4,7.1c0.4,1.4,1,2.8,1.6,4.4c1.2,2.9,2.4,5.9,2.6,8.9
				c0.1,1.2,0,2,0,2.6c-0.1,1-0.1,1,1.6,3.2l0.6,0.8c1.4,1.8,1.7,2.3,1.9,5.1c0,0.6-0.2,1.3-0.4,1.9c-0.1,0.4-0.3,1-0.3,1.1
				c0,0,0,0,0-0.1c0.2,0.6,0.6,0.8,1.3,1.2c0.6,0.3,1.4,0.8,2,1.6c1.3,2.1,1.4,5.8,0.7,8c-0.3,0.8-0.8,1.4-1.2,1.9
				c-0.7,0.8-1.2,1.4-1.1,2.7c0.2,2,1.3,3.1,2.7,4.4c1.1,1.1,2.3,2.3,3,4c0.6,1.5,0.8,4.7,1,7.2c0.2,2.6-0.4,3.8-1.1,5.1
				c-0.4,0.7-0.7,1.5-1.1,2.6c-1,3.4,0.4,4.1,2.7,5.3c1.5,0.8,3.1,1.6,4.2,3.3c0.8,1.2,0.9,2.6,1,4.1c0.1,1,0.1,2,0.5,2.7
				c0.6,1.2,1.3,2.2,2,3.1c1.1,1.5,2.2,3,2.7,5.5c0.1,0.8,0.1,1.7,0.1,2.5c-0.1,1.4-0.1,2.7,0.7,3.6c0.7,0.7,6.7,3.1,8.3,3.3
				c0.9,0.1,1.7-0.1,2.6-0.3c1.4-0.3,2.9-0.7,4.9,0.4c1.2,0.7,1.9,1.8,2.6,3c0.6,1,1.2,1.9,2,2.4l-1.1,1.7c-1.2-0.7-1.9-1.9-2.6-3
				c-0.6-1-1.2-1.9-1.9-2.3c-1.2-0.7-2.1-0.5-3.4-0.2c-0.9,0.2-2,0.5-3.3,0.3c-1.8-0.2-8.6-2.7-9.7-4c-1.3-1.5-1.2-3.4-1.2-5
				c0-0.8,0.1-1.5,0-2.1c-0.3-2-1.2-3.3-2.3-4.7c-0.7-1-1.5-2.1-2.2-3.5c-0.5-1-0.6-2.3-0.6-3.4c-0.1-1.2-0.1-2.4-0.6-3.1
				c-0.8-1.2-2.2-1.9-3.5-2.6c-2.3-1.2-5.3-2.8-3.8-7.7c0.4-1.3,0.8-2.2,1.2-2.9c0.6-1.3,1-2.1,0.9-4.1c-0.1-1.3-0.3-5.3-0.8-6.7
				c-0.5-1.3-1.5-2.3-2.5-3.3c-1.4-1.4-3.1-3-3.3-5.7c-0.2-2.2,0.8-3.4,1.6-4.2c0.4-0.4,0.7-0.8,0.8-1.2c0.6-1.7,0.5-4.8-0.5-6.3
				c-0.3-0.4-0.7-0.6-1.2-0.9c-0.8-0.4-1.8-1-2.3-2.4c-0.2-0.7,0-1.5,0.3-2.3c0.1-0.4,0.3-1,0.3-1.2c-0.1-2.3-0.3-2.5-1.5-4
				l-0.6-0.8c-1.9-2.6-2.1-2.9-2-4.5c0-0.5,0.1-1.2,0-2.3c-0.2-2.7-1.3-5.5-2.4-8.3c-0.6-1.5-1.2-3.1-1.7-4.6
				c-0.8-2.7-1.2-4.1-3.1-6.5c-0.3-0.5-0.7-0.8-1-1.1c-1-1.1-1.8-2-1.6-4.5c0.1-1.4,0.5-2.3,0.9-3c0.4-0.9,0.6-1.2,0.2-2.2
				c0,0.1,0,0.1,0,0.1c-0.3-0.5-2.9-3.3-3.3-3.6c-0.3-0.3-1-0.5-1.7-0.7c-1.4-0.5-3.4-1.1-4-3.2c-0.3-1.2,0.1-2.4,0.6-3.5
				c0.6-1.5,0.8-2.2,0.3-2.6c-0.5-0.4-1-0.3-2.1-0.1c-1,0.2-2.6,0.7-3.4-0.8c-1-1.7-4.9-12.7-6.5-18c-0.7-2.5,0.1-4.2,0.8-5.6
				c0.6-1.2,1.1-2.2,0.6-3.6c-0.4-1.2-2.4-2-4.2-2.6c-1.7-0.7-3.4-1.3-4.1-2.5c-1.2-2.1-2.1-5.7-2.5-7.7l0-0.2
				c-0.1-0.6-0.1-1.2,0-1.7c0-0.4,0.1-1.1,0-1.3l0,0l0,0c-0.2-0.2-1.6,0.3-2.1,0.5c-1.2,0.5-2.4,0.9-3.5,0.5c-0.9-0.4-1.2-1.3-1.4-2
				c-0.1-0.2-0.2-0.6-0.3-0.7c0,0,0,0,0,0c-0.4-0.3-0.7-0.6-1-0.9c-0.7-0.7-1.3-1.2-2.2-1.5l-0.5-0.2l-0.2-0.5
				c-0.6-1.8,0.1-3.7,0.8-5.5c0.6-1.6,1.1-3,0.7-4.2c-0.5-1.2-0.7-1.2-1.8-1c-1,0.1-2.3,0.3-3.9-0.5L745.2,272.1z"/>
		</g>
		<g>
			<path class="st9" d="M705.7,345.4c0.2,0.8,0.7,2.1,1.3,3.6c1.3,3.6,2.9,8.1,3.1,10.2c0.1,1.9-1.2,3.2-2.3,4.4c-1,1-1.8,1.9-1.7,3
				c0.1,1.2,0.6,2.4,1.1,3.7c0.7,1.8,1.5,3.7,1.3,5.8c-0.1,1-0.4,1.8-0.7,2.6c-0.3,0.7-0.5,1.3-0.6,2c-0.1,0.7,0.1,1.2,0.2,1.8
				c0.2,0.5,0.3,1.1,0.3,1.8v0.3c0,3.9-0.1,5.2,1.5,8.7c0.3,0.6,0.5,0.9,0.6,1.2c0.5,0.9,0.6,1.2,0.5,3.2c0,0.7-0.3,1.4-0.6,2.1
				c-0.3,0.8-0.7,1.7-0.4,2.2c0.2,0.3,1.5,0.5,2.4,0.6c2.1,0.3,4.9,0.7,6.2,3.1c0.9,1.6,0.7,3.9,0.4,6.4c-0.4,3.4-0.8,6.9,1.8,8.6
				c0.4,0.3,1.1,0.4,1.8,0.6c0.9,0.2,1.8,0.4,2.5,0.9c0.7,0.5,1.2,1.5,1.7,2.4c0.2,0.4,0.5,1,0.7,1.1c0,0,0,0,0,0
				c0.9,0.6,1.9-0.1,3.4-1.2c1.2-0.9,2.3-1.7,3.5-1.4c1.4,0.4,1.7,1.7,1.9,2.7c0.2,1.1,0.4,1.7,0.6,1.6c0.9-0.5,2-1.4,3.1-1.1
				c1.5,0.5,1.7,1.3,1.9,2.1c0,0.3,0.1,0.5,0.2,0.7c0.6,1,0.9,2.2,1.2,3.4c0.2,0.9,0.5,1.8,0.8,2.5c0.7,1.3,1.3,2.1,1.5,2.3
				c0.8,0.6,0.9,0.6,1.2,0.5c0.4-0.1,3.5-0.9,4.7,0c1.3,1,1,2.5,0.7,3.4c-0.1,0.3-0.4,0.9-0.4,1.1c-0.2,2,1.6,1.8,2.6,2
				c0.3,0.1,0.6,0.1,0.9,0.2c2.6,0.5,6.6,1.3,6.7,6.3c0,1.3,2.9,2.4,5.2,3.2c2.2,0.8,4.3,1.6,5.2,2.8c0,0-4.2-1.7-5.9-2.3
				c-3.1-1.1-5.9-1.8-5.9-4.5c-0.1-3.2-2.2-4-5.3-4.6c-0.3-0.1-3.5-0.6-4-1.5c-0.4-0.7-0.5-1.4-0.3-2.4c0.3-1.2,0.6-2.4,0.2-2.8
				c-0.8-1-2.7,0-4,0c-1.3,0-2.7-0.1-4.3-3.5c-0.5-0.9-1-1.4-1.3-2.4c-0.3-1.1-0.8-1.9-1.3-2.7c-0.4-0.6-0.5-1.2-0.5-1.5
				c0-0.1,0-0.2,0-0.3c0,0,0,0,0,0c0,0-0.1-0.1-0.4-0.2c0.1,0,0.1,0,0.1,0c-0.3,0-1,0.5-1.3,0.7c-0.5,0.4-0.9,0.6-1.4,0.5
				c-1.9-0.5-2.2-2.2-2.5-3.3c-0.1-0.5-0.2-1.1-0.4-1.1c0,0,0,0,0,0c-0.3,0-1.1,0.6-1.6,1c-1.4,1.1-3.6,2.7-5.8,1.3
				c-0.6-0.3-0.9-1-1.4-1.9c-0.3-0.6-0.7-1.4-1.1-1.7c-0.4-0.3-1-0.4-1.7-0.5c-0.8-0.2-1.8-0.4-2.6-0.9c-3.6-2.4-3.1-6.9-2.7-10.5
				c0.2-2.1,0.5-4.1-0.1-5.1c-0.9-1.5-2.8-1.8-4.7-2.1c-1.6-0.2-3.2-0.5-3.9-1.7c-0.7-1.3-0.2-2.7,0.3-3.9c0.2-0.5,0.4-1.1,0.5-1.4
				c0.1-1.6,0.1-1.6-0.2-2.1c-0.2-0.3-0.4-0.7-0.7-1.4c-1.8-3.9-1.8-5.6-1.7-9.5v-0.3c0-0.4-0.1-0.8-0.2-1.2
				c-0.2-0.7-0.5-1.5-0.3-2.6c0.1-0.9,0.5-1.7,0.7-2.5c0.3-0.7,0.5-1.3,0.6-2c0.1-1.6-0.5-3.2-1.2-4.9c-0.5-1.4-1.1-2.8-1.3-4.2
				c-0.2-1.9,1.1-3.3,2.3-4.5c0.9-1,1.8-1.9,1.7-2.9c-0.1-1.8-1.8-6.3-3-9.6c-0.6-1.6-1.1-2.9-1.3-3.7L705.7,345.4z"/>
		</g>
		<g>
			<path class="st9" d="M794.1,164.4c2.6,1.7,6.3,4.2,3.9,8.3c-1.6,2.8,0.6,6.8,2.1,9.5c0.5,0.8,0.8,1.5,1,2
				c0.3,0.7,0.3,1.4,0.4,2.1c0.1,0.9,0.2,1.8,0.7,2.6c0.1,0.2,0.7,0.9,1.1,1.4c0.9,1.1,1.3,1.5,1.4,1.9c0.7,2.3,0.1,3-1.4,3.7
				c-0.6,0.2-1.2,0.5-2,1.3c-2.8,2.8-1.8,4.8,0.3,8.1c1.4,2.1,2.9,4.5,2.7,7.3c-0.1,1.3-0.8,2.6-1.5,3.9c-0.6,1.2-1.3,2.4-1.2,3.3
				c0-0.3-0.2-0.5-0.3-0.5c0.5,0.3,2.7,0.5,4.1,0.6c3.2,0.3,4.5,0.4,5,1.2c1,1.3,1.5,2.9,2.1,4.6c0.5,1.5,1,3.1,1.7,3.6
				c0.4,0.3,0.6,0.7,0.7,1.1c0.1,1.1-0.8,2.1-1.9,3.3c-0.5,0.6-1.4,1.6-1.5,2c0,0,0,0,0,0c0.1,0.4,0.1,0.9,0.2,1.5
				c0.1,1,0.4,3.3,0.8,3.7c0,0,0,0,0,0c0.7,0.6,1.3,0.5,2.4,0.1c1-0.4,2.3-0.8,3.7,0c1,0.6,3.3,5.4,3.4,5.6c0.3,1.9,0.1,2.5-0.9,3.4
				c-0.3,0.3-0.8,0.7-1.3,1.4c-1,1.3-1,1.7-1,2.4c0,0.6,0,1.3-0.3,2.3c-0.4,1.3-1.5,2.6-2.9,3.1c-1.4,0.6-5.6-0.3-5.4,0.9
				c0.1,0.9,6.2,3.2,10.4,2.2c2.8-0.7,5.3-1.1,7,0.5c1.2,1.1,1.4,2.2,1.4,3.2c0,1,0.1,2,1.4,2.8c1.1,0.7,2,0.7,3.1,0.4
				c2-0.6,3.9,0,4,1.8c0.1,2.3,0.4,3.7,2.2,4.6c3.1,1.5,4.3,4.2,4.9,5.5c0.8,2,1,4.1,3.9,5.4c1.2,0.6,3.3,1.2,4.7,1.5
				c2.8,0.5,5.9,0.9,5.2,3.3c-0.3,0.9-2,3.2-1.5,5.5c0.4,1.9,2.6,3.8,3.3,4.6c0,0-5.9-4.2-3.8-7.6c0.4-0.7,0.8-1.3,0.9-1.8
				c0.3-2.2-0.8-2.5-4-3.1c-1.4-0.3-3-0.6-4.5-1.3c-3.6-1.7-4.4-4-5.2-6.1c-0.5-1.3-1-2.6-2.1-3.8c-0.6-0.7-1.4-1.1-2.2-1.6
				c-1.6-0.9-3.4-2-3.3-5.1c-0.1-1-1.6-0.5-2.6-0.4c-1.2,0.1-2.8-0.1-4.1-1c-1.7-1.1-2-2.6-2-3.8c0-0.9,0-1.3-0.5-1.8
				c-0.9-0.9-3.4-0.5-5.7,0.1c-3.4,0.8-13.2-1.5-13.4-4.7c-0.1-1.8,6.4-1.2,7.3-1.7c1-0.5,1.4-1.4,1.6-2.2c0.2-0.7,0.2-1.2,0.2-1.6
				c0-1.1,0-2,1.4-3.7c0.7-0.9,1.2-1.4,1.6-1.7c0.5-0.4,0.5-0.4,0.3-1.5l0,0.2c-0.2-0.5-2-4-2.5-4.4c0,0,0,0,0.1,0.1
				c-0.5-0.3-1-0.1-2,0.2c-1.2,0.4-2.8,1-4.5-0.5c-0.9-0.8-1.2-2.6-1.4-5c-0.1-0.5-0.1-1-0.2-1.3c-0.2-1.2,0.8-2.4,1.9-3.7
				c0.5-0.6,1.3-1.5,1.4-1.8c0,0.1,0,0.3,0.1,0.3c-1.3-0.9-1.9-2.8-2.5-4.7c-0.5-1.4-0.9-2.9-1.7-3.9c0.1,0.1,0.1,0.1,0.1,0.1
				c-0.4-0.2-2.4-0.4-3.7-0.5c-3.5-0.3-5.6-0.5-5.7-2c-0.1-1.4,0.7-2.9,1.5-4.3c0.6-1.1,1.2-2.3,1.3-3.1c0.2-2.2-1.1-4.2-2.4-6.1
				c-2-3.1-4.2-6.6-0.1-10.7c1.1-1.1,2-1.5,2.7-1.8c0.2-0.1,0.4-0.2,0.5-0.2c0,0,0,0.1,0,0.1c0,0,0-0.2-0.2-1.1c0,0.1,0,0.1,0,0.1
				c-0.1-0.2-0.7-0.9-1-1.3c-0.7-0.8-1.1-1.3-1.3-1.7c-0.6-1.1-0.8-2.3-0.9-3.3c-0.1-0.6-0.2-1.2-0.3-1.6c-0.1-0.4-0.5-1-0.9-1.7
				c-1.6-2.9-4.3-7.7-2.1-11.5c1.3-2.2-2.3-3.8-5.3-5.8c-0.7-0.5-4.1-3.1-4.5-3.5C786.4,162.3,793.1,164.1,794.1,164.4z"/>
		</g>
		<g>
			<path class="st9" d="M722.3,272.8c-2.3,2.3-8,5.3-12.3,5c-1.8-0.1-3.2-0.8-4.2-2c-0.5-0.7-0.9-0.8-1-0.8c-0.6,0.1-1.9,2.1-2.8,7
				c-0.6,3.2-0.6,6-0.6,9c0,1.9,0,3.9-0.2,6c-0.1,1-0.4,1.8-0.7,2.4c-0.2,0.5-0.4,0.8-0.4,1.3c-0.3,1.7-0.1,2.6,0.2,4.3l0.2,1.2
				c0.9,4.9-0.5,7.5-3.6,10.8c-1.3,1.4-2.2,3.5-3,5.7c-1.3,3.1-2.6,6.3-5.4,8c-1.5,0.9-2.7,0.9-3.7,0.8c-0.7,0-1.2,0-1.7,0.2
				c-1.6,0.8-2.7,2.3-3.5,4.1c-0.3,0.8-1,1.9-1.5,2.7c-3.1,5.4-6.4,4.7-10.8,4.2c-1.1-0.1-2.3,0-3.5,0.1c-0.9,0-2.7,0.6-3.9,1
				c-2.1,0.7-4.1,1.8-5.7,0.4c-0.8-0.7-1.3-2-2.1-2.7c-2.1-1.8-3.5-0.1-3.5-0.1c0.6-0.8,1.4-1.3,2.1-1.3c1.3,0,2.2,1.1,3,2.2
				c0.4,0.6,1,1.3,1.3,1.4c1.2,0.5,3-0.2,4.8-0.8c1.3-0.5,2.6-0.9,3.8-0.9c1.3-0.1,2.4-0.1,3.6,0c4.3,0,7.2,0.1,9.7-4.3
				c0.4-0.6,0.7-1.4,1-2.2c0.9-2.1,1.9-4.4,4.2-5.6c1-0.5,2-0.5,2.8-0.5c0.9,0,1.6,0.1,2.5-0.5c2.3-1.4,3.4-4.1,4.6-7.1
				c0.9-2.3,1.9-4.6,3.4-6.3c3.1-3.4,3.8-5.4,3.1-9.1l-0.2-1.1c-0.4-1.8-0.6-2.9-0.2-5c0.1-0.7,0.4-1.2,0.6-1.8
				c0.3-0.6,0.5-1.1,0.5-1.8c0.2-2,0.2-4,0.2-5.8c0-3,0-6,0.7-9.3c1-5.3,2.5-8.2,4.4-8.6c1.1-0.3,2.2,0.3,3.2,1.5
				c0.6,0.7,1.4,1.1,2.6,1.2c3.5,0.2,8.8-2.5,10.7-4.4L722.3,272.8z"/>
		</g>
		<g>
			<path class="st9" d="M709.6,400.1c-0.2,4.2-2.9,7-4.9,9.1c-0.4,0.4-0.7,0.8-1.1,1.1c-1.6,1.8-2.6,4.4-3.5,6.8l-0.4,0.9
				c-0.8,1.9-0.8,4.3-0.9,6.7c-0.1,2.8-0.1,5.2-1.3,6.6c-1.5,1.8-2.8,4.7-4,7.5l-0.6,1.4c-0.4,0.8-0.8,1.7-1.3,2.7
				c-1.5,3-3.3,6.8-3.6,9.3c-0.1,0.7,0,1.4,0.2,2.1c0.2,1.1,0.4,2.4-0.1,4c-0.4,1.1-1.1,1.9-1.8,2.7c-0.9,1-1.7,1.9-1.6,3.2
				c0,0.7,0.3,1.3,0.7,2c0.5,1,1.2,2.1,1.2,3.7c0,2.3-1.5,6.6-2.6,8.6c-0.9,1.7-1.8,3-2.5,4c-1.9,2.6-2.7,3.7-0.4,8
				c2.8,5.1,1.4,8.6,0,12.4c-0.7,1.8-1.4,3.7-1.8,5.9c-0.2,1.1-0.5,2.2-0.8,3.1c-0.6,1.8-1,3.4-0.7,5.4c0.3,2.1,1.2,4.1,2.1,6.3
				c0.7,1.6,1.4,3.3,1.9,5c1.8,6.7-1.7,12.5-5.4,17.3c0,0,8.9-10.8,2.9-21.2c-1.2-2.1-2.4-5.3-2.8-7.7c-0.4-2.5,0.1-3.7,0.7-5.6
				c0.3-0.9,0.7-2.6,0.9-3.6c0.4-2.4,1-4.3,1.7-6.1c1.4-3.7,2.4-6.3,0.1-10.6c-2.9-5.4-2-7,0-9.8c0.7-1,1.6-2.2,2.4-3.7
				c0.9-1.8,2.3-5.9,2.4-7.7c0-1.1-0.4-1.9-0.9-2.7c-0.5-0.9-1-1.8-1-3c0-2.1,1.1-3.4,2.1-4.5c0.6-0.7,1.1-1.3,1.4-2
				c0.4-1.1,0.2-1.9,0.1-2.9c-0.1-0.8-0.3-1.7-0.2-2.7c0.3-2.8,2.2-6.8,3.8-10c0.5-1,0.9-1.9,1.3-2.7l0.6-1.4c1.3-2.9,2.6-6,4.3-8
				c0.7-0.9,0.8-3.2,0.8-5.4c0.1-2.4,0.1-5.2,1-7.4l0.4-0.9c1-2.5,2.1-5.3,3.9-7.3c0.3-0.4,0.7-0.8,1.1-1.2c1.9-1.9,4.2-4.4,4.4-7.8
				L709.6,400.1z"/>
		</g>
		<g>
			<path class="st9" d="M774.6,159c-0.5,2.2-1.2,4-1.8,5.6c-1.5,3.7-2.4,6-0.2,10.5c0.7,1.5,2,2.9,3.4,4.4c2.3,2.6,4.9,5.5,5.6,9.6
				c1,6.1-3.5,9.7-7.1,12.6c-1.5,1.2-2.9,2.3-3.9,3.5c-2.8,3.2-6,4.8-8.9,6.3c-2.3,1.2-4.3,2.2-5.9,3.8c-4.5,4.8-4.3,13.8-4,22.5
				c0.1,5.5,0.3,10.7-0.8,15c-0.5,1.9-0.9,3.9-1.3,6c-1.1,5.5-2.2,11.2-5.3,16.3c-1.5,2.4-3.6,3.8-5.2,4.9c-0.9,0.6-1.8,1.2-2.4,1.8
				c-1.1,1.1-1.2,1.9-1.5,3.3c-0.2,1.2-0.5,2.8-1.5,4.6c-1.1,2-2.5,3-3.5,3.8c-1,0.8-1.4,1.1-1.8,2.2c-0.2,0.8,0,2,0.3,3.3
				c0.5,2.3,1.1,5.1-0.2,8.1l-1.1,2.7l-2.8-0.9c-2.3-0.8-3-0.5-3-0.5c0,0,0,0,0,0c-0.4,0.4-0.7,2.4-0.9,3.7c-0.5,3.1-1,6.9-4,9.7
				c-2.8,2.6-6,2.1-7.9,1.8c-0.4-0.1-1-0.2-1.2-0.1c0.1,0,0.3-0.1,0.6-0.3c0.1-0.1,0.2-0.2,0.2-0.2c-0.7,1.1-0.9,6-0.9,7.8
				c0,1,0,1.8-0.1,2.4c-0.2,2.8-0.2,5.4-0.2,8.3c0,4.4,0.1,9-1,13.8c-0.9,3.9-2.5,7.1-4.1,10.2c-1.6,3.1-3.1,6.1-3.5,9.4l-0.2,1.5
				c-0.7,4.7-0.9,6.8-4.7,11.6c-0.5,0.7-1,1.3-1.5,1.8c-1.8,2.2-2.6,3.2-2.9,6.6c-0.1,0.9,0.3,2.7,0.7,4.2c0.7,3.1,1.5,6.3,0.2,8.8
				c-1,2-3.4,3.4-6.2,5.1c-1.7,1-4.1,2.4-4.8,3.4c-3.7,5.1-2.9,9.2-1.8,14.5c0.7,3.8,1.6,8.2,0.5,13c-1.1,4.8-3.7,8.3-6.1,11.1
				c-2.8,3.2-3.1,4.2-4.2,7.8l-0.7,2.3c-0.8,2.3-1.7,4.3-2.6,6.2c-1.3,2.8-2.5,5.4-3,8.5c-0.6,3.5-0.5,7.1-0.5,11
				c0,2.8,0.1,5.6-0.1,8.5c-0.2,2.8-0.6,5.5-1,8.2c-0.6,4.4-1.2,8.6-1,12.7c0.1,1.8,0.8,3.6,1.6,5.6c0.9,2.3,1.9,4.9,2,7.9
				c0.1,3.8-2.4,6.3-4.3,8.4c-2,2.1-2.6,2.9-2.3,3.8c0,0,0,0,0,0c0.3,0.7,2.1,2.5,3.3,3.6c2.3,2.2,4.5,4.3,5.1,6.6
				c2.5,8.9-5,17.3-10.9,24.1c-1.1,1.2-2.1,2.4-3,3.5c-2.2,2.6-4.5,4.9-6.9,7.1c-5,4.9-9.8,9.4-11.4,16.4c0,0,3.8-13,9.3-18.2
				c2.2-2.1,4.4-5.1,6.4-7.5c1-1.2,3.3-3.1,4.4-4.4c5.3-6,8.6-14.2,7-19.9c0,0-2.7-3.9-3.8-5.1c-2.2-2.1-4.7-2.3-5.4-4.4
				c-1.4-4.4,1.6-7.5,3.7-9.7c1.7-1.8,2.7-2.9,2.7-4.1c0-1.9-0.8-3.8-1.6-5.8c-0.9-2.2-1.8-4.7-2-7.5c-0.2-4.6,0.4-9.3,1.1-13.8
				c0.4-2.7,0.7-5.3,0.9-7.8c0.2-2.6,0.1-5.2,0.1-7.9c-0.1-3.9-0.1-8,0.5-12c0.6-3.9,2.1-7,3.4-10c0.8-1.8,1.7-3.6,2.3-5.6l0.7-2.2
				c1.3-3.9,1.8-5.7,5.4-9.9c2-2.4,4-5,4.8-8.5c0.8-3.6,0.2-7-0.5-10.5c-1.1-5.6-2.3-12,2.9-19.2c1.4-2,4.1-3.5,6.7-5.1
				c1.4-0.8,3.5-2,3.9-2.6c0,0,0,0-0.1,0.1c0,0,0,0,0,0c0.3-0.7-0.3-3.3-0.7-4.8c-0.5-2.1-1-4.2-0.8-6.1c0.4-5.2,2.2-7.4,4.3-9.9
				c0.4-0.5,0.9-1.1,1.3-1.7c2.7-3.6,2.9-4.6,3.5-8.8l0.2-1.5c0.6-4.2,2.4-7.8,4.1-11.2c1.5-2.9,2.8-5.7,3.6-8.8
				c0.9-4.1,0.9-8.1,0.8-12.4c0-2.8-0.1-5.8,0.2-8.9c0-0.5,0.1-1.2,0.1-2.1c0.2-5.6,0.5-10,2.9-12.1c1.9-1.6,4.2-1.3,5.8-1
				c1.7,0.3,2.1,0.2,2.5-0.2c1.4-1.3,1.8-3.7,2.1-6.1c0.4-2.9,0.9-6.3,3.9-8c2.8-1.6,6.1-0.8,8.4-0.1l-3.9,1.7
				c0.6-1.3,0.2-2.8-0.1-4.5c-0.4-1.9-0.9-4-0.2-6.2c0.9-3,2.7-4.4,4-5.4c0.8-0.6,1.4-1.1,1.9-1.9c0.5-0.9,0.6-1.6,0.8-2.6
				c0.3-1.8,0.7-4,3.1-6.5c1.1-1.1,2.3-1.9,3.4-2.6c1.4-0.9,2.6-1.8,3.4-3.1c2.5-4.1,3.5-9,4.5-14.2c0.4-2.1,0.8-4.3,1.4-6.4
				c0.9-3.5,0.7-8.3,0.6-13.4c-0.3-9.4-0.5-20.1,5.7-26.8c2.3-2.5,5-3.8,7.7-5.1c2.6-1.3,5-2.5,7-4.8c1.4-1.7,3.1-3,4.8-4.3
				c3.7-2.9,5.3-4.4,4.9-6.8c-0.4-2.4-2.2-4.4-4.2-6.6c-1.6-1.8-3.2-3.6-4.3-5.9c-3.3-6.9-1.6-11.2,0-15.3c0.6-1.5,1.2-3,1.6-4.7
				L774.6,159z"/>
		</g>
		<g>
			<path class="st9" d="M689.1,389.8c-13.1-0.2-17.9,7.7-21.8,14c-1.3,2.1-2.4,4-3.8,5.5c-4.3,4.7-10.5,10.8-13.6,12.5
				c-2,1.1-4,0.2-5.6-0.5c-1.4-0.6-2.2-0.9-2.7-0.5c-0.9,0.7-0.6,2.1-0.1,4.2c0.4,1.9,0.8,3.8,0,5.4c-1.1,2.2-3.5,2.9-5.5,3.6
				c-1.3,0.4-2.5,0.8-3.3,1.4c-1,0.8-2,2.4-2.9,4c-0.5,0.9-1,1.8-1.6,2.5c-1,1.4-1.9,3-2.9,4.8c-1.8,3.3-3.7,6.7-6.3,8.6
				c-2.6,1.9-5.2,2.5-7.4,3c-3.5,0.8-6.2,1.4-8.5,6.5c-1,2.2-1.1,4.3-1.2,6.5c0,0.7-0.1,1.4-0.1,2.1c-0.2,2.2-0.9,4-1.5,5.7
				c-0.5,1.4-1,2.8-1.3,4.4c-0.2,1.6,0,2.9,0.3,4.3c0.3,1.6,0.6,3.2,0.2,5.2c-0.6,3.1-2,4.3-3.4,5.4c-0.7,0.6-1.4,1.2-2.1,2.1
				c-0.8,1-1.2,2.4-1.7,3.9c-0.5,1.6-1.1,3.2-2.1,4.6c-1.1,1.5-2.1,2.3-3,3c-1.4,1.1-2.4,1.8-3,4.9c-0.3,1.7-0.1,3.3,0.1,4.9
				c0.3,1.8,0.5,3.6,0,5.7c-0.6,2.5-2,4.3-3.4,6c-1.1,1.4-2.2,2.8-2.9,4.5c-1.3,3.2-3.2,6-5.1,8.6c-2.6,3.7-5,7.3-5.9,11.7
				c0,0-0.6-3.2,5.1-12.1c1.7-2.7,3.7-5.8,4.9-8.7c0.8-2,1.8-3.2,2.9-4.7c1.3-1.6,2.6-3.5,3.2-5.6c0.4-1.6,0-3.8-0.2-5.5
				c-0.3-1.7-0.6-3-0.2-5.1c0.7-3.8,2.2-4.9,3.8-6.1c0.8-0.6,1.4-1.4,2.3-2.6c0.8-1.1,1-2.7,1.5-4.1c0.5-1.6,1.1-3.2,2-4.5
				c0.8-1.1,1.6-1.8,2.4-2.4c1.3-1.1,2.2-1.9,2.7-4.3c0.3-1.6,0.1-2.9-0.2-4.4c-0.3-1.5-0.6-3-0.3-4.9c0.3-1.8,0.8-3.3,1.4-4.8
				c0.6-1.7,1.2-3.2,1.4-5.2c0.1-0.7,0.1-1.3,0.1-2c0.1-2.3,0.2-4.7,1.4-7.2c2.7-6,6.2-6.8,9.9-7.6c2.1-0.5,4.4-1,6.7-2.7
				c2.3-1.6,4-4.8,5.7-7.9c1-1.8,1.9-3.5,3-5c0.5-0.7,1-1.5,1.5-2.4c1-1.7,2-3.5,3.3-4.5c1.1-0.9,2.6-1.4,4-1.8
				c1.8-0.6,3.5-1.1,4.3-2.5c0.5-1,0.2-2.5-0.2-4c-0.5-2.2-1-4.6,0.8-6.2c1.5-1.3,3.3-0.5,4.9,0.2c1.6,0.7,2.8,1.1,3.8,0.6
				c2.6-1.4,8.6-7.3,13-12.1c1.2-1.3,2.3-3.2,3.5-5.1c3.9-6.4,9.2-15.2,23.6-15.1L689.1,389.8z"/>
		</g>
		<g>
			<path class="st9" d="M605.2,461.3c-4.7,0.9-8.9,6.6-11.8,10.3l-0.8,1.1c-2.8,3.7-3.9,3.7-6.4,2.9c-1-0.3-2.3-0.8-4.5-0.8
				c-3.5-0.1-7.1,0.6-10.5,2.1c-1.7,0.7-3,0.8-4.8,1.3c-1.4,0.4-2.8,1.2-3.1,1.5c-1.1,0.9-2.4-0.1-3.7-0.7c-1.7-0.8-2.3-1.9-3.4-3.2
				c-3.3-3.7-6.3-4.2-6.3-4.2c3.5-0.2,5.4,2,7,3.9c1,1.2,1.9,2.3,3.1,2.8c0.9,0.4,2.3,0.9,2.3,0.9c0.5-0.5,1.2-1,2.9-1.5
				c1.7-0.5,3.3-1.2,5.1-1.9c3.7-1.5,7.3-2.6,11.3-2.5c2.5,0.1,4.1,0.1,5.2,0.5c1.7,0.5,1.9,0.6,4.1-2.2l0.8-1.1c3-4,7.6-10,13-11.1
				L605.2,461.3z"/>
		</g>
		<g>
			<path class="st9" d="M663.4,468.5c-19.8,5.7-24,12.1-27.1,16.9c-1,1.5-1.9,3-3.2,4.2c-1.5,1.4-3,1.7-4.3,1.9
				c-1,0.2-2,0.4-3.2,1.1c-1.1,0.7-1.6,1.5-2.2,2.4c-0.7,1.1-1.6,2.4-3.5,3.2c-1,0.4-2.4,0.5-3.9,0.5c-1.2,0-2.5,0.1-3.4,0.3
				c-1.1,0.3-1.8,0.6-2.5,0.9c-1.7,0.7-2.7,1.1-5.9,0.7c-0.9-0.1-1.7-0.2-2.5-0.3c-2.3-0.3-4.2-0.6-7-0.3c-1.6,0.2-3.3,0.2-4.8,0.1
				c-1.7,0-3.6-0.1-4.3,0.3c-0.5,0.3-1.3,1.8-1.9,3.1c-0.8,1.6-1.7,3.5-2.9,4.7c-1.1,1.1-2.5,2-3.8,2.9c-0.8,0.5-1.5,1-2.2,1.5
				c-6.5,5.1-8.5,4.6-14.4,2.9c-1.2-0.3-2.6-0.7-4.2-1.1c0,0,3,0,4.7,0.4c5.3,1.4,7.5,1.5,13.1-2.9c0.7-0.6,2.1-1.2,2.9-1.8
				c1.3-0.8,2.5-2.2,3.5-3.1c1-1,1.5-2.8,2.3-4.3c0.9-1.8,1.2-3,2.3-3.7c1.2-0.6,2.8-1.1,5-1.1c1.5,0,3.1,0.1,4.5-0.1
				c3-0.4,5.2,0,7.6,0.3c0.8,0.1,1.6,0.2,2.4,0.3c2.8,0.3,3.4,0,4.8-0.5c0.7-0.3,1.5-0.6,2.7-1c1.2-0.4,2.6-0.4,3.9-0.4
				c1.2,0,2.5-0.1,3.1-0.4c1.4-0.6,1.9-1.4,2.6-2.5c0.6-1,1.4-2.1,2.8-3c1.5-1,2.8-1.2,4-1.4c1.2-0.2,2.1-0.4,3.2-1.4
				c1.1-1,1.9-2.3,2.9-3.8c3.2-5,9.1-13.8,29.7-19.7L663.4,468.5z"/>
		</g>
		<g>
			<path class="st9" d="M769.5,176.4c2.1,7.5-2,14.9-3.3,16.2c-2.8,2.8-5.5,2-7.7,1.3c-0.8-0.3-1.6-0.5-2.4-0.5
				c-4.4-0.3-6.1,2.6-8.3,6.9c-0.5,1-0.9,2.5-1.3,4.1c-0.7,2.8-1.4,5.7-3.1,7.4c-2.6,2.5-9.5,5.2-14.1,1.7c-1.6-1.2-3.3-0.4-6.1,1.1
				c-2.3,1.2-4.9,2.6-7.7,1.9c-0.8-0.2-1.6-0.7-2.4-1.3c-1-0.7-2-1.4-3.2-1.6c-1.5-0.2-3.6,0-5.4,0.3c-0.8,0.1-1.7-0.1-2.3,0
				c-2.2,0.2-4.5,0-4.2,1.8c0.1,1.1,0.3,2.8-0.3,5.5c-0.6,2.8-2.1,4.4-3.5,5.8c-1.6,1.6-3,3-3.1,6c0,0-0.2-3.5,2.3-6.2
				c1.3-1.4,2.9-3.5,3.4-5.6c0.5-2.3,0-4-0.1-5c-0.1-0.9-0.3-1.8,0.3-2.5c0.8-0.9,1.8-0.5,5.7-0.8c0.6,0,1.4,0,2.1-0.1
				c2-0.2,3.6-0.6,5.4-0.3c1.8,0.3,2.9,0.9,4,1.7c0.6,0.4,1.4,1,1.8,1.1c1.9,0.5,4.7-0.5,6.8-1.5c2.7-1.4,5.2-3.8,7.9-1.7
				c3.6,2.8,9.3,0.5,11.3-1.5c1.3-1.2,1.9-4,2.6-6.4c0.4-1.7,0.8-3.3,1.4-4.5c1.9-3.7,4.2-8.4,10.3-8c1,0.1,2,0.3,2.9,0.6
				c2.1,0.6,3.7,1.1,5.5-0.8c0.9-0.9,4.6-7.7,2.8-14.2L769.5,176.4z"/>
		</g>
		<g>
			<path class="st9" d="M761.8,293.9c0,12.7-12.5,23.2-19,27c-1.8,1-4.1,1.4-6.3,1.7c-1.8,0.2-3.5,0.5-4.5,1.1
				c-2.4,1.4-2.6,3.4-2.8,6.3c-0.1,1-0.2,2-0.4,3c-1.1,6.8-0.9,10.8,0.3,16.3c0.4,1.8,1.1,3.7,1.5,5.8c0.7,3.6-0.1,5.2-0.7,8.1
				c-0.2,0.7-0.3,1.6-0.5,2.5c-0.3,1.6-0.1,3.4,0.2,5.2c0.6,3.3,1.5,7.4-2.3,9.1c-11.3,5-13,13.1-13,13.1
				c-0.2-7.8,9.2-12.5,12.9-14.5c2.2-1.2,1.9-3.4,1.3-7c-0.4-2-0.7-4.1-0.4-6c0.2-1,0.4-1.8,0.5-2.5c0.6-2.8,0.9-4.3,0.4-7.5
				c-0.4-2.1-0.8-3.9-1.2-5.7c-1.3-5.7-2.2-10.1-1.1-17.3c0.2-1,0.3-2,0.3-2.9c0.3-3.1,0.5-6,3.9-7.9c1.4-0.8,3.3-1.1,5.3-1.4
				c2-0.3,4.1-0.6,5.6-1.4c7.2-4.2,18-14.3,18-25.3L761.8,293.9z"/>
		</g>
		<g>
			<path class="st9" d="M745.8,482.7c-0.6-0.5-3.5-3-4.2-3.6c-2-1.6-3.8-2.7-4.8-4.9c-0.8-1.9-0.4-3.5-0.1-5.3
				c0.2-1.2,0.3-2.7,0.1-3.8c-0.4-2.7-2.4-4.5-4.1-6.3c-2.1-2.3-3.8-4.3-3.5-8.5c0.2-1.9,1-3.3,2.4-5c1.3-1.5,2.6-3.1,2.5-4.5
				c-0.1-1.1,0-2.3,0.1-3.6c0.2-3.3,0.5-7.4-1.7-12.9l2-0.7c2.4,6,2.1,10.3,1.9,13.8c-0.1,1.3-0.1,2.4-0.1,3.3
				c0.2,2.1-1.4,4-2.9,5.9c-1.2,1.4-2.4,2.9-2.5,4.2c-0.3,3.4,1.4,5.2,3.3,7.4c1.7,1.9,3.6,4.1,4.1,7.4c0.2,1.4,0,2.8-0.1,4
				c-0.2,1.6-0.4,3,0.2,4.4c0.7,1.7,2.8,3.3,4.6,4.8c0.8,0.6,1.5,1.2,2.1,1.8c5.6,5.3,13.1,13.5,12.8,24.3
				C757.7,504.8,756.1,491.6,745.8,482.7z"/>
		</g>
		<g>
			<path class="st9" d="M696.2,433c-0.3,5.5,2.8,7.6,5.2,9.4c1.4,1,2.6,1.8,2.9,3.1c0.4,1.9-0.1,3.3-0.5,4.4c-0.3,0.7-0.5,1.3-0.5,2
				c0.1,3,1.6,5.6,3.1,8.4c0.7,1.3,1.5,2.7,2.1,4.1c2.8,6.5,5.3,11.7,10.2,15.6c1,0.8,2.4,1.3,3.8,1.9c1.5,0.6,3,1.2,4.1,2.1
				c2.2,1.7,2.9,3.9,3.7,6.3c0.2,0.7,0.5,1.4,0.7,2.2c0,0-3.2-6.6-4.9-7.9c-0.9-0.7-3.6-1.2-5-1.8c-1.5-0.6-2.6-1.8-3.8-2.8
				c-5.4-4.2-6.9-8.4-9.8-15.2c-0.6-1.3-1.8-3.3-2.6-4.6c-1.6-2.9-2.9-5-3-8.5c0-1.1,0.4-1.9,0.7-2.8c0.4-1,0-1.5-0.3-2.8
				c-0.1-0.5-1-1.2-2-1.9c-2.6-1.8-6.4-4.6-6.1-11.1L696.2,433z"/>
		</g>
		<g>
			<path class="st9" d="M819.4,171.3c0.1,1.1,0.2,2.3,0.5,4.1c0.6,5.1,1.5,12.2,0.5,15.6c-0.5,2-1.7,3.5-2.8,4.9
				c-1.3,1.7-2.4,3.2-2.7,5.5c-0.2,2.1,0.4,3.6,1,5c0.9,2,1.8,4.1-0.1,7.5c-0.6,1-1.6,1.9-2.7,2.8c-1,0.9-2.1,1.8-2.6,2.7
				c-0.5,0.8-0.9,2.3-1.2,3.6c-0.5,2-1.1,4-2.1,5.1c-1.3,1.4-3.4,2-5.5,2.6c-2.4,0.7-4.9,1.4-6.3,3.3c-1.8,2.5-3.2,7.7-4.2,12
				c-0.4,1.6-0.8,3-1.1,4.2c-0.4,1.2-0.5,2.4-0.7,3.7c-0.2,1.6-0.4,3.2-1,4.7c-0.6,1.5-1.4,2.4-2.2,3.3c-0.5,0.6-1.1,1.2-1.7,2.2
				c-3.3,5.2-5.5,12.5-5.2,13.7c0,0,0,0,0,0c0.3,0.5,2,1.4,3.3,2.1c1.4,0.7,2.8,1.4,3.7,2.2c1.6,1.3,0.9,4.6,0,8.6
				c-0.5,2.3-1,4.7-1.1,6.7c-0.1,1.6-0.1,3.3-0.1,4.9c0,2.7-0.1,5.4-0.4,8.5c-0.3,2.8,0.5,4.5,1.3,6.3c0.7,1.5,1.5,3.3,1.7,5.8
				c0.2,2,0.1,3.4,0.1,4.4c-0.1,2.3-0.1,2.4,3.5,4.5c1.1,0.6,2.7,1.1,4.3,1.7c3.1,1,6.3,2,7.9,4.2c1.6,2.1,1.6,5.7,1.7,9.2
				c0,1.7,0,3.3,0.3,4.5c0.5,2.6,1.6,4.5,2.9,6.5c1,1.6,2.1,3.3,2.7,5.4c0.6,1.8-0.1,3.6-0.8,5.3c-1,2.7-1.9,5,1.2,7.4
				c4.4,3.3,3.5,12.1,2.8,18.6c-0.1,1.3-0.3,2.6-0.3,3.5c-0.3,4.9,2.6,9.5,5.3,14c2,3.3,4,6.5,4.5,9.6c0.5,2.6,0.1,8.1-0.2,12.7
				c-0.4,5.4-2.4,6.8-4.8,8.4c-1,0.7-2.1,1.5-3.2,2.6c-1.2,1.2-1.7,2.8-2.3,4.4c-0.5,1.4-1,2.8-1.9,4.1c-2,2.8-4.3,4.1-6.7,5.6
				c-0.9,0.5-1.8,1-2.7,1.6c-1.9,1.3-4.4,4.5-6.5,7c-2.5,3.1-3.8,4.7-4.9,5.1c0,0,3.3-3.9,4.7-5.7c2.3-2.8,4-5.6,6.1-7
				c1-0.6,2.5-1.6,3.4-2.2c2.3-1.4,4.1-2.9,5.8-5.4c0.8-1.1,1.3-2.7,1.8-4c0.6-1.8,1.1-2.9,2.6-4.5c1.3-1.3,2.7-2.2,3.7-2.9
				c2.2-1.5,3.2-3.3,3.6-7.8c0.2-2.3,0.5-9,0-11.7c-0.5-2.7-2.1-6.2-4-9.4c-2.8-4.5-5.9-9.1-5.6-14.6c0.1-1,0.3-2.9,0.4-4.2
				c0.6-5.6,0.7-13.7-2.8-16.3c-4.3-3.3-2.9-7-1.8-9.7c0.6-1.5,1.1-2.9,0.8-4c-0.6-1.8-1.5-3.3-2.5-4.9c-1.3-2.1-2.7-4.3-3.2-7.2
				c-0.2-1.4-0.3-3.1-0.3-4.9c0-3-0.1-6.5-1.3-8c-1.3-1.6-4.1-2.6-6.9-3.5c-1.8-0.6-3.4-1.1-4.7-1.9c-4.3-2.5-4.7-3.3-4.5-6.3
				c0-1,0.1-2.3-0.1-4.1c-0.2-2.2-0.9-3.8-1.5-5.2c-0.9-2-1.8-4-1.5-7.3c0.3-3,0.3-5.7,0.4-8.4c0-1.7,0.1-3.3,0.1-5
				c0.1-2.2,0.7-4.6,1.2-7c0.5-2.3,1.4-6.1,0.7-6.7c-0.7-0.6-2-1.3-3.3-1.9c-1.9-1-3.6-1.8-4.2-2.9c-1.2-2.1,2.3-11.2,5.2-15.7
				c0.7-1.1,1.3-1.8,1.9-2.4c0.7-0.8,1.3-1.5,1.8-2.7c0.5-1.3,0.7-2.7,0.9-4.2c0.2-1.3,0.3-2.7,0.7-4c0.3-1.1,0.7-2.6,1.1-4.1
				c1.1-4.4,1.7-10.1,3.8-12.9c1.8-2.5,5.2-3.7,7.9-4.5c1.9-0.5,3.3-0.6,4.3-1.6c0.7-0.7,1.2-2.6,1.7-4.2c0.4-1.6,1-3.6,1.6-4.7
				c0.7-1.2,1.6-1.7,2.7-2.7c0.9-0.8,1.8-1.6,2.2-2.3c1.5-2.6,0.7-3.1-0.1-5c-0.7-1.5-1.3-3.4-1-6.1c0.3-2.8,1.5-5.3,2.9-7.1
				c1-1.4,2.1-2.6,2.5-4.2c0.8-3-0.1-9.1-0.7-14.1c-0.2-1.8-0.6-4.6-0.7-5.8L819.4,171.3z"/>
		</g>
		<g>
			<path class="st9" d="M737.4,214.7c-4.9,2-8.3,7.8-10.5,12.1c-2.7,5.1-4.1,6.9-9.4,6.5c-7-0.5-11.1,0.2-15.6,5.6
				c-1.6,2-1.7,3.3-1.8,4.9c-0.1,1.2-0.1,2.5-0.8,4.1c-1.5,4-2.7,4.5-5.3,3.9c-0.9-0.2-1.9-0.5-3.4-0.3c-1.8,0.2-3.1,0.7-3.8,1.6
				c-1.3,1.6-0.9,4.4-0.5,7.4c0.4,3.2,0.9,6.8-0.5,9.8c0,0,0.5-7.1-0.7-10.9c-1.1-3.3-0.8-5.1,1-7.4c1.1-1.3,4-2.2,8.1-1.5
				c1.5,0.3,2.6-0.1,3.8-3.1c0.5-1.4,0.6-3,0.7-4.1c0.1-1.8,0.4-3.3,2.5-5.8c5-6.1,9-6.9,16.4-6.3c3.9,0.3,4.7-0.3,7.3-5.3
				c2.3-4.5,6.1-10.8,11.6-13L737.4,214.7z"/>
		</g>
		<g>
			<path class="st9" d="M670.2,398.5c-6.5-0.5-11.4,1.2-14.6,5l-1.2,1.4c-2,2.4-3.6,4.4-7,5.9l-0.4,0.2c-3.8,1.7-8.5,3.9-12.1,5.8
				c-1.8,1-4.1,0.5-7.1-0.2c-2.8-0.6-6.3-1.4-10-1c0,0,4.7-0.9,9.4,0.2c2.4,0.6,5.8,1,7.4-0.1c3.4-2.4,7.6-4.4,11.4-6.1l1.5-0.5
				c3-1.4,3.4-3.2,5.3-5.6l1.2-1.4c3.7-4.3,13-6.1,17.5-6.8L670.2,398.5z"/>
		</g>
		<g>
			<path class="st9" d="M658.4,534.4c-2.4,6.3-9.5,7.2-15.8,8c-4,0.5-7.8,1-9.1,2.9c-1.5,2.1-2.1,8.4-2.5,12.9
				c-0.2,2.4-0.4,4.5-0.7,5.8c-1.7,7.9-9.5,19.3-16,25.7c0,0,13.1-13.2,14.5-26.2c0.1-1.2,0.6-5.5,0.8-7.8c0.5-5.3,0.4-9,2.2-11.5
				c1.8-2.6,6.1-3.1,10.6-3.7c6-0.8,12.1-1.6,14.1-6.7L658.4,534.4z"/>
		</g>
		<g>
			<path class="st9" d="M631.4,550c-3.5,3.4-7.9,4.9-11.6,6.4c-2,0.9-3.7,2-5.2,2.9l-0.3,0.2c-2.5,1.7-6.4,4.2-9.6,3.2
				c0,0,4.5,0,9.2-3.6c1.8-1.4,3.9-2.6,6-3.5c3.5-1.5,9.1-3.7,11.6-10L631.4,550z"/>
		</g>
		<g>
			<path class="st9" d="M655.2,295.2L655.2,295.2c0,0.1,0.1,0.6,0.2,0.9c0.3,1,0.6,2.3,0.1,3.9c-0.3,0.9-1,1.5-1.7,2.1
				c-0.6,0.5-1.2,1.1-1.4,1.7c-0.2,0.6-0.4,1.2-0.5,1.9c-0.2,0.8-0.4,1.7-0.7,2.6l0,0c-0.1,0.3,0.4,1.3,0.7,1.8
				c0.6,1.2,1.3,2.5,0.9,3.7c-0.2,0.5-0.2,1.2-0.1,1.9c0,0.9,0.1,1.9-0.3,2.9c-0.3,0.8-0.7,1.5-1,2.2c-0.3,0.7-0.7,1.3-0.9,2
				c-0.4,1.1-1.7,1.6-2.8,2.1c-0.7,0.3-1.7,0.7-1.8,1.1c-0.2,0.4,0.1,1.2,0.3,1.9c0.3,1.1,0.7,2.3,0.2,3.3c-0.4,0.9-1.3,1.6-2.1,2.2
				c-0.6,0.4-1.2,0.9-1.5,1.4c-0.2,0.4-0.1,1.2,0,1.9c0.2,1,0.3,2.2-0.1,3.1c-0.6,1.2-2.2,1.4-3.9,1.7c-0.7,0.1-2.1,0.3-2.3,0.6
				c0,0,0,0,0,0c-0.1,0.3,0.2,1.3,0.5,2c0.5,1.2,0.9,2.5,0.4,3.6c-0.4,0.8-0.9,1.5-1.3,2.2c-0.4,0.6-0.7,1.2-1.1,1.8
				c-0.4,0.8-0.9,1.5-1.4,2.2c-0.4,0.6-0.8,1.2-1.2,1.7c-0.3,0.5-0.5,1.2-0.7,1.9c-0.2,0.9-0.4,1.7-0.9,2.5c-0.7,1.1-2,1.3-3.4,1.6
				c-0.7,0.1-1.8,0.4-2,0.6c0,0,0,0,0,0c-0.1,0.4,0.4,1.6,0.7,2.3c0.7,1.6,1.3,3.1,0.6,4.2l-0.8,1.1c-0.7,0.9-1.8,1.5-2.5,2.3
				c-0.6,0.8-1.1,1.3-1.7,2c-0.5,0.5-0.9,1-1.3,1.5c-0.9,1.1-2.9,0.7-4.6,0.2c-2.7-0.7-4.4,1.8-4.8,2.2c-0.7,0.7-2.1,1.9-3,3.6
				c-0.6,1-1.6,2.2-1.7,3.4c0,1.5-0.3,2.9-0.6,4c0,0-0.5-4.7,1.1-6.6c0.9-1.1,1.3-2.4,2.5-3.6c0.7-0.6,1.3-1.5,1.9-2.2
				c0.4-0.4,0.7-0.8,1.2-1.3c0.9-0.9,2.4-0.5,4.1-0.1c3.1,0.8,3.8-1,4.3-1.5c0.6-0.6,1.2-1.3,1.7-1.9c0.7-0.9,1.4-1.9,2.1-2.5
				c0.7-0.6,1.9-2,0.2-4.1c-1.1-1.3-1.3-2.7-0.5-3.8c0.7-1,1.4-1.4,2.8-1.7c0.7-0.1,1.8-0.4,2-0.7c0.3-0.5,0.5-1.2,0.7-2
				c0.2-0.8,0.4-1.7,0.9-2.5c0.4-0.7,0.8-1.3,1.3-1.9c0.5-0.7,0.9-1.3,1.3-2c0.4-0.6,0.7-1.3,1.1-1.9c0.4-0.7,0.9-1.4,1.3-2.1
				c0.2-0.3-0.2-1.3-0.5-2c-0.4-1.2-0.9-2.5-0.4-3.5c0.6-1.2,2.2-1.4,3.9-1.7c0.8-0.1,2.1-0.3,2.3-0.6c0,0,0,0,0,0
				c0.2-0.4,0.1-1.2,0-2c-0.2-1-0.3-2.1,0.1-3.1c0.4-0.9,1.3-1.6,2.1-2.2c0.6-0.4,1.2-0.9,1.4-1.3c0.2-0.4-0.1-1.3-0.3-2
				c-0.3-1.1-0.7-2.2-0.2-3.2c0.5-1.1,1.7-1.6,2.9-2.1c0.6-0.3,1.6-0.7,1.7-1c0.3-0.7,0.7-1.4,1-2.1c0.4-0.7,0.7-1.4,1-2.1
				c0.2-0.6,0.2-1.3,0.2-2.1c0-0.9,0-1.8,0.3-2.7c0.1-0.4-0.4-1.4-0.8-2c-0.6-1.1-1.2-2.3-0.8-3.4c0.3-0.8,0.5-1.6,0.7-2.4
				c0.2-0.7,0.3-1.4,0.6-2c0.4-1.1,1.2-1.9,2-2.6c0.5-0.4,1-0.9,1.1-1.2c0.3-1,0.1-2-0.1-2.8c-0.2-0.7-0.3-1.2-0.2-1.8L655.2,295.2z
				"/>
		</g>
	</g>
	
		<linearGradient id="SVGID_10_" gradientUnits="userSpaceOnUse" x1="693.048" y1="1829.6744" x2="611.594" y2="2085.2996" gradientTransform="matrix(1 0 0 1 0 -1742)">
		<stop  offset="0" style="stop-color:#FFFFFF"/>
		<stop  offset="0.1153" style="stop-color:#D9DCDE"/>
		<stop  offset="0.2457" style="stop-color:#B5BCBF"/>
		<stop  offset="0.368" style="stop-color:#9BA4A8"/>
		<stop  offset="0.4779" style="stop-color:#8B969B"/>
		<stop  offset="0.5645" style="stop-color:#869196"/>
	</linearGradient>
	<path class="st10" d="M543.1,155.4c0,0-3.3-23.6,18.3-23.6s21.6,15.2,21.6,15.2s-10-59,44.9-70.8c54.8-11.8,76.5,47.2,76.5,47.2
		s44.9-23.6,99.7,33.8c0,0,33.2-8.4,48.2,13.5c0,0-10,11.8-31.6,11.8c-21.6,0-31.6,15.2-44.9,5.1c-13.3-10.1-56.5-10.1-56.5-10.1
		s-24.9,16.9-34.9,10.1h-66.5c0,0-21.6,15.2-29.9,0c0,0-23.3,10.1-28.3,0c0,0-78.1,8.4-81.4-6.8c0,0,3.3-21.9,15-15.2
		c0,0,6.6-20.2,19.9-18.6C526.5,148.6,543.1,155.4,543.1,155.4z"/>
	
		<linearGradient id="SVGID_11_" gradientUnits="userSpaceOnUse" x1="1222.9752" y1="1859.8293" x2="1120.6096" y2="2181.0808" gradientTransform="matrix(1 0 0 1 0 -1742)">
		<stop  offset="0" style="stop-color:#FFFFFF"/>
		<stop  offset="0.1153" style="stop-color:#D9DCDE"/>
		<stop  offset="0.2457" style="stop-color:#B5BCBF"/>
		<stop  offset="0.368" style="stop-color:#9BA4A8"/>
		<stop  offset="0.4779" style="stop-color:#8B969B"/>
		<stop  offset="0.5645" style="stop-color:#869196"/>
	</linearGradient>
	<path class="st11" d="M1034.5,202.9c0,0-4.2-29.7,23-29.7c27.2,0,27.2,19.1,27.2,19.1s-12.5-74.2,56.4-89.1s96.1,59.4,96.1,59.4
		s56.4-29.7,125.3,42.4c0,0,41.8-10.6,60.6,16.9c0,0-12.5,14.9-39.7,14.9c-27.2,0-39.7,19.1-56.4,6.4c-16.7-12.7-71-12.7-71-12.7
		s-31.3,21.2-43.9,12.7h-83.5c0,0-27.2,19.1-37.6,0c0,0-29.2,12.7-35.5,0c0,0-98.2,10.6-102.3-8.5c0,0,4.2-27.6,18.8-19.1
		c0,0,8.3-25.4,25.1-23.3C1013.6,194.4,1034.5,202.9,1034.5,202.9z"/>
</g>
</svg>
