<?xml version="1.0" encoding="utf-8"?>
<!-- Generator: Adobe Illustrator 23.0.2, SVG Export Plug-In . SVG Version: 6.00 Build 0)  -->
<svg version="1.1" xmlns="http://www.w3.org/2000/svg" xmlns:xlink="http://www.w3.org/1999/xlink" x="0px" y="0px"
	 viewBox="0 0 1450 612" style="enable-background:new 0 0 1450 612;" xml:space="preserve">
<style type="text/css">
	.st0{fill:url(#SVGID_1_);}
	.st1{opacity:0.28;}
	.st2{opacity:0.8;}
	.st3{opacity:0.8;fill:#2D2D2D;}
	.st4{opacity:0.8;fill:#878787;}
	.st5{opacity:0.8;fill:#B2B2B2;}
	.st6{opacity:0.8;fill:#DADADA;}
</style>
<g id="Lag_1">
	<g>
		<radialGradient id="SVGID_1_" cx="725" cy="306" r="556.4445" gradientUnits="userSpaceOnUse">
			<stop  offset="0" style="stop-color:#FFFFFF"/>
			<stop  offset="1" style="stop-color:#8C8C8C"/>
		</radialGradient>
		<rect class="st0" width="1450" height="612"/>
	</g>
</g>
<g id="Lag_2">
	<g class="st1">
		<g>
			<g>
				<g class="st2">
					<g class="st2">
						<path class="st3" d="M659.9-149.9c19.4-16.2,38.1-36.6,56.8-54.6c18.7-17.9,37.5-33.4,56.9-39.8c5.5-1.9,10.8,5.7,16.1,13.3
							c7.8,16,10.9,47.5,17.3,59.3c7.2,9.2,14.4,17.8,21.7,25.7c3.7,3.9,7.3,7.7,11,11.3c3.7,3.6,7.4,7.1,11.1,10.4
							c14.8,13.2,29.9,23.6,45.3,31.4c30.6,15.8,62.3,20.7,94.9,15.4c12.7-1,25.2-0.9,37.5,0.2c12.3,1.1,24.5,3,36.6,5.4
							c6,1.2,12,2.6,18,4c6,1.5,12,3.1,17.9,4.7c11.9,3.3,23.8,6.8,35.6,10.2c11.9,3.4,23.7,7,35.6,10c11.9,3.1,23.9,5.8,36.1,7.9
							c12.1,2.1,24.4,3.6,36.9,4.1c6.2,0.2,12.5,0.2,18.9,0c6.4-0.3,12.8-0.8,19.3-1.6c14.7-1.6,29.4-4.9,44.2-9.1
							c14.8-4.2,29.7-9.4,44.6-15c7.5-2.8,15-5.8,22.5-8.7c7.5-2.9,15-5.9,22.6-8.8c15.1-5.9,30.3-11.6,45.5-16.7
							c18.3-1.1,34.6,1.4,49.4,24c2.7,7.4,5.1,22.7,5.2,39.5c0.1,16.8-1.9,35.1-8.1,48.6c-12.5,27.1-27.1,52.4-39.9,68.4
							c-14.4,17.4-28.4,35.7-42.1,54.5c-13.8,18.8-27.3,38-40.7,57.1c-13.4,19.1-26.8,37.9-40.3,56.2c-13.5,18.3-27,35.8-40.8,52.1
							c-28.6,34.4-50.1,27.5-70.4,9.8c-10.1-8.9-19.9-20.2-30-30.3c-10.1-10.1-20.5-19-31.7-22.7c-22.3-4.5-44.2,3-66.1,13
							c-21.9,10.2-43.7,22.9-66.1,28.8c-11.2-3.4-20.3-30.7-23.5-63.7c-7.7-56.8,0.7-96.2-20.1-99c-13.9,2.1-27.6,13.3-41.4,24
							c-6.9,5.4-13.8,10.6-20.8,14.5c-7,3.9-14,6.5-21.2,6.6c-11.9-1.9-23.4-5.3-34.7-8.9c-11.3-3.5-22.4-7.1-33.6-9.5
							c-11.2-2.3-22.5-3.3-34.2-1.4c-11.7,1.9-23.7,6.6-36.3,15.6c-20,16.1-39.8,32.5-58.7,38.1c-9.4,2.8-18.6,2.8-27.5-1.1
							c-8.9-3.9-17.4-11.8-25.6-25.1c-26.4-41.6-41-129.4-63.1-191.5c-15.6-41.1-37-42.5-57-58.6c-4-3.1-6.7-21-10.8-33.5
							c25.3-70.3,61-92.6,90.6-74.9c4.1,3.2,5.3,16.8,7.9,25.2C640.7-124.5,650.3-142,659.9-149.9z"/>
						<path class="st4" d="M651.4-115.5c19.3-16.2,37.9-36.6,56.5-54.6c9.3-9,18.6-17.3,28-24.3c9.4-6.9,18.9-12.4,28.5-15.6
							c5.5-1.9,10.8,5.7,16,13.2c7.7,16,10.9,47.5,17.2,59.3C855-63.7,916-32.7,981-43.5c12.6-1,25-1,37.3-0.2
							c12.2,0.8,24.3,2.4,36.2,4.4c23.9,4,47.3,10.2,70.7,16c5.9,1.4,11.7,2.9,17.6,4.3c5.9,1.4,11.7,2.8,17.6,4.1
							c11.8,2.6,23.7,4.8,35.7,6.5c12,1.7,24.2,2.8,36.6,3.1c12.4,0.3,25-0.4,38-2.1c29.3-3.3,58.8-13.1,88.6-24.3
							c7.4-2.8,14.9-5.8,22.4-8.7c7.5-3,15-6,22.5-8.9c15-5.9,30.2-11.6,45.4-16.7c9.1-0.7,17.8-0.3,25.9,3
							c8.2,3.3,15.9,9.6,23.3,20.9c2.6,7.5,8.2,17.3,11.6,28.7c3.4,11.4,4.4,24.3-1.7,37.8c-12.4,27.1-27.1,52.3-39.9,68.4
							c-14.4,17.4-28.4,35.7-42.1,54.5c-13.8,18.8-27.3,38-40.7,57.1c-13.4,19.1-26.8,37.9-40.3,56.2c-13.5,18.3-27,35.8-40.8,52.1
							c-28.6,34.4-50.1,27.5-70.3,9.8c-10.1-8.9-19.9-20.2-30-30.3c-10.1-10.1-20.4-19-31.7-22.7c-22.3-4.5-44.2,3-66.1,13
							c-21.9,10.2-43.7,22.9-66,28.8c-11.2-3.5-20.3-30.8-23.5-63.8c-7.7-56.7,1-96.1-19.8-98.8c-13.9,2.1-27.6,13.3-41.4,24
							c-6.9,5.4-13.8,10.5-20.8,14.4c-7,3.9-14,6.5-21.2,6.5c-11.9-1.9-23.4-5.3-34.7-8.9c-11.3-3.5-22.4-7.1-33.6-9.4
							c-11.2-2.3-22.5-3.3-34.2-1.4c-11.7,1.9-23.7,6.7-36.3,15.7c-20,16.1-39.8,32.5-58.7,38c-9.4,2.8-18.6,2.8-27.5-1.1
							c-8.9-3.9-17.4-11.8-25.6-25.1c-26.4-41.6-41-129.4-63.1-191.5c-15.6-41.1-37-42.5-57-58.6c-4-3.2-6.7-20.9-10.7-33.6
							c12.7-35.1,25.9-50.5,39.6-54.9c6.8-2.2,13.8-1.7,20.9,0.5c7.1,2.2,14.3,6.1,21.7,10.5c4,3.2,5.2,16.8,7.9,25.2
							C632.2-90,641.8-107.5,651.4-115.5z"/>
						<path class="st5" d="M637-49.1c9.6-8.2,19-17.3,28.3-26.7c9.3-9.4,18.5-19,27.7-28c18.5-18.1,36.9-33.5,56.1-40
							c5.5-1.9,10.7,5.7,15.9,13.2c3.8,8,6.6,19.8,9.1,31.1c2.5,11.3,4.9,22.2,8.1,28.1c14.2,18.4,28.1,36.1,41.9,52
							c13.8,15.9,27.5,30.3,41.5,41.8c7,5.8,14,10.9,21.1,15.3c7.1,4.4,14.3,8,21.7,10.7c14.7,5.4,29.9,7.1,45.9,4.4
							c49.9-4.1,95,2.6,140.2,8.6c11.3,1.5,22.6,2.9,34.1,4.1c11.4,1.2,22.9,2.3,34.6,2.8c11.7,0.6,23.6,0.7,35.8,0.3
							c12.2-0.4,24.6-1.4,37.4-3.1c7.3-0.9,14.5-2.2,21.8-3.8c7.3-1.6,14.6-3.5,21.9-5.6c14.6-4.3,29.3-9.7,44-15.4
							c29.5-11.3,59.3-24.6,89.4-34.6c9-0.7,20.7-5.8,32-8c11.3-2.2,22.1-1.3,29.5,10c5.3,15,34.9,17.9,22.5,45
							c-12.4,27.1-27,52.3-39.7,68.4c-28.7,34.8-55.7,73.6-82.5,111.7c-26.7,38.1-53.2,75.8-80.7,108.4
							c-7.1,8.6-13.8,14.6-20.1,18.5c-6.3,3.9-12.3,5.8-18,5.9c-11.4,0.4-21.8-5.8-31.9-14.6c-10.1-8.8-19.8-20.1-29.8-30.3
							c-10-10.1-20.4-19-31.6-22.7c-22.2-4.4-44,3-65.8,13.2c-10.9,5.1-21.8,10.8-32.7,16c-10.9,5.2-21.9,9.8-33.1,12.9
							c-11.2-3.5-20.2-30.8-23.4-63.7c-3.8-28.4-3.1-51-4-66.8c-0.9-15.8-3.4-24.9-13.8-26.2c-13.8,2.1-27.5,13.3-41.2,24
							c-13.7,10.7-27.5,21-41.8,21.1c-11.9-1.9-23.3-5.3-34.5-8.9c-11.2-3.5-22.3-7.1-33.4-9.4c-22.3-4.7-45.1-3.7-70.2,14.3
							c-5,4-9.9,8.1-14.9,11.9c-4.9,3.9-9.9,7.7-14.7,11.1c-9.8,6.8-19.4,12.3-28.8,15.1c-18.8,5.5-36.5,0.5-52.8-26.1
							c-6.6-10.4-12.4-23.7-17.8-38.8c-5.4-15.1-10.4-31.8-15.2-49.3c-9.7-34.9-18.8-72.4-29.8-103.4c-3.9-10.3-8.1-18.1-12.6-24.2
							c-4.5-6.1-9.2-10.7-14.1-14.4c-9.8-7.5-20.1-11.8-30-19.8c-4-3.3-6.7-21-10.7-33.5c12.6-35.2,23.7-42.8,35.3-39.4
							c11.6,3.4,23.6,17.6,38.2,26.4c4,3.2,5.2,16.8,7.8,25.2C618-23.6,627.5-41.1,637-49.1z"/>
						<path class="st6" d="M631.1,69.1c14.8-12.8,25.3-38.1,38.1-62.3c6.4-12.1,13.3-23.9,21.5-33.7c8.2-9.8,17.8-17.7,29.4-21.6
							c5.4-1.8,10.6,5.7,15.7,13.2c7.6,16,10.8,47.4,17.1,59.1c14.1,18.3,27.8,36,41.5,51.9c13.7,15.9,27.3,30,41.1,41.6
							c13.8,11.6,27.8,20.5,42.3,25.7c14.5,5.3,29.5,7.1,45.4,4.2c6.2-0.6,12.1-0.9,18-1c5.8-0.1,11.5,0,17.1,0.3
							c11.1,0.6,21.7,1.8,31.9,3.5c10.2,1.7,20.1,3.9,29.8,6.3c9.7,2.4,19.2,4.9,28.7,7.4c9.5,2.5,19,5,28.8,7.1
							c9.7,2.2,19.6,4,29.9,5.3c10.3,1.2,21,2.1,32.2,2c11.3,0,23.1-0.9,35.7-2.7c57.1-7.3,103-18.1,162.1-39
							c4.5-0.4,11-4.6,18.7-10.4c7.6-5.8,16.3-13.2,24.9-19.7c17.2-13.1,34.1-23.2,41.5-12c1.3,3.7,6.4,2.6,13.2-0.7
							c6.8-3.3,15.2-8.8,23.2-13.9c15.8-10.2,29.6-18.9,23.4-5.4c-12.3,27.1-18.9,43-31.6,59.1c-28.6,34.8-53.9,70.6-78.9,105.7
							c-25,35-49.8,69.7-77.3,102.3c-7.1,8.6-13.8,14.6-20.2,18.5c-6.4,3.9-12.5,5.7-18.3,5.9c-11.7,0.4-22.4-5.8-32.7-14.6
							c-10.4-8.8-20.4-20.1-30.7-30.2c-10.3-10.1-20.8-19-32-22.6c-11.1-2.2-22.1-1.4-33.1,1.1c-11,2.6-21.8,6.9-32.7,12.1
							c-10.9,5.1-21.8,10.8-32.7,16c-10.9,5.2-21.9,9.8-33,12.9c-11.2-3.4-20.2-30.8-23.4-63.8c-3.8-28.4-5.6-33.2-9-31.3
							c-3.4,1.9-8.3,10.6-18.6,9.3c-13.7,2.1-24.9-3.8-36.2-10.2c-11.3-6.5-22.9-13.2-37.1-13.2c-11.9-1.8-23.3-5.3-34.5-8.8
							c-11.2-3.5-22.3-7.1-33.4-9.4c-22.3-4.7-45.1-3.6-70.2,14.3c-5,4-9.9,8.1-14.9,12c-4.9,3.9-9.9,7.7-14.7,11.1
							c-9.8,6.8-19.4,12.3-28.7,15.1c-4.7,1.4-9.3,2.1-13.9,2c-4.6-0.1-9-1-13.5-3c-8.8-3.9-17.3-11.8-25.5-25.1
							c-6.6-10.4-12.4-23.7-17.8-38.8c-5.4-15-10.4-31.8-15.2-49.3c-9.7-34.9-18.8-72.4-29.8-103.4c-7.8-20.6-17-31.2-26.8-38.6
							c-9.8-7.5-20.1-11.9-30-19.9c-4-3.2-6.7-20.9-10.7-33.5c12.6-35.1,21.7-35,31.2-23.8c9.5,11.1,19.5,33.2,34.1,41.9
							c4,3.2,6.1,41.1,8.6,49.4c-11.2-13-3-1.6,7.9,13C617.6,51.2,631.1,69.1,631.1,69.1z"/>
					</g>
				</g>
			</g>
		</g>
	</g>
	<g class="st1">
		<g>
			<g>
				<g class="st2">
					<g class="st2">
						<path class="st3" d="M-187,69.2c37.5-15.4,73.2-35.2,108.9-52.6C-42.5-0.6-6.9-15.5,30.5-21.2C41.2-22.9,52-15.2,62.8-7.4
							c16.4,16.3,24.8,48,38.3,60.1C116,62.2,131,71,146,79.2c15,8.1,30.2,15.6,45.4,22.5c30.5,13.7,61.3,24.7,92.4,33
							c31.1,8.3,62.5,14.1,94.1,17.1c31.6,3,63.4,3.5,95.4,1.3c25-0.6,49.7-0.1,74.3,1.3c24.5,1.4,48.9,3.7,73.1,6.4
							c12.1,1.4,24.2,2.9,36.2,4.5c12,1.6,24.1,3.4,36.1,5.2c24,3.6,48,7.5,72,11.2c24,3.7,48,7.6,72.1,10.9
							c24.1,3.4,48.3,6.4,72.6,8.8c24.4,2.4,48.9,4.2,73.7,4.9c24.8,0.8,49.8,0.6,75.2-0.8c28.8-1.3,57.3-4.3,85.7-8.3
							c28.4-4,56.7-8.9,85.1-14.3c14.2-2.7,28.3-5.5,42.5-8.4c14.2-2.8,28.4-5.7,42.6-8.5c28.5-5.7,57-11.2,85.8-16.1
							c35.6-0.9,67.9,1.9,101.9,24.9c6.8,7.6,14.9,23,19,40c4,17,4.1,35.4-5.2,49c-18.5,27.2-42.1,52.5-64,68.5
							c-24.8,17.4-48.8,35.6-72.3,54.3c-23.5,18.8-46.6,37.9-69.8,56.9c-23.1,19-46.3,37.7-69.9,55.9
							c-23.6,18.1-47.7,35.5-72.7,51.7c-51.7,34-97.4,26.5-142.2,8.1c-22.4-9.2-44.5-20.9-66.9-31.4c-22.4-10.5-45.1-19.7-68.7-23.7
							c-46.3-5.1-89.9,1.8-133.1,11.3c-43.3,9.6-86.2,21.7-131.4,26.9c-23.5-3.8-46.1-31.5-57-64.8c-23.4-57.4-11.4-96.8-53.9-100.1
							c-27.8,1.7-54.3,12.5-81.1,22.8c-13.4,5.2-26.9,10.2-40.6,13.9c-13.8,3.7-27.8,6.1-42.4,5.9c-24.5-2.3-48.2-6.1-71.6-10.1
							c-23.3-3.9-46.3-8-69.4-10.7c-23-2.7-46.2-4.1-69.8-2.6c-23.6,1.5-47.7,5.8-72.8,14.3c-39.5,15.4-79,31.1-117.2,35.9
							c-38.3,4.8-75.4-1-110.4-28.4c-56.4-42.8-90.2-131.4-137-194.5c-32.9-41.8-75.6-44.1-116-61.1c-8.1-3.3-13.9-21.3-22.3-34
							c48.7-69.3,117.8-90.1,177-71.3c8.1,3.4,11.1,17,16.6,25.6C-223.9,94-205.6,76.9-187,69.2z"/>
						<path class="st4" d="M-202.3,103.4c37.5-15.5,73.1-35.3,108.8-52.6C-57.9,33.5-22.3,18.7,15,12.9c10.7-1.7,21.5,6.1,32.3,13.8
							c16.3,16.3,24.8,48,38.3,60c118.6,75.9,244,109.1,371.8,100.2c25-0.6,49.6-0.3,74,0.9c24.4,1.2,48.5,3.1,72.5,5.5
							c48,4.7,95.3,11.5,142.6,18c11.8,1.6,23.7,3.2,35.6,4.8c11.9,1.6,23.7,3.1,35.7,4.6c23.8,2.9,47.7,5.5,71.9,7.4
							c24.1,1.9,48.5,3.4,73.1,3.9c24.6,0.6,49.6,0.2,74.9-1.2c57.5-2.7,114.1-11.9,170.7-22.7c28.3-5.4,56.6-11.4,85.1-17
							c28.4-5.7,57-11.2,85.8-16.1c17.8-0.5,34.8-0.1,51.5,3.4c16.8,3.5,33.3,9.9,50.3,21.5c13.6,15.1,52.6,40.2,34.1,67.4
							c-18.5,27.2-42.1,52.4-64,68.5c-24.8,17.3-48.8,35.6-72.3,54.3c-23.5,18.8-46.6,37.9-69.8,56.9c-23.1,19-46.3,37.7-69.9,55.9
							c-23.6,18.1-47.7,35.5-72.7,51.7c-51.7,34-97.4,26.4-142.1,8.1c-22.4-9.2-44.5-20.9-66.9-31.4c-22.4-10.5-45.1-19.7-68.7-23.7
							c-46.3-5.1-89.8,1.8-133.1,11.3c-43.3,9.6-86.2,21.7-131.4,27c-23.5-3.8-46.1-31.6-57-65c-23.3-57.3-10.8-96.6-53.3-100
							c-27.9,1.7-54.3,12.5-81.1,22.8c-13.4,5.2-26.9,10.1-40.6,13.8c-13.8,3.7-27.8,6.1-42.4,5.8c-24.5-2.3-48.2-6.1-71.6-10.1
							c-23.3-3.9-46.3-7.9-69.4-10.7c-23-2.7-46.2-4.1-69.8-2.6c-23.6,1.5-47.7,5.8-72.8,14.3c-39.5,15.4-79,31.1-117.2,35.8
							c-38.3,4.8-75.4-1-110.4-28.4c-56.5-42.8-90.2-131.4-137-194.5c-32.9-41.8-75.6-44.1-116-61c-8.1-3.4-13.9-21.2-22.2-34.1
							c24.4-34.6,50-49.4,76.9-53.3c13.5-1.9,27.3-1.1,41.4,1.4c14.1,2.5,28.6,6.7,43.4,11.3c8.1,3.4,11.1,17,16.6,25.5
							C-239.1,128.2-220.8,111.1-202.3,103.4z"/>
						<path class="st5" d="M-227.9,169.3c18.7-7.8,37-16.6,55-25.6c18-9,35.8-18.3,53.6-27c35.6-17.4,71.1-32.2,108.4-38
							c10.7-1.7,21.4,6.1,32.2,13.8c16.3,16.3,24.8,47.9,38.3,60c29.6,19,58.7,37.2,87.6,53.7c28.9,16.4,57.7,31.3,86.8,43.4
							c14.5,6.1,29.1,11.4,43.8,16c14.7,4.6,29.6,8.5,44.6,11.4c30,5.9,60.8,8.1,92.7,5.9c99.7-2.6,190.8,5.5,282.3,12.8
							c22.9,1.8,45.8,3.6,68.8,5.1c23.1,1.5,46.3,2.9,69.8,3.7c23.5,0.9,47.3,1.3,71.6,1.2c24.3-0.1,49-0.8,74.3-2.3
							c14.3-0.7,28.6-1.9,42.9-3.3c14.2-1.4,28.4-3.2,42.6-5.2c28.3-4,56.6-9.1,84.8-14.5c56.5-10.8,113-23.6,170.5-33.3
							c17.8-0.5,39.7-5.5,61.5-7.6c21.8-2,43.4-0.9,60.3,10.6c13.6,15.2,72.8,18.6,54.3,45.9c-18.5,27.2-42.1,52.4-63.9,68.5
							c-49.7,34.6-95.8,73.3-142,111.3c-46.2,37.9-92.5,75.4-142.4,107.6c-25.8,17-50.1,23.6-73.6,23.7
							c-23.5,0.1-46.1-6.4-68.4-15.6c-44.7-18.2-88.3-47-135.5-55.1c-46.3-5.1-89.8,1.8-133,11.4c-21.6,4.8-43.1,10.2-64.9,15.1
							c-21.8,4.9-43.8,9.2-66.3,11.9c-23.6-3.9-46-31.6-57-64.9c-23.3-57.4-6.1-90.7-48.5-94.1c-55.6,3.3-105.7,43.3-163.9,42.6
							c-24.5-2.3-48.2-6.2-71.5-10.1c-23.3-3.9-46.3-8-69.3-10.7c-46-5.5-92.4-5.4-142.4,11.7c-9.9,3.9-19.7,7.7-29.6,11.4
							c-9.8,3.7-19.7,7.3-29.4,10.5c-19.6,6.4-39,11.5-58.1,14c-38.2,4.8-75.3-1-110.3-28.3c-14.1-10.7-26.8-24.3-38.6-39.6
							c-11.8-15.3-22.8-32.3-33.5-50c-21.3-35.4-41.5-73.3-64.8-104.8c-16.4-20.9-35.3-31.9-55.2-39.8
							c-19.8-7.9-40.6-12.7-60.8-21.1c-8.1-3.5-13.9-21.3-22.2-34c24.4-34.7,46.2-41.8,69.3-38c23.1,3.9,47.5,18.6,77,28
							c8.1,3.4,11.1,17,16.6,25.5C-264.6,194.1-246.3,177-227.9,169.3z"/>
						<path class="st6" d="M-234.2,287.5c29.2-12.2,49.3-37.2,73.5-60.9c24.2-23.7,52.6-46.3,98.5-53.5c10.6-1.6,21.4,6.1,32.2,13.8
							c16.3,16.3,24.8,47.9,38.3,59.9c29.6,18.9,58.6,37.1,87.4,53.6c28.9,16.5,57.6,31.1,86.6,43.3c29,12.1,58.3,21.5,88.2,27.3
							c30,5.8,60.6,8.1,92.4,5.8c99.4-2.8,177.7,9.4,256.3,20.6c78.6,11.2,157.4,21.5,258.3,15.4c114.4-5.9,205.2-15.6,319.6-35.4
							c17.7-0.6,49.6-16.6,81.4-29.5c31.7-12.9,63.4-22.8,80.3-11.3c3.4,3.8,13.4,2.8,26.2-0.5c12.8-3.2,28.5-8.6,43.1-13.7
							c29.3-10.1,54.6-18.6,45.4-5c-18.5,27.2-28.1,43.1-50,59.2c-49.6,34.6-92.9,70.3-136.2,105.2
							c-43.3,34.8-86.8,69.3-136.8,101.5c-25.8,17-50.5,23.6-74.4,23.7c-23.9,0-47.2-6.5-70.1-15.6c-23-9.1-45.7-20.9-68.6-31.3
							c-22.9-10.5-45.9-19.7-69.5-23.7c-23.1-2.6-45.6-2.1-67.6,0.2c-22.1,2.3-43.7,6.3-65.3,11.2c-21.6,4.8-43.1,10.2-64.9,15.1
							c-10.9,2.4-21.8,4.7-32.9,6.8c-11,2-22.2,3.8-33.5,5.1c-23.6-3.8-46-31.6-57-65c-23.3-57.3-17.1-19.7-59.4-23
							c-27.8,1.7-51.4-4.6-75.4-11.4c-24-6.9-48.4-14.1-77.5-14.5c-24.5-2.2-48.2-6.1-71.5-10.1c-23.3-3.9-46.3-7.9-69.3-10.6
							c-46-5.5-92.4-5.3-142.4,11.7c-79,31-157.5,62.2-227.4,7.6c-14.1-10.7-26.8-24.3-38.6-39.6c-11.8-15.3-22.8-32.3-33.5-50
							c-21.3-35.4-41.5-73.3-64.8-104.9c-32.9-41.8-75.6-44.1-116-61c-8-3.4-13.9-21.2-22.2-34c48.7-69.3,72.1,2.3,131,20.8
							c8.1,3.4,13.7,41.4,19.1,49.9c-22.9-13.4-6.1-1.7,16.3,13.4C-262.3,269.1-234.2,287.5-234.2,287.5z"/>
					</g>
				</g>
			</g>
		</g>
	</g>
	<g class="st1">
		<g>
			<g>
				<g class="st2">
					<g class="st2">
						<path class="st3" d="M-123.5,555.8c27.2-27,51.4-57.6,76.8-85.8c25.5-27.8,52-53.5,83.2-71.2c4.5-2.5,9.7-2.9,15.5-2.1
							c5.7,0.9,11.8,2.8,17.9,4.8c20,10.2,38,37.4,53.9,44.6c32.5,8.6,64.3,14.4,95.6,18.4c31.3,3.8,61.8,4.9,91.8,3.5
							c30.1-1,59.5-4.7,88.3-11c7.2-1.6,14.4-3.3,21.5-5.2c7.2-1.8,14.3-3.7,21.3-5.8c14.2-4.2,28.2-9.1,42-14.6
							c11-3.8,22-7.3,33-10.5c2.8-0.8,5.5-1.6,8.3-2.4c2.8-0.8,5.5-1.5,8.3-2.2c5.5-1.4,11.1-2.8,16.7-4.1
							c22.2-5.2,44.5-9.6,66.8-13.4c5.6-1,11.2-1.9,16.7-2.8l8.4-1.3l8.4-1.1c11.2-1.5,22.4-2.9,33.6-4.3
							c22.4-2.7,44.8-5.1,67.2-7.7c5.6-0.7,11.2-1.2,16.8-1.7c5.6-0.6,11.2-1.1,16.8-1.7c11.2-1.2,22.4-2.4,33.6-3.7
							s22.4-2.7,33.6-4.3c5.6-0.8,11.2-1.6,16.8-2.4c5.6-0.8,11.2-1.6,16.8-2.4c22.4-3.4,44.8-7.4,67.2-12.5
							c11.2-2.5,22.4-5.4,33.6-8.4c11.2-2.9,22.5-6.1,33.7-9.6c25.6-7.7,50.6-17,75.3-27.3c24.8-9.9,49.3-20.8,73.8-32.1
							c12.2-5.7,24.5-11.5,36.7-17.3c12.3-5.7,24.6-11.3,36.9-17c24.7-11.3,49.6-22.6,74.9-33.2c32.4-7.7,62.5-11.3,98,4.8
							c7.7,6.1,18,19.7,24.9,35.5c6.8,15.9,10.3,34,4.6,49.1c-11.7,30.3-28,59.6-44.6,79.5c-18.9,21.8-36.8,44.3-54,67.1
							c-17.2,23.1-33.8,46.5-50.4,69.6c-8.3,11.6-16.5,23.1-24.8,34.6c-4.1,5.7-8.3,11.4-12.5,17.1c-4.2,5.6-8.4,11.3-12.6,17
							c-16.9,22.7-34.1,44.7-52.4,65.6c-9.4,11-19,19.4-28.8,25.6c-4.9,3.1-9.9,5.6-14.8,7.8c-5,2.2-10,3.9-15.1,5.2
							c-20.3,5.2-41.3,3.8-62.7-0.2c-10.7-2-21.6-4.7-32.4-7.5c-10.9-2.7-21.8-5.5-32.7-8c-21.9-5-43.8-8.8-65.2-7.3
							c-5.2,0.7-10.3,1.6-15.3,2.6c-5,1.1-9.9,2.3-14.8,3.7c-9.7,2.8-19.2,6.1-28.4,9.9c-18.5,7.5-36.2,16.6-53.6,26.4l-6.5,3.7
							l-6.5,3.8c-4.3,2.6-8.6,5.2-12.9,7.7c-8.6,5.2-17.2,10.4-25.9,15.4c-17.4,10.1-35,19.8-53.6,27.9c-21,2.4-47.8-18.4-66.4-47.5
							c-18-24.5-27.2-47-36.6-62.3c-9.4-15.4-19-23.6-37.9-19.7c-23.6,9.1-43.4,26.8-63.4,44c-10,8.6-20.1,17-30.9,24.3
							c-5.4,3.6-10.9,7.1-16.6,10c-5.7,3-11.7,5.5-17.9,7.5c-21.6,4.8-43.1,7.8-64.3,10.6c-2.6,0.3-5.3,0.7-7.9,1
							c-2.6,0.3-5.3,0.7-7.9,1.1c-5.2,0.8-10.5,1.6-15.7,2.4c-10.4,1.6-20.7,3.4-31,5.5c-10.2,2.1-20.4,4.5-30.5,7.4
							c-5,1.5-10,3.1-15,4.8c-5,1.8-9.9,3.6-14.8,5.8c-19.6,8.6-38.6,20-57,35.7c-7.1,6.6-14.2,13.3-21.3,19.8
							c-3.5,3.2-7.1,6.4-10.7,9.6c-3.6,3.2-7.1,6.3-10.7,9.4c-14.3,12.2-28.9,23.1-44.1,31.4c-7.6,4.1-15.4,7.6-23.4,10.2
							c-4,1.3-8,2.4-12.1,3.3c-2.1,0.4-4.1,0.8-6.2,1.2c-2.1,0.4-4.2,0.7-6.3,0.9c-16.9,2-34.8,0-54.2-7.1
							c-15.6-5.4-31-14-46.4-24.4c-7.7-5.2-15.4-10.9-23.1-17c-7.7-5.9-15.3-12.2-23-18.7c-30.7-25.8-61.6-54.2-93.1-75.6
							c-10.9-6.9-21.4-11.3-31.6-14c-2.6-0.7-5.1-1.3-7.7-1.8c-2.5-0.5-5.1-0.8-7.6-1.1c-5-0.6-10-0.9-15-0.9
							c-19.9-0.3-39.4,2.6-59.8,1.9c-8.2-0.2-20-14.7-32.1-23.5c7.6-40.7,24.5-72.1,46.7-93.8c5.6-5.4,11.5-10.3,17.6-14.5
							c6.2-4.2,12.7-7.6,19.4-10.5c13.4-5.8,27.6-9.1,42.2-9.8c8.3,0.3,15.8,12,23.8,18C-146.6,591.5-136.9,569.1-123.5,555.8z"/>
						<path class="st4" d="M-124.5,592.9c27-27,51.1-57.5,76.2-85.7c3.1-3.5,6.3-7.1,9.5-10.5c3.2-3.4,6.4-6.7,9.7-10
							c6.5-6.6,13.1-12.9,20-19c13.6-12.1,28-22.9,43.5-31.7c4.4-2.5,9.7-2.9,15.4-2.1c5.7,0.8,11.7,2.6,17.8,4.6
							c19.9,10.2,37.9,37.4,53.8,44.6c16.2,4.3,32.2,8,48.1,11c7.9,1.5,15.8,2.8,23.6,4c3.9,0.6,7.8,1.1,11.8,1.7
							c3.9,0.6,7.8,1.1,11.7,1.5c31.1,3.8,61.6,5,91.4,3.5c3.7-0.2,7.4-0.4,11.2-0.6c3.7-0.2,7.4-0.5,11.1-0.7
							c7.4-0.6,14.8-1.3,22.1-2.2c14.7-1.8,29.1-4.3,43.5-7.4c7.2-1.6,14.3-3.3,21.4-5.2c3.5-0.9,7.1-1.9,10.6-3
							c3.5-1,7.1-2,10.6-3.1c14.1-4.2,28-9,41.8-14.5c10.9-3.8,21.9-7.3,32.8-10.6c5.5-1.6,10.9-3.2,16.4-4.8
							c2.7-0.8,5.5-1.5,8.2-2.3c2.7-0.7,5.5-1.4,8.2-2.1c21.9-5.4,43.9-10,65.8-14.1c11-2.1,21.9-4,32.9-5.8c5.5-1,11-1.7,16.5-2.5
							c5.5-0.8,11-1.6,16.5-2.4c21.9-3.1,43.9-6,65.8-8.9c5.5-0.7,11-1.5,16.4-2.2c5.5-0.8,11-1.4,16.5-2.1c11-1.4,22-2.8,32.9-4.3
							c22-3,43.9-6.4,65.9-10.5c22.1-3.7,44.2-8,66.3-13.3c11.1-2.6,22.2-5.5,33.3-8.6c5.6-1.5,11.1-3.2,16.7-4.8
							c5.6-1.6,11.2-3.3,16.8-5.1c25.5-7.7,50.4-17,75-27.3c6.2-2.5,12.3-5.2,18.4-7.8c6.1-2.6,12.3-5.2,18.4-7.9
							c12.2-5.4,24.4-10.9,36.6-16.6c12.2-5.7,24.4-11.5,36.6-17.3c6.1-2.9,12.2-5.9,18.3-8.7c6.1-2.8,12.3-5.7,18.4-8.5
							c24.6-11.3,49.4-22.6,74.6-33.2c16.1-4.2,31.7-6.9,47.6-6.8c16,0.2,32.3,3.3,50,11.3c7.6,6.1,21.5,13.4,32,23
							c10.5,9.6,17.5,21.5,11.8,36.5c-11.7,30.2-28,59.5-44.6,79.4c-18.9,21.8-36.8,44.2-54,67.1c-17.2,23.1-33.8,46.5-50.3,69.6
							c-8.3,11.6-16.5,23.1-24.8,34.6c-4.1,5.7-8.3,11.4-12.5,17.1c-4.2,5.6-8.4,11.3-12.6,17c-16.9,22.7-34.1,44.7-52.4,65.6
							c-9.4,11-19,19.4-28.8,25.6c-4.9,3.1-9.8,5.6-14.8,7.8c-5,2.2-10,3.9-15.1,5.2c-20.3,5.2-41.3,3.8-62.7-0.2
							c-10.7-2-21.5-4.7-32.4-7.5c-10.9-2.7-21.8-5.5-32.7-8c-21.9-5-43.8-8.8-65.2-7.3c-5.2,0.7-10.3,1.5-15.3,2.6
							c-5,1.1-9.9,2.3-14.8,3.7c-9.7,2.8-19.1,6.1-28.4,9.8c-18.5,7.5-36.1,16.6-53.5,26.4l-6.5,3.7l-6.5,3.8
							c-4.3,2.6-8.6,5.2-12.9,7.7c-8.6,5.2-17.2,10.4-25.9,15.4c-17.4,10.1-35,19.8-53.6,27.9c-21.1,2.4-47.8-18.5-66.5-47.6
							c-17.9-24.5-27-47-36.3-62.3c-9.3-15.4-18.8-23.6-37.6-19.7c-23.6,9.1-43.4,26.8-63.4,43.9c-10,8.6-20.1,17-30.8,24.3
							c-5.4,3.6-10.9,7.1-16.6,10c-5.7,3-11.7,5.5-17.9,7.5c-21.6,4.8-43.1,7.8-64.2,10.6c-5.3,0.7-10.6,1.3-15.8,2.1
							c-5.2,0.8-10.5,1.6-15.7,2.4c-10.4,1.6-20.7,3.4-31,5.5c-10.2,2.1-20.4,4.5-30.5,7.5c-5,1.5-10,3.1-15,4.8
							c-5,1.8-9.9,3.6-14.8,5.8c-19.6,8.6-38.6,20-57,35.7c-7.1,6.6-14.2,13.3-21.3,19.8c-3.5,3.2-7.1,6.4-10.7,9.6
							c-3.6,3.2-7.1,6.3-10.7,9.4c-14.3,12.2-28.8,23.1-44.1,31.3c-7.6,4.1-15.4,7.6-23.4,10.2c-4,1.3-8,2.4-12.1,3.3
							c-2.1,0.4-4.1,0.8-6.2,1.2c-2.1,0.4-4.2,0.7-6.3,0.9c-16.8,2-34.8,0-54.2-7.1c-15.6-5.4-31-14-46.4-24.5
							c-7.7-5.2-15.4-10.9-23.1-17c-7.7-6-15.3-12.2-23-18.7c-30.7-25.8-61.6-54.3-93.1-75.6c-10.9-6.9-21.4-11.3-31.6-14
							c-2.6-0.7-5.1-1.3-7.7-1.8c-2.5-0.5-5.1-0.8-7.6-1.1c-5-0.6-10-0.9-15-0.9c-19.9-0.3-39.4,2.6-59.8,1.9
							c-8.1-0.3-20-14.7-32-23.6c7.6-40.7,24.1-63.6,45.9-76.8c5.4-3.3,11.2-6,17.3-8.2c3-1.1,6.1-2.1,9.3-3
							c3.2-0.9,6.4-1.6,9.7-2.2c13.2-2.6,27.2-3.7,41.8-4.5c8.2,0.3,15.8,12,23.7,18c10.2,1.9,17.7-2.7,24.2-9.5
							C-136.8,608.6-131.1,599.5-124.5,592.9z"/>
						<path class="st5" d="M-122.8,663.1c13.2-13.8,25.8-28,38.2-42.4c12.4-14.5,24.5-29.1,36.9-43.2c24.7-28.4,50.8-53.6,81.5-71.2
							c8.8-5,20.9-1.2,32.9,2.5c19.7,10,37.8,37.2,53.6,44.4c32.2,8.7,63.4,16.8,93.9,23.4c7.6,1.6,15.2,3.3,22.7,4.9
							c7.5,1.5,15,3,22.5,4.3c14.9,2.6,29.6,4.7,44.1,6.1c7.3,0.7,14.5,1.3,21.6,1.6c3.6,0.2,7.2,0.3,10.7,0.4
							c3.6,0.1,7.1,0.1,10.7,0.2c14.2,0.2,28.3-0.4,42.3-1.9c13.9-1.5,27.8-3.9,41.5-7.4c6.9-1.7,13.7-3.7,20.5-6
							c6.8-2.2,13.6-4.6,20.4-7.4c21.6-7.5,42.9-14.2,64-20.3c5.3-1.5,10.5-3,15.8-4.5c5.2-1.5,10.5-2.9,15.7-4.2
							c10.5-2.7,20.9-5.2,31.4-7.7c20.8-4.9,41.5-9.5,62.1-13.9c10.3-2.3,20.6-4.2,30.9-6.3c10.3-2,20.6-4,30.9-6.1
							c20.6-4,41.2-8.2,61.9-12.6c20.7-4.1,41.6-8.5,62.6-13.4c10.5-2.4,21-5,31.6-7.7c5.3-1.3,10.6-2.8,15.9-4.1
							c5.3-1.3,10.7-2.7,16.1-4.2c21.5-5.7,43.2-12.2,65.3-19.5c25.1-8.3,49.7-17.3,74.1-27.5c12.2-5.1,24.3-10.5,36.3-16
							c12.1-5.5,24.1-11.3,36.1-16.9c48.2-22.5,96.2-47.3,146.1-68.1c15.9-4.1,34.7-13.5,54-19.9c2.4-0.8,4.8-1.6,7.2-2.2
							c2.4-0.7,4.9-1.2,7.3-1.8c4.8-1,9.7-1.7,14.5-2c9.6-0.5,18.9,0.7,27.7,4.7c15.3,12.3,69.5,4.3,57.9,34.5
							c-11.5,30.2-27.9,59.5-44.2,79.4c-9.4,10.9-18.6,21.9-27.5,33.1c-4.5,5.6-8.9,11.2-13.2,16.9c-4.4,5.7-8.7,11.5-12.9,17.2
							c-17.1,23.1-33.6,46.4-50,69.6c-8.2,11.6-16.4,23.1-24.6,34.6c-4.1,5.7-8.2,11.4-12.4,17.1c-4.1,5.7-8.3,11.4-12.5,17.1
							c-16.7,22.6-33.9,44.7-52,65.6c-9.3,11-18.9,19.3-28.6,25.6c-9.7,6.4-19.6,10.6-29.7,13.2c-20.2,5.2-41.1,3.8-62.5-0.3
							c-5.3-1-10.7-2.2-16.1-3.5c-5.4-1.3-10.8-2.5-16.2-3.9c-10.8-2.7-21.7-5.5-32.6-8.1c-21.8-5.1-43.6-8.8-65-7.3
							c-20.5,3-39.7,8.9-58.1,16.3c-9.2,3.7-18.2,7.9-27,12.3c-4.4,2.2-8.8,4.5-13.2,6.8c-4.4,2.3-8.7,4.7-13,7.2
							c-17.2,10-34.2,20.6-51.5,30.7c-8.6,5.1-17.3,10-26.2,14.7c-8.9,4.7-17.9,9.1-27.1,13.3c-21,2.4-47.7-18.5-66.3-47.6
							c-17.9-24.5-25.6-45.9-33.5-60.1c-3.9-7.1-7.9-12.5-13.2-15.6c-2.7-1.5-5.7-2.5-9.2-2.9c-3.5-0.3-7.5-0.1-12.2,1
							c-23.5,9.1-43.1,26.7-63,43.9c-10,8.6-20,17-30.6,24.3c-10.6,7.4-21.9,13.6-34.3,17.5c-21.5,4.7-42.8,7.7-63.9,10.5
							c-5.3,0.7-10.5,1.5-15.7,2.2c-5.2,0.8-10.4,1.6-15.6,2.4c-10.4,1.6-20.6,3.4-30.8,5.5c-10.2,2.1-20.3,4.5-30.3,7.4
							c-5,1.5-10,3-14.9,4.8c-2.5,0.9-4.9,1.8-7.4,2.8c-2.4,1-4.9,2-7.3,3.1c-19.4,8.6-38.4,19.9-56.7,35.6
							c-7,6.6-14.1,13.2-21.1,19.7c-3.5,3.2-7,6.4-10.6,9.6c-3.5,3.2-7,6.3-10.6,9.4c-14.2,12.2-28.7,23-43.8,31.3
							c-7.6,4.1-15.3,7.6-23.2,10.2c-4,1.3-8,2.4-12.1,3.3c-4.1,1-8.2,1.7-12.4,2.2c-16.8,1.9-34.6,0-54-7.2
							c-15.5-5.4-30.9-14-46.3-24.5c-3.8-2.6-7.7-5.4-11.5-8.2c-3.8-2.8-7.7-5.7-11.5-8.7c-7.6-6-15.3-12.2-23-18.7
							c-30.6-25.8-61.4-54.3-92.9-75.6c-10.8-6.9-21.3-11.4-31.5-14.1c-10.2-2.6-20.2-3.6-30-3.8c-19.8-0.3-39.2,2.5-59.6,1.9
							c-8.2-0.3-19.9-14.8-31.9-23.6c7.5-40.6,23.5-55.1,44.8-59.7c21.3-4.6,47.6,0.3,76.5-1c8.2,0.4,15.8,12,23.6,18
							C-145.2,698.8-135.8,676.6-122.8,663.1z"/>
						<path class="st6" d="M-85.4,775.4c5.1-5.3,9.4-11.2,13.2-17.5c3.8-6.2,7.1-12.9,10.2-19.8c6.1-13.9,11.2-28.9,17.4-44
							c6.2-15.1,13.4-30.3,23.7-44.5c5.2-7.1,11.1-13.9,18-20.4C0.6,626,4.3,623,8.4,620c4-2.9,8.4-5.8,13-8.4
							c8.6-5,20.6-1.2,32.6,2.6c19.6,10.1,37.7,37.1,53.3,44.1c7.9,2.1,15.8,4.1,23.7,6.2c7.9,2.1,15.7,4.2,23.4,6.2
							c15.5,4,30.8,7.7,45.9,11.1c15.1,3.3,29.9,6.3,44.6,8.7l11,1.7c3.7,0.6,7.3,1.1,10.9,1.7c7.3,1,14.5,1.9,21.7,2.7
							c28.7,2.9,56.7,3.2,84.2,0c27.6-2.9,54.6-9.5,81.2-20.7c5.3-1.9,10.5-3.8,15.7-5.6c2.6-0.9,5.2-1.8,7.7-2.6
							c2.6-0.8,5.1-1.6,7.7-2.4c10.2-3.1,20.3-6,30.1-8.6c19.7-5.3,38.8-9.6,57.5-13.4c4.7-0.9,9.3-1.9,13.9-2.7
							c4.6-0.8,9.2-1.6,13.8-2.3c9.2-1.5,18.2-2.9,27.2-4.2c18-2.7,35.8-5.1,53.6-7.5c4.4-0.6,8.9-1.2,13.3-1.9
							c4.5-0.6,8.9-1.1,13.4-1.7c8.9-1.2,17.9-2.4,26.9-3.7c18-2.7,36.3-5.7,55-9.5c4.7-0.9,9.4-2,14.1-3c4.8-1,9.5-2,14.4-3
							c9.7-2.1,19.5-4.5,29.4-7.1c20-5.2,40.6-11.5,62.3-19.1c24.7-8,48-15.9,70.6-24c11.3-4,22.5-8.1,33.5-12.3
							c11.1-4.1,22.1-8.1,33-12.3c21.9-8.4,43.8-17.2,66.2-26.8c11.2-4.9,22.6-9.5,34.2-14.5c11.6-5,23.5-10.2,35.6-15.6
							c7.8-2.2,17.9-8.8,29.3-17.4c5.7-4.3,11.7-9,17.8-13.9c6.2-4.8,12.6-9.7,19-14.5c25.6-19,51.9-35,69.4-27.2
							c3.8,3,12.6,0,23.4-5.8c10.9-5.6,23.8-13.9,36-21.6c24.4-15.5,45.5-28.7,39.8-13.6c-11.4,30.2-17,47.7-33.4,67.6
							c-9.4,10.9-18.4,21.7-27,32.5c-2.2,2.7-4.3,5.4-6.5,8.1c-2.1,2.7-4.2,5.5-6.3,8.2c-4.2,5.5-8.3,10.9-12.4,16.3
							c-16.3,21.7-31.8,43.3-47.3,64.7c-31,42.5-61.6,85.5-97.9,127.3c-9.3,11-18.9,19.4-28.8,25.6c-9.8,6.4-19.9,10.7-30.2,13.3
							c-20.6,5.3-42.1,4-64,0.1c-5.5-1-11-2.1-16.5-3.4c-5.5-1.2-11-2.4-16.6-3.7c-11.1-2.6-22.2-5.4-33.3-7.9
							c-22.2-4.9-44.3-8.6-65.6-7.1c-20.5,3.1-39.7,8.9-58.1,16.3c-9.2,3.7-18.2,7.9-27,12.3c-8.8,4.4-17.6,9.1-26.2,14.1
							c-17.2,10-34.2,20.6-51.4,30.7c-8.6,5.1-17.3,10-26.2,14.7c-4.4,2.3-8.9,4.6-13.4,6.8c-4.5,2.3-9,4.5-13.6,6.6
							c-21,2.5-47.7-18.5-66.4-47.6c-18-24.5-23-28.1-28.2-24.6c-5.2,3.5-10.5,13.9-29,18.1c-23.2,9.1-45.2,9.5-67.6,9.5
							c-5.6,0-11.3,0-17,0c-2.9,0-5.7,0.1-8.6,0.2c-2.9,0.1-5.8,0.3-8.7,0.6c-11.6,1-23.6,2.9-36,6.8c-21.5,4.7-42.8,7.7-63.9,10.5
							c-21,3.1-41.7,6-62.1,10.2c-10.2,2.1-20.3,4.5-30.3,7.4c-5,1.5-10,3-14.9,4.8c-4.9,1.8-9.8,3.8-14.7,5.9
							c-19.4,8.6-38.4,19.9-56.6,35.5c-7,6.6-14,13.2-21.1,19.7c-7,6.5-14,13-21.1,19.1c-14.2,12.2-28.6,23-43.7,31.2
							c-7.6,4.1-15.3,7.6-23.2,10.2c-2,0.7-4,1.3-6,1.8c-2,0.6-4,1.1-6.1,1.6c-4.1,1-8.2,1.7-12.4,2.2c-16.8,1.9-34.6,0-54-7.2
							c-15.5-5.5-30.9-14-46.3-24.5c-7.7-5.3-15.3-10.8-23-16.8c-7.7-6-15.3-12.2-23-18.7c-30.7-25.8-61.5-54.3-92.9-75.7
							c-5.4-3.5-10.7-6.3-16-8.6c-2.6-1.2-5.2-2.2-7.8-3.1c-2.6-0.9-5.1-1.6-7.7-2.3c-10.2-2.6-20.2-3.6-30-3.8
							c-19.8-0.3-39.2,2.5-59.6,1.8c-8.1-0.3-19.9-14.7-31.9-23.6c7.4-40.6,23.2-46.5,44-42.7c10.4,1.9,22.2,6.3,34.8,9.9
							c6.3,1.8,12.9,3.5,19.7,4.5c3.4,0.5,6.8,0.9,10.3,1.1c3.5,0.3,7,0.3,10.6,0.1c8.2,0.4,27,33.7,34.7,39.8
							c-24.4-4.7-5.8,0.5,18.8,6.9C-115.9,767.8-85.4,775.4-85.4,775.4z"/>
					</g>
				</g>
			</g>
		</g>
	</g>
	<g class="st1">
		<g>
			<g>
				<g class="st2">
					<g class="st2">
						<path class="st3" d="M1351.5,602.1c-15.6,8.5-30.9,18.1-45.8,27.8c-15,9.7-29.9,19.7-44.7,29c-14.8,9.3-29.7,18-44.8,25.2
							c-7.5,3.6-15.1,6.9-22.8,9.6c-7.7,2.8-15.4,5.1-23.2,6.8c-9,2-18.3-5.4-27.5-12.8c-14.1-15.8-21.9-47.1-33.4-58.7
							c-50.4-36.1-101.7-61.4-153.6-75.9c-51.9-14.5-104.4-18.2-157.2-11.1c-82.6,6.7-162.2-4.7-242.1-14.6
							c-79.9-9.9-160.2-18.5-243.8-6.1c-94.8,13.1-184.9,52.1-278.4,80.5c-29.2,3.8-55.9,3.7-85.4-16.4
							c-12.2-13.9-31-58.9-17.6-87.5c13.4-28.7,31.1-55.8,48.2-73.6c77.6-77.4,143.4-168.6,223.6-240.1
							c41.4-37.8,80.4-33.2,119-17.9c38.6,15.3,76.7,41.3,116.6,46.4c78.2,4.8,145-37.6,220.8-52.6c20,2.6,39.9,29.3,50.2,62.1
							c21.5,56.2,12.8,96.1,48.3,97.5c46.4-5.7,87.3-47.8,136.2-49.2c41.2,2.7,79.8,12,118.3,15.9c38.6,3.9,77.2,2.4,118.4-16.3
							c16.2-8.4,32.4-16.8,48.4-23.9c16.1-7.1,31.9-12.9,47.6-15.9c15.7-3.1,31.2-3.5,46.4,0.1c15.3,3.6,30.2,11.2,45,24.2
							c23.8,20.2,43.4,52.1,62.4,86.4c18.9,34.4,37.2,71.3,58.2,101.7c14.7,20,31.1,30,48.1,36.9c8.5,3.4,17.2,6,26,8.6
							c8.8,2.7,17.6,5.4,26.3,8.9c7,2.8,13,20.3,21,32.5c-36.8,72.5-95.4,97-146.6,81.1c-7.1-3-10.1-16.4-15.2-24.8
							c-8.2-5.1-16.1-3.2-23.8,1C1366.8,591.3,1359.2,597.9,1351.5,602.1z"/>
						<path class="st4" d="M1363.2,567.3c-15.5,8.5-30.7,18.1-45.7,27.9c-14.9,9.7-29.7,19.7-44.5,29c-14.8,9.3-29.6,18-44.7,25.2
							c-15,7.2-30.3,13-46,16.5c-8.9,2-18.2-5.4-27.5-12.8c-14-15.7-21.8-47.1-33.4-58.7c-50.4-36-101.6-61.4-153.6-75.9
							c-51.9-14.5-104.5-18.2-157.4-11.1c-82.7,6.7-161.3-2.6-240.3-10.6c-79-7.9-158.3-14.5-241.9-2.1
							c-94.9,13-185.1,52.1-278.7,80.4c-29.2,3.8-55.9,3.7-85.5-16.4c-12.2-14-46.2-35.7-32.8-64.3c13.4-28.7,31.1-55.8,48.2-73.6
							c77.6-77.3,143.4-168.6,223.7-240.1c41.4-37.7,80.4-33.2,119-17.9c38.6,15.3,76.7,41.3,116.7,46.4
							c78.2,4.8,145-37.6,220.8-52.6c20,2.7,39.9,29.4,50.2,62.2c21.5,56.2,12.3,96,47.9,97.4c46.5-5.7,87.3-47.8,136.2-49.1
							c41.2,2.7,79.8,12,118.3,15.8c38.6,3.9,77.2,2.4,118.3-16.4c16.2-8.4,32.4-16.8,48.4-23.9c16.1-7.1,31.9-12.8,47.6-15.9
							c31.4-6.2,61.9-1.7,91.4,24.3c23.8,20.2,43.4,52.1,62.3,86.4c9.5,17.2,18.8,35.1,28.3,52.4c9.5,17.3,19.3,34.1,29.8,49.3
							c14.7,20,31.1,30,48.1,36.9c8.5,3.4,17.2,6,26,8.6c8.7,2.7,17.5,5.4,26.3,8.9c7,2.8,13,20.3,20.9,32.5
							c-9.2,18.1-19.1,31.2-29.5,40.5c-10.4,9.2-21.3,14.7-32.7,17.4c-11.4,2.7-23.2,2.5-35.3,0.8c-6.1-0.9-12.2-2.1-18.5-3.7
							c-6.2-1.6-12.5-3.4-18.9-5.4c-7-3-10.1-16.4-15.2-24.7C1393.3,541,1378.6,558.8,1363.2,567.3z"/>
						<path class="st5" d="M1382.2,500.4c-7.7,4.3-15.3,8.9-22.8,13.6c-7.5,4.7-15,9.5-22.4,14.4c-14.8,9.8-29.5,19.8-44.2,29.1
							c-29.4,18.7-58.9,34.9-90.2,41.9c-8.9,2-18.2-5.4-27.4-12.7c-14-15.7-21.9-47-33.4-58.7c-50.3-36-98.4-69-147.3-91.3
							c-48.8-22.3-98.5-33.8-151.5-26.8c-82.9,6.6-159,2.7-235.3,0.2c-76.4-2.5-153-3.6-236.8,8.6c-95,13-185.5,51.8-279.2,80.1
							c-29.3,3.8-71.3,26.9-100.8,6.7c-12.3-14-61.5-12.5-48.1-41.2c13.4-28.7,31.2-55.8,48.2-73.6
							C68.8,313.5,134.6,222.3,215,150.8c41.5-37.7,80.5-33.1,119.1-17.8c19.3,7.6,38.5,18,57.8,27c19.4,9.1,38.9,16.9,58.9,19.5
							c78.2,4.8,145.2-37.6,221-52.6c20,2.7,39.9,29.4,50.2,62.1c21.5,56.2,8.1,90.3,43.7,91.8c46.5-5.6,87.4-47.8,136.3-49.1
							c41.2,2.7,79.8,12,118.3,15.9c38.5,3.9,77.1,2.4,118.2-16.4c32.4-16.7,64.5-33.6,95.7-39.8c15.6-3.1,31-3.6,46.2,0
							c15.1,3.5,30.1,11.1,44.8,24.1c11.8,10.1,22.7,23.1,32.9,37.9c10.2,14.8,19.8,31.3,29.2,48.5c4.7,8.6,9.4,17.4,14.1,26.1
							c4.7,8.8,9.4,17.5,14.1,26.2c9.5,17.3,19.3,34.1,29.7,49.3c14.6,19.9,30.9,30,47.9,36.8c17,6.7,34.6,10.4,52,17.5
							c7,2.9,13,20.3,20.8,32.5c-18.2,36.1-36.4,44.8-56.1,42.2c-19.8-2.4-41.1-16-66.4-23.8c-7-3-10.1-16.4-15.1-24.7
							c-8.2-5.1-15.9-3.1-23.5,1.2C1397.2,489.5,1389.8,496.1,1382.2,500.4z"/>
						<path class="st6" d="M1382.9,382c-23.7,13.5-39.5,39.3-58.9,64c-19.4,24.7-42.5,48.4-80.7,57.2c-8.8,2.1-18.1-5.3-27.3-12.7
							c-14-15.7-21.9-47-33.3-58.6c-50.1-35.9-98.1-68.9-146.8-91.1C987,318.6,937.3,307,884.2,314c-83.1,6.6-148.9-2.1-215-9.6
							c-66.1-7.4-132.5-13.5-216.6-1.4c-95.3,12.8-170.6,28.4-264.7,56.5c-14.7,1.8-40.3,20.1-65.9,35.4
							c-25.6,15.3-51.1,27.6-66,17.5c-6.1-7-33,7.3-56.6,19.7c-23.6,12.5-44,23.1-37.3,8.8c13.4-28.7,20.3-45.4,37.4-63.2
							c77.7-77.4,134.9-155.5,215.2-227c41.5-37.7,81.6-33.2,121.2-17.9c19.8,7.6,39.5,17.9,59.3,26.9c19.8,9,39.6,16.8,59.6,19.4
							c78.2,4.8,145.2-37.6,220.9-52.5c20,2.7,39.9,29.4,50.3,62.2c21.5,56.2,15,18.9,50.7,20.3c46.6-5.7,80.3,21.2,129.2,19.9
							c41.2,2.7,79.8,12,118.3,15.8c38.5,3.9,77.1,2.4,118.1-16.4c32.4-16.8,64.4-33.7,95.7-39.9c15.6-3.1,31-3.6,46.2,0
							c15.1,3.5,30.1,11.2,44.8,24.1c11.8,10.1,22.6,23.1,32.9,37.9c10.2,14.8,19.8,31.3,29.3,48.5c9.5,17.2,18.7,35,28.2,52.3
							c9.5,17.3,19.3,34.2,29.7,49.3c7.3,10,15,17.5,23.1,23.3c4,2.9,8.1,5.5,12.2,7.7c4.1,2.2,8.3,4.1,12.6,5.8
							c8.5,3.4,17.1,6,25.8,8.6c8.7,2.7,17.5,5.3,26.2,8.8c6.9,2.9,13,20.3,20.8,32.5c-9.1,18.1-17.5,27.3-25.7,30.6
							c-8.3,3.4-16.3,1-24.8-4.3c-8.5-5.2-17.3-13.1-27.2-20.7c-9.9-7.6-20.8-14.9-33.4-18.8c-6.9-3-13.4-40.5-18.3-48.8
							c19.7,12.2,5.2,1.4-14.2-12.6C1407,399.3,1382.9,382,1382.9,382z"/>
					</g>
				</g>
			</g>
		</g>
	</g>
</g>
</svg>
